<mxfile host="Electron" modified="2024-01-20T00:55:30.475Z" agent="Mozilla/5.0 (Macintosh; Intel Mac OS X 10_15_7) AppleWebKit/537.36 (KHTML, like Gecko) draw.io/22.1.18 Chrome/120.0.6099.199 Electron/28.1.2 Safari/537.36" etag="yMiVK0TGhAQfRE3GLYXP" version="22.1.18" type="device">
  <diagram id="O3yA9Cei1USXnqjL1qzz" name="第 1 页">
    <mxGraphModel dx="2434" dy="1566" grid="0" gridSize="10" guides="1" tooltips="1" connect="1" arrows="1" fold="1" page="1" pageScale="1" pageWidth="827" pageHeight="1169" math="0" shadow="0">
      <root>
        <mxCell id="0" />
        <mxCell id="1" parent="0" />
        <mxCell id="F23wO6RlduzEbVEuc-yx-1" value="" style="rounded=0;whiteSpace=wrap;html=1;strokeColor=none;fillColor=none;" parent="1" vertex="1">
          <mxGeometry x="18" y="318" width="1548" height="564" as="geometry" />
        </mxCell>
        <mxCell id="hdJvPOuQKjUCLLla7TbE-1" value="" style="shape=image;imageAspect=0;aspect=fixed;verticalLabelPosition=bottom;verticalAlign=top;image=data:image/png,iVBORw0KGgoAAAANSUhEUgAAAZ4AAAGcCAYAAADptMYEAAAAAXNSR0IArs4c6QAAAHhlWElmTU0AKgAAAAgABAEaAAUAAAABAAAAPgEbAAUAAAABAAAARgEoAAMAAAABAAIAAIdpAAQAAAABAAAATgAAAAAAAACWAAAAAQAAAJYAAAABAAOgAQADAAAAAQABAACgAgAEAAAAAQAAAZ6gAwAEAAAAAQAAAZwAAAAALQZVhQAAAAlwSFlzAAAXEgAAFxIBZ5/SUgAAQABJREFUeAHtnW2MW9d95g9fhuTMcF6iSJqRI41kTeUANmq5aLfNBi4SZVPJSIH9VKTbuish9fYlC6Q2XENG96O/BPLGqusATV+QBjKa7ibox93AVtPKQYts+oZaKWzATsbWW6wZSVHmhTNDDjnk8rmj/5BD3SEvyXPOPZf3uYB0yctzz/n/f8+d+/C8kEyoGG5z1//mp9Pl6ieTyaFjqpqYSauhqZpKDCeqiYxKqExCJVI1VUvEEA1TJgES0ESgfh+p1e8jm6qmNmrJ2kZC1dYrqrygkrVr1Wr5B5Wh5Buzh37p3zU1F6lqBvrmeu3at381uTn02XQ18zOp6tD0kBrKphIqmRzorCN1/TFYEog1gWpNqc2aqpZVubSZLM9Xkhv/Vk2Vvzkz8+lvDDKYgboFX33/9T/IVEd/I13NHc0mhnJ1k+FGAiRAApEjUDcjVaqVi5Vk8b2N5OpfHn7w1Bcjl0SbgCN9a7527eIDqUr2K5nq8IlsLTOWYlemjdR8iQRIIKoENutdo1JiY2UjuX5pM136/MzMyQ+imgvijpzxvPXWN/MTo/v/IlvOf2Y4OTQauQSifLUwdhIggdAJ1DtDar1aXi0NFb61tHrrNx955LOF0IPqMoDI3LcxX5PdyH9puDZ8MJXsMksWJwESIIEBJLBZrZtQYv1GKVN4LkrzQs4bz/X3L30xVxl7ZiQ5lBvA64YpkQAJkIAWAmvVcnEttfzlw0c/dVZLhQYrcdZ4rr936c9HqxOfyyZSKYP5s2oSIAESGCgCpdrm5mpy6WuHjp74LVcTc854blx54/xIefwL2WQq7So0xkUCJEACrhMoVTcra0PLXz545JPPuharM8aDOZzhjcmvjSSGhl2DxHhIgARIIKoE1mrl9fXM4udcmgMK3Xhu3vzWvsTah/41r0YOhR5MVK8sxk0CJEACbQhgJVxBrV2vjfzkZw8c+MztNkWtvBTq+rAPrn7n5ZHCAwtjNB0rYrMREiCBeBLAm3rcZ3G/xX03bAqhdDIKC9+bWl1OvpVPZj8cNgC2TwIkQAJxI1Coln48Ol59JD/1sYUwcrfe47ly5dLvV1ZyN2k6YcjNNkmABEhAKdx/cR/G/TgMHlZ7PB/M/cP3xtXYL1htNAyqbJMESIAEIkAAcz/LauUfH5h9/GM2w7XiAVhAkF7d/4P6irUJm8mxLRIgARIggc4E6ivfliqjt47ZWnhgfKjt/fe/9Yls4cA8Taez+CxBAiRAAmEQwP0Z92ncr220b9R4bly79Lsf3vzIpWwyabQdG6DYBgmQAAkMMgHcp3G/xn3bdJ7GDOFHV/72f05s7PlK/TdxrAznmQbF+kmABEhg0Angfo37Nu7fJnM1YgrX33vjTydrH/ptY65mkgjrJgESIIGYE6h/6bVaTPzkzw4d/eTvmECh3Xh+dOXvvz6xOf7r2is2kT3rJAESIAES8CWAFW9LqeW/+siRX3zSt0AfB7V2StDToen0oQZPJQESIAFHCKDzgPs57uu6Q9JmPBgTxPAaezq6JWJ9JEACJBAOAdzPcV/XPeejxSewCgITUkkttYUDmK2SAAmQAAn4E6jWx92WMnc/f3DmxJ/4l+juaN9WgXXfWILnyuq1UgXTYvVP4xY3vD2eZ9PJ+r+t35PDHs+52SFAPexwDtoK9QhKyk65KOmxWVO1H6d+dOLBBz/znX7p9GU8+EYCfOgorM/pQDQYzHKxom4Xil2xgPmM5zJqXz5b3w91dS4L+xOgHv5cwjpKPcIi79/uIOhRqlarpfzN6X6/4aAv47n9w39ZtP2NBCLe7UKpbjjl+xQuLWx92erS5cvea8X5eZWbnlbZqSnvefNjOXlIVdVwLuv1imhEQiXYnnoE42SrFPWwRTpYO4OoB75eZ99P/dxkMAL+pXo2Hnzh50T9Cz/9q9V/FCYDs2nt2dy6eFHBXK5euNBVozCgiePH1dSpU96++eR9+Rx7Qs1AfB5TDx8oIR6iHiHC92l60PVY6vOLRXsyHnyV9t7NPV/q6WQfkdodwjuGG4trOwwHZrP45ptq4fXX250a+DU/ExpSNTWZH1YHJ0c4J9REkno0wXDgIfVwQISmEOKiBz7jcyd197kjR0681JR+4Iddewd+xA2/4zCUSHR9buCo7hWE4eCfbDCcd86dk6dG9jAh9IJmTp/26s/U1yFMjOTU7N68kfaiVCn1cEst6kE9wrxflWu1WnqseKCXH5Pr2jwWfvBPd0z/iBu6qXN3VhTePWDDfM27L77oDanZutQg6OEzZ9T+kye9JrEYYXbvWCwXIlAPW1ddsHaoRzBOtkrFWQ/8kunUsZ/f2y3rrowHv9U9UZl8uttGuikPEd+eX/JOgeFg7kYWCnRTj66yMKCHzp715oEy9Q8qHdozWp//yemq3vl6qIdbElEP6tGOQBj3q6X04h89cPgTz7SLq/W1rQ+3tB71eY6l06Pr+/46aXCIDQsH3r214rUOs/n+s88qWaXmE5KVQ5VCwTO+obExlTs6q1YK66qawFLswV+CTT2sXGKBG6EegVFZKUg9tjCnK9lfePp//Oc/fumlrzfmRTooELjHMz/3/66NqZFDHerr+WX0cvBuDhuG1XQtHOg5IJ8TMfQmcz/o9QzyvA/18LkAQjxEPUKE79M09dgJZUWtXZ+e/Y8zO4/u/iyQ8Vy79u1f3VPe978DFd69rV1faRYRvZwwh9Z2DfLeC1iC/ej5896zQTUf6tHpKrD7OvWwy7tTa9TjfkJY5XZ36PZ/mZn59Dfuf/X+I4G8pP5B0bX6B0WH7z+9/yPNK3NcNx3JFuOo/+HrX/eeYrk1/g3KRj3cUpJ6UI9+Cdi6X9U/WLpe/2BpoJthxy8tu3HljfOmTAdDa/jDwhYV00Gs+MAq4sU2f3dlx2eMvIMR/Y96uCUc9aAeOgjYul/BJ+AXQWLuaDwj5fEvBKmo2zL4o0KXFRvmdFweXvPLDfFee/VVVUmm1PW7q9vzU35lo3CMerilEvWgHjoJ2LpfBfWLtsZz/b1Lf55NptI6AUhd0tMBEBcXEkic7fZY6o0PtW7UvzMcnzuK8kY93FKPelAP3QRs3K/gF/CNTrG3NZ7R6sTnOlXQy+v4o8I7OpiODFn1Uo8L58jnjPBh17k7BRdC6joG6tE1MqMnUA+jeLuunHp0hyyIb+xqPFff+7sXs4lU4M/5dBMahMSGm3bUN4yfYqgQ29JacfvbFqKUF/VwSy3qQT1MEbBxv4JvwD/a5bCr8YxsmpnbkV4BhqjQ4xmEDWJuDbmp7cUSUcmLerilFPWgHqYJ2LhfdfIPX+PB53ZGkkPavxcGw1H4tC+2QejtNF8gks9i/ZsNMIwYhY16uKUS9aAetgiYvl/BP+Aju+XjazzZjfyXdjuhn+MyAY/VYHDdQdqQD/Iqq0TdXEuRSI16uCUT9aAetgjYuF+185H7jOett76ZH64NHzQBQHoCUV3F1omJ5IVeneTa6ZwwX5cYJe4wYzHRtuRFPUzQ7b5O6tE9M5NnmNYDPgI/8cvhPuOZGN3/F6n7jvqd2t0xmTDFXMig9XaEBPKSeSvXez3UQ1RzY0893NBBoqAeQqL3PXwEfuJXw30Wk6mM/rJfwX6Pybtr/HLoIG/yLqJU2XQ6TerhljzUg3qEQcD0/Wo3P9lhPNeuXXxgJJEJ9F073UKSPyxJtNvzo1JeejzrRbfneaiHW1cU9aAeYRAwfb+Cn8BXWnPbYTypSvYrgb41tLWWDs9lJZsk2aF4pF+W4baySjo7z0M93LrEqAf1CIuA6fsV/AS+0prfDuPJVIdPtBbQ8Xy5WPGqGfTejrCSPF2d56EeopQbe+rhhg4SBfUQEnr2fr6yw3iytcyYnqZ21rJc3PAOxKHHg0QlT8l7J43wn0lcEmf4EZmNQPKUvM221n3tEpfE2X0N0TpD8pS8XYte4pI4XYtPdzySp+Stu34/X9k2nqvvv/4HqaSJgTa1/TUyg7qarVUoyRMfCHRxk7gkThdj1BmT5Cl566xbR10Sl8Spo06X65A8JW/XYpW4JE7X4tMdj+QpeeuuH74Cf2mud9t4MtXR32h+gY/7I1BaWPAqMCVmf9HF72zq4Zbm1CNeerT6y7bxpKu5oyZQyGod6c6ZaMPFOhvvItxaVk09qIcLfy/8+3BBhUYMpvVo9Zdt48km9H83WyMtPiIBEiABEogrgVZ/8Yzn2vt/+2spM9M720uK49bjaQwl8B22C39s1MMFFRoxUI8GCxcemdYD/tL8paGe8SRV+ldcSH6QYmh0Xd1cYDBIrIPkQj2CULJXhnrYYx2kJRt6JDeHPiuxeMaTrmZ+Rg7o3mfTW6N5uelp3VU7XZ/kK/m7EqzEI/G5EpfpOCRfyd90e0Hrl3gkvqDnRb2c5Cv5u5KPxCPxuRKX6TgkX8nfRHvNPuO5Qqo6FC9XMEGVdZIACZAACexKoNlnPOMZUkPZXUv3+cJ4LuPVMHH8eJ81Ret0yVfydyV6iUficyUu03FIvpK/6faC1i/xSHxBz4t6OclX8nclH4lH4nMlLtNxSL6Sv4n2mn1mq8eTqH+xGDcSIAESIAESMESgvsBg22eSc9f/5qcNfWGBF76MGWanpgyl42a1kq/k70qUEo/E50pcpuOQfCV/0+0FrV/ikfiCnhf1cpKv5O9KPhKPxOdKXKbjkHwlfxPtwWfgN6g7ma6mTphopLlOSUa6c82v8bF9AtTDPvN2LVKPdnTsv0Y9zDEXv0kma+qnzDWzVXM2nTLdhFP1Hz5zxotnXz7nVFwSDPUQEm7sqYcbOkgU1ENI6N+L3yST1dRh/dXvrHFffmvtwvQTT+x8YUCfydLE8VzayQyph1uyUA/qESYBm/cr8ZtkUqX2m05aVkrEZaht/8mTHlLJ2zTfbuuXuKhHt+TMlKceZrj2Wiv16JVc5/PEb+o9n8Rw5+L9lcCY6XhuSGECa9BvdlOnTnmwvHzvfXi2P3r6z6Ye+pn2UyP16Iee/nOph36mUqP4TTJRTWx90EZeMbSPy3DC5GOPeQQlX0M4+65W4hv04U/q0felorUC6qEVZ9+V2dZD/CapEsqK8TR3X2VMsW9qDlbg+jCbIKMeQsKNPfVwQweJgnoICc37e35TX1qdsLLkrLn7Kqu+NKcUenUfff55LwasZkO+Lm/Uwy11qAf1sE0gjPuV+E19jqdm6AcR7sc4u3fMO4h5nkGb60EvTno7Mox1PwG3jlAP6mGLAP8+bJEO1k5YeojfWH1bjnd1Xm+gvshg0OYWHjp71lMc+WFhQRQ26uGWStSDetgiEPb9yqrxAOrByRGPLXoHg9Lrae7BSX62LqB+25F4qUe/JPWcTz30cNRVC/XQRXJnPdaNB+/qRMxBmeuRPJAX8ovSRj3cUot6UA/TBFy4X4Vyl5TJd/QUZILLNGxT9T96/rzXc2u+YZhqy1S91MMU2d7qpR69cTN1FvXQTzYU48FN+uHpSS8bDPGIA+tPz2yN+LCoDBfKRL3ZFs3UTj3McO21VurRKzkz51EP/VxDMR6ksSXmhJfRVP073OQT//pTNFMjDEcm6B6enojMgoLdaFCP3ciEc5x6hMN9t1apx25kejsemvEgXKz+8uZF9u/3ej1R+WApTAdDbNhm9+YjbzpeIvX/qIeQcGNPPdzQQaKgHkKi/33quaefeiarMlvjXv3X13UNELNUqapSJqf2Pv64qhQKanVurut6bJ3QbDqI/cievK2mrbRDPaxgDtwI9QiMykpB6tEf5pIqL730yldfDt14kMZoJq02qzXPfPLHjql0Pq+WLl/uL0MDZ2M48OEXXvBqxgWIIbZB3KiHW6pSD+rRCwEX71diPImbc9+9Mq5Gjf8mTxBwNxbXFP5hu3Xxonrn3Lkgp1kpI6vX0BiGB2VJuJXGQ2qEeoQEfpdmqccuYEI6TD26B7+sVq8emP34EaeMB2ksF8vq7fklLyP0eq5euBBq7wdDa1h1hz22QVhI4CUS8D/qERCUpWLUwxLogM1Qj4Cg7hVz1ngQH+Z83p5f9PZ4jt7P/GuvWTUgLHSA4cj3r2FoDb0c7OO2UQ+3FKce1KOVQFTuV04bD6Dij+t2obg99FZaWPCMBz2g4vx8K3dtzyEgxkZnTp/erjMuQ2vbCfs8oB4+UEI8RD1ChO/TNPXwgeJzyHnjkZghKMZSYULYxIB094BgNvhRJOnhoC18YhnLpbk1CFCPBgsXHlEPF1RoxEA9Giz8HkXGeCR4CDp3Z8WbA9o+dq8XBBPC1s1KOPRsMG8Dw5H5G6kXw2n4JgJ8aIybPwHq4c8lrKPUIyzy/u1SD38ukTMeSQOCLhc36j2g0g4T2n69bkbYxIRkWE7MRfZSXvYwG5nHkWPcdyZAPTozslmCetik3bkt6rGTUWSNpzmNZlFLlc3txQjNZXZ7jN4Mft52PJf2htR2K8fjwQlQj+CsbJSkHjYoB2+DetRXLd9bTp0Ojs29kjAPzMPgn2wQFxt6RdjkuaxGk733Iv/TSoB6aMXZd2XUo2+EWiugHg2ckTaeRhqNRxAXW7MZNV7lI9sEqIdt4u3box7t+dh+Na56cPbc9pXG9kiABEgg5gRoPDG/AJg+CZAACdgmQOOxTZztkQAJkEDMCdB4Yn4BMH0SIAESsE2AxmObONsjARIggZgToPHE/AJg+iRAAiRgmwCNxzZxtkcCJEACMSdA44n5BcD0SYAESMA2ARqPbeJsjwRIgARiToDGE/MLgOmTAAmQgG0CNB7bxNkeCZAACcScAI0n5hcA0ycBEiAB2wRoPLaJsz0SIAESiDkBGk/MLwCmTwIkQAK2CdB4bBNneyRAAiQQcwI0nphfAEyfBEiABGwToPHYJs72SIAESCDmBGg8Mb8AmD4JkAAJ2CZA47FNnO2RAAmQQMwJ0HhifgEwfRIgARKwTYDGY5s42yMBEiCBmBOg8cT8AmD6JEACJGCbAI3HNnG2RwIkQAIxJ0DjifkFwPRJgARIwDYBGo9t4myPBEiABGJOgMYT8wuA6ZMACZCAbQI0HtvE2R4JkAAJxJwAjSfmFwDTJwESIAHbBGg8tomzPRIgARKIOQEaT8wvAKZPAiRAArYJ0HhsE2d7JEACJBBzAjSemF8ATJ8ESIAEbBOg8dgmzvZIgARIIOYEaDwxvwCYPgmQAAnYJpC23aDp9kqVqtfEcnHD2+N5Np2s/0t5z7HHc252CFAPO5yDtkI9gpKyUy6uekTaeCAaDGa5WFG3C8WurhSYz3guo/bls/X9UFfnsrA/AerhzyWso9QjLPL+7VKPBpfIGY+Id7tQqhtOuZHJvUelhQXv0dLly96+OD+vctPTKjs15T2Xx6gHZoV/Q6qqhnNZr1dEI7oHMuCOegQEZakY9bAEOmAz1MMfVGSMByYDs2nt2dy6eFHBXK5euOCf4S5HYUATx4+rqVOnvH3ZMzG0Uaz3gnLsCe3CTQ5TDyHhxp56uKGDREE9hIT/PnFz7rtXxtXoYf+Xwz+Kdww3Ftd2GA7MZvHNN9XC669rCbDVhFDpkKqpyfywOjg5wjmhJsrUowmGAw+phwMiNIVAPZpg+DxcVqtXD8x+/IjTxgPDwT/ZYDjvnDsnT43sYULoBc2cPu3Vn6mvQ5gYyanZvXkj7UWpUurhllrUg3pE7X7ltPGgmzp3Z0Xh3QM2zNe8++KL3pCarUsNgh4+c0btP3nSaxKLEWb3jsVyIQL1sHXVBWuHegTjZKsU9QhO2lnjgYhvzy95mcBwMHcjCwWCp6evJAzoobNnvXmgTDKhDu0Z9eaA9LXgdk3Uwy19qAf1aEfA9fuVGE/quaefeiarMpPtkrH1Gib237214jUHs/n+s88qWaVmK4bWdiqFgmd8Q2NjKnd0Vq0U1lU1gaXYg78Em3q0Xg3hPqce4fJvbZ16tBLp/LykyksvvfLVl52Z40EvB+/msGFYTdfCgc4ogpfA0JvM/WDl2yDP+1CP4NeFjZLUwwbl4G1Qj+CsmktKj8cJ42kWEb2cMIfWmiH5PcYS7EfPn/deGlTzoR5+yod3jHqEx96vZerhRyXYMTGe0L87BitzpKfjuukALUzxn5980qOMrnbzqrtg6N0uRT3c0od6UI9+CLh6vwrVeGA4cuOOgunIBYAPrCJebPN3V3Z8xkjKRHFPPdxSjXpQDx0EXLxfhWY8+KNClxUb5nRcHl7zEx/xXnv1VVVJptT1u6vbvTa/slE4Rj3cUol6UA+dBFy7X4VmPNLTARAXFxIEER1LvfGh1o1qzfvcUZBzXC1DPdxShnpQD90EXLpfhWI8+KPCOzqYjgxZ6YZsqz75nBE+7Dp3p2CrWa3tUA+tOPuujHr0jVBrBdRDK06vstCMB63jph31DeOnGCrEtrRW3P62hSjlhT8sbNTDDdWohxs6SBTUQ0jo21s3HukVYIgKPZ5B2GA+W0NuanuxRFTyoh5uKUU9qIdpAi7cr6waD4ajsAQZ2yC8u26+QCSfxfo3G2AYMQob9XBLJepBPWwRCPt+ZdV48MWf2LAaDK47SBvyQV5llaibaykSqVEPt2SiHtTDFoGw71dWjUd6AlFdxdbpopC80KuTXDudE+brEqPEHWYsJtqWvKiHCbrd10k9umdm8oww9bBmPDJBh7mQQevtyMWBvGTeyvVeD/UQ1dzYUw83dJAoqIeQMLO3Zjzy7hq/HDrIm7yLKFU2nU6TerglD/WgHmEQCOt+Zd14JNEwINtoU3o860W353nkRkc9bFwVndugHp0Z2SxBPczStmI8spJNbspmUwq3dhluK6uks/M81CPca6S1derRSiTc59TDPH8rxrNcrHiZDPq7a5FL8nR1nod6iFJu7KmHGzpIFNRDSJjbWzKeDS+DOPR4kKjkuVzcytucfL3VLHFJnL3VEp2zJE/J27XIJS6J07X4dMcjeUreuuvvtz6JS+Lstz7Xz5c8JW8b8VoxHnwwDtugrmZrFUrylLxbXw/7ucQlcYYdj+n2JU/J23R73dYvcUmc3Z4ftfKSp+TtWvwSl8TpWny645E8JW/d9fvVZ8V4/Boe9GOlhQUvRZtiDjrTfvKjHv3Q038u9dDPtJ8abeth3HhkdYh05/qBE6VzG+8i3FpWTT2ohwt/R/z7cEGFRgy29TBuPI3U+IgESIAESIAEVH3Nr+Etru+wG11XvsM2fIkFqp56BMJkrRD1sIY6UEO29TBuPIGyHsBCja7r1sKKAUwxUilRD7fkoh7x1sO48WTTW03kpqfdIm04GslX8jfcXODqJR6JL/CJES8o+Ur+rqQj8Uh8rsRlOg7JV/I33V7Q+iUeiS/oeVEvJ/lK/qbzMW48phNg/SRAAiRAAtEiYNx4xnMZj8jE8ePRItNntJKv5N9nddpOl3gkPm0VO16R5Cv5uxKuxCPxuRKX6TgkX8nfdHtB65d4JL6g50W9nOQr+ZvOx7jxmE6A9ZMACZAACUSLgHHjkTHD7NRUtMj0Ga3kK/n3WZ220yUeiU9bxY5XJPlK/q6EK/FIfK7EZToOyVfyN91e0PolHokv6HlRLyf5Sv6m8zFuPEhAkpHunOmkWH97AtSjPR/br1IP28Tbt0c92vPR8aol40npiDUydRw+c8aLdV8+52TM2TT1cEkY6uGSGnijzL8P04pYMZ59+ayXx/QTT5jOx4n6ZWnieC7tRDytQVCPViLhPqce4fJvbZ16tBLR/9yK8chKibgMte0/edJTSvLWL1t/NUpc1KM/jrrOph66SOqph3ro4diuFivGgzHT8dyQwgTWoN/spk6d8nh7+d778Gw7AcJ4jXqEQX33NqnH7mzCeIV6mKduxXiQRly6r5OPPeapJvmal7C3FiS+QR/+pB69XR+mzqIepsj2Vm9Yelgznubuq8yB9IbK7bNcH2YTetRDSLixpx5u6CBRUA8hYWZvzXiau6+y6stMSuHV+tHnn/cax2o25OvyRj3cUod6UA/bBMK8X1m9O87uHfPYYp5n0OZ60IuT3o4MY9m+kLptj3p0S8xseephlm+3tVOPbokFL2/VePCuzusN1BcZDNrcwkNnz3rUkR8WFkRhox5uqUQ9qIctAmHfr6waD6AenBzx2KJ3MCi9nuYenORn6wLqtx2Jl3r0S1LP+dRDD0ddtVAPXSR31mPdePCuTsQclLkeyQN5Ib8obdTDLbWoB/UwTcCF+1Uod0mZfEdPQSa4TMM2Vf+j5897PbfmG4aptkzVSz1Mke2tXurRGzdTZ1EP/WRDMR7cpB+envSywRCPOLD+9MzWiA+LynChTESabdFM7dTDDNdea6UevZIzcx710M81FONBGltiTngZTdW/w00+8a8/RTM1wnBkgu7h6YnILCjYjQb12I1MOMepRzjcd2uVeuxGprfjoRkPwsXqL29eZP9+r9cTlQ+WwnQwxIZtdm8+8qbjJVL/j3oICTf21MMNHSQK6iEk+t+nnnv6qWeyKrM17tV/fV3XADFLlaoqZXJq7+OPq0qhoFbn5rqux9YJzaaD2I/sydtq2ko71MMK5sCNUI/AqKwUpB79YS6p8tJLr3z15dCNB2mMZtJqs1rzzCd/7JhK5/Nq6fLl/jI0cDaGAx9+4QWvZlyAGGIbxI16uKUq9aAevRBw8X4lxpO4OffdK+Nq9HAviek+58bimsI/bLcuXlTvnDunu4me65PVa6gAw4OyJLznCiNwIvVwSyTqQT2CEnD1frWsVq8emP34EaeMB1CXi2X19vySxxe9nqsXLoTa+8HQGlbdYY9tEBYSeIkE/I96BARlqRj1sAQ6YDPUIyCoe8WcNR7Ehzmft+cXvT2eo/cz/9prVg0ICx1gOPL9axhaQy8H+7ht1MMtxakH9WglEJX7ldPGA6j447pdKG4PvZUWFjzjQQ+oOD/fyl3bcwiIsdGZ06e364zL0Np2wj4PqIcPlBAPUY8Q4fs0TT18oPgcct54JGYIirFtmBA2MSDdPSCYDX4USXo4aAufWMZyaW4NAtSjwcKFR9TDBRUaMVCPBgu/R5ExHgkegs7dWfHmgLaP3esFwYSwdbMSDj0bzNvAcGT+RurFcBq+iQAfGuPmT4B6+HMJ6yj1CIu8f7vUw59L5IxH0oCgy8WNeg+otMOEtl+vmxE2MSEZlhNzkb2Ulz3MRuZx5Bj3nQlQj86MbJagHjZpd26LeuxkFFnjaU6jWdRSZXN7MUJzmd0eozeDn7cdz6W9IbXdyvF4cALUIzgrGyWphw3KwdugHvVVy/eWU6eDY3OvJMwD8zD4JxvExYZeETZ5LqvRZO+9yP+0EqAeWnH2XRn16Buh1gqoRwNnpI2nkUbjEcTF1mxGjVf5yDYB6mGbePv2qEd7PrZfjasenD23faWxPRIgARKIOQEaT8wvAKZPAiRAArYJ0HhsE2d7JEACJBBzAjSemF8ATJ8ESIAEbBOg8dgmzvZIgARIIOYEaDwxvwCYPgmQAAnYJkDjsU2c7ZEACZBAzAnQeGJ+ATB9EiABErBNgMZjmzjbIwESIIGYE6DxxPwCYPokQAIkYJsAjcc2cbZHAiRAAjEnQOOJ+QXA9EmABEjANgEaj23ibI8ESIAEYk6AxhPzC4DpkwAJkIBtAjQe28TZHgmQAAnEnACNJ+YXANMnARIgAdsEaDy2ibM9EiABEog5ARpPzC8Apk8CJEACtgnQeGwTZ3skQAIkEHMCNJ6YXwBMnwRIgARsE6Dx2CbO9kiABEgg5gRoPDG/AJg+CZAACdgmQOOxTZztkQAJkEDMCdB4Yn4BMH0SIAESsE2AxmObONsjARIggZgToPHE/AJg+iRAAiRgmwCNxzZxtkcCJEACMSdA44n5BcD0SYAESMA2ARqPbeJsjwRIgARiToDGE/MLgOmTAAmQgG0CNB7bxNkeCZAACcScAI0n5hcA0ycBEiAB2wRoPLaJsz0SIAESiDkBGk/MLwCmTwIkQAK2CaRtN2i6vVKl6jWxXNzw9nieTSfr/1Lec+zxnJsdAtTDDuegrVCPoKTslIurHpE2HogGg1kuVtTtQrGrKwXmM57LqH35bH0/1NW5LOxPgHr4cwnrKPUIi7x/u9SjwSVyxiPi3S6U6oZTbmRy71FpYcF7tHT5srcvzs+r3PS0yk5Nec/lMeqBWeHfkKqq4VzW6xXRiO6BDLijHgFBWSpGPSyBDtgM9fAHFRnjgcnAbFp7NrcuXlQwl6sXLvhnuMtRGNDE8eNq6tQpb1/2TAxtFOu9oBx7Qrtwk8PUQ0i4sacebuggUVAPIeG/T9yc++6VcTV62P/l8I/iHcONxbUdhgOzWXzzTbXw+utaAmw1IVQ6pGpqMj+sDk6OcE6oiTL1aILhwEPq4YAITSFQjyYYPg+X1erVA7MfP+K08cBw8E82GM47587JUyN7mBB6QTOnT3v1Z+rrECZGcmp2b95Ie1GqlHq4pRb1oB5Ru185bTzops7dWVF494AN8zXvvviiN6Rm61KDoIfPnFH7T570msRihNm9Y7FciEA9bF11wdqhHsE42SpFPYKTdtZ4IOLb80teJjAczN3IQoHg6ekrCQN66OxZbx4ok0yoQ3tGvTkgfS24XRP1cEsf6kE92hFw/X4lxpN67umnnsmqzGS7ZGy9hon9d2+teM3BbL7/7LNKVqnZiqG1nUqh4Bnf0NiYyh2dVSuFdVVNYCn24C/Bph6tV0O4z6lHuPxbW6cerUQ6Py+p8tJLr3z1ZWfmeNDLwbs5bBhW07VwoDOK4CUw9CZzP1j5NsjzPtQj+HVhoyT1sEE5eBvUIzir5pLS43HCeJpFRC8nzKG1Zkh+j7EE+9Hz572XBtV8qIef8uEdox7hsfdrmXr4UQl2TIwn9O+Owcoc6em4bjpAC1P85yef9Cijq9286i4YerdLUQ+39KEe1KMfAq7er0I1HhiO3LijYDpyAeADq4gX2/zdlR2fMZIyUdxTD7dUox7UQwcBF+9XoRkP/qjQZcWGOR2Xh9f8xEe81159VVWSKXX97up2r82vbBSOUQ+3VKIe1EMnAdfuV6EZj/R0AMTFhQRBRMdSb3yodaNa8z53FOQcV8tQD7eUoR7UQzcBl+5XoRgP/qjwjg6mI0NWuiHbqk8+Z4QPu87dKdhqVms71EMrzr4rox59I9RaAfXQitOrLDTjQeu4aUd9w/gphgqxLa0Vt79tIUp54Q8LG/VwQzXq4YYOEgX1EBL69taNR3oFGKJCj2cQNpjP1pCb2l4sEZW8qIdbSlEP6mGagAv3K6vGg+EoLEHGNgjvrpsvEMlnsf7NBhhGjMJGPdxSiXpQD1sEwr5fWTUefPEnNqwGg+sO0oZ8kFdZJermWopEatTDLZmoB/WwRSDs+5VV45GeQFRXsXW6KCQv9Ook107nhPm6xChxhxmLibYlL+phgm73dVKP7pmZPCNMPawZj0zQYS5k0Ho7cnEgL5m3cr3XQz1ENTf21MMNHSQK6iEkzOytGY+8u8Yvhw7yJu8iSpVNp9OkHm7JQz2oRxgEwrpfWTceSTQMyDbalB7PetHteR650VEPG1dF5zaoR2dGNktQD7O0rRiPrGSTm7LZlMKtXYbbyirp7DwP9Qj3GmltnXq0Egn3OfUwz9+K8SwXK14mg/7uWuSSPF2d56EeopQbe+rhhg4SBfUQEub2loxnw8sgDj0eJCp5Lhe38jYnX281S1wSZ2+1ROcsyVPydi1yiUvidC0+3fFInpK37vr7rU/ikjj7rc/18yVPydtGvFaMBx+Mwzaoq9lahZI8Je/W18N+LnFJnGHHY7p9yVPyNt1et/VLXBJnt+dHrbzkKXm7Fr/EJXG6Fp/ueCRPyVt3/X71WTEev4YH/VhpYcFL0aaYg860n/yoRz/09J9LPfQz7adG23oYNx5ZHSLduX7gROncxrsIt5ZVUw/q4cLfEf8+XFChEYNtPYwbTyM1PiIBEiABEiABVV/za3iL6zvsRteV77ANX2KBqqcegTBZK0Q9rKEO1JBtPYwbT6CsB7BQo+u6tbBiAFOMVErUwy25qEe89TBuPNn0VhO56Wm3SBuORvKV/A03F7h6iUfiC3xixAtKvpK/K+lIPBKfK3GZjkPylfxNtxe0folH4gt6XtTLSb6Sv+l8jBuP6QRYPwmQAAmQQLQIGDee8VzGIzJx/Hi0yPQZreQr+fdZnbbTJR6JT1vFjlck+Ur+roQr8Uh8rsRlOg7JV/I33V7Q+iUeiS/oeVEvJ/lK/qbzMW48phNg/SRAAiRAAtEiYNx4ZMwwOzUVLTJ9Riv5Sv59VqftdIlH4tNWseMVSb6SvyvhSjwSnytxmY5D8pX8TbcXtH6JR+ILel7Uy0m+kr/pfIwbDxKQZKQ7Zzop1t+eAPVoz8f2q9TDNvH27VGP9nx0vGrJeFI6Yo1MHYfPnPFi3ZfPORlzNk09XBKGerikBt4o8+/DtCJWjGdfPuvlMf3EE6bzcaJ+WZo4nks7EU9rENSjlUi4z6lHuPxbW6cerUT0P7diPLJSIi5DbftPnvSUkrz1y9ZfjRIX9eiPo66zqYcuknrqoR56OLarxYrxYMx0PDekMIE16De7qVOnPN5evvc+PNtOgDBeox5hUN+9TeqxO5swXqEe5qlbMR6kEZfu6+Rjj3mqSb7mJeytBYlv0Ic/qUdv14eps6iHKbK91RuWHtaMp7n7KnMgvaFy+yzXh9mEHvUQEm7sqYcbOkgU1ENImNlbM57m7qus+jKTUni1fvT5573GsZoN+bq8UQ+31KEe1MM2gTDvV1bvjrN7xzy2mOcZtLke9OKktyPDWLYvpG7box7dEjNbnnqY5dtt7dSjW2LBy1s1Hryr83oD9UUGgza38NDZsx515IeFBVHYqIdbKlEP6mGLQNj3K6vGA6gHJ0c8tugdDEqvp7kHJ/nZuoD6bUfipR79ktRzPvXQw1FXLdRDF8md9Vg3HryrEzEHZa5H8kBeyC9KG/VwSy3qQT1ME3DhfhXKXVIm39FTkAku07BN1f/o+fNez635hmGqLVP1Ug9TZHurl3r0xs3UWdRDP9lQjAc36YenJ71sMMQjDqw/PbM14sOiMlwoE5FmWzRTO/Uww7XXWqlHr+TMnEc99HMNxXiQxpaYE15GU/XvcJNP/OtP0UyNMByZoHt4eiIyCwp2o0E9diMTznHqEQ733VqlHruR6e14aMaDcLH6y5sX2b/f6/VE5YOlMB0MsWGb3ZuPvOl4idT/ox5Cwo099XBDB4mCegiJ/vep555+6pmsymyNe/VfX9c1QMxSpapKmZza+/jjqlIoqNW5ua7rsXVCs+kg9iN78raattIO9bCCOXAj1CMwKisFqUd/mEuqvPTSK199OXTjQRqjmbTarNY888kfO6bS+bxauny5vwwNnI3hwIdfeMGrGRcghtgGcaMebqlKPahHLwRcvF+J8SRuzn33yrgaPdxLYrrPubG4pvAP262LF9U7587pbqLn+mT1GirA8KAsCe+5wgicSD3cEol6UI+gBFy9Xy2r1asHZj9+xCnjAdTlYlm9Pb/k8UWv5+qFC6H2fjC0hlV32GMbhIUEXiIB/6MeAUFZKkY9LIEO2Az1CAjqXjFnjQfxYc7n7flFb4/n6P3Mv/aaVQPCQgcYjnz/GobW0MvBPm4b9XBLcepBPVoJROV+5bTxACr+uG4XittDb6WFBc940AMqzs+3ctf2HAJibHTm9OntOuMytLadsM8D6uEDJcRD1CNE+D5NUw8fKD6HnDceiRmCYmwbJoRNDEh3Dwhmgx9Fkh4O2sInlrFcmluDAPVosHDhEfVwQYVGDNSjwcLvUWSMR4KHoHN3Vrw5oO1j93pBMCFs3ayEQ88G8zYwHJm/kXoxnIZvIsCHxrj5E6Ae/lzCOko9wiLv3y718OcSOeORNCDocnGj3gMq7TCh7dfrZoRNTEiG5cRcZC/lZQ+zkXkcOcZ9ZwLUozMjmyWoh03anduiHjsZRdZ4mtNoFrVU2dxejNBcZrfH6M3g523Hc2lvSG23cjwenAD1CM7KRknqYYNy8DaoR33V8r3l1Ong2NwrCfPAPAz+yQZxsaFXhE2ey2o02Xsv8j+tBKiHVpx9V0Y9+kaotQLq0cAZaeNppNF4BHGxNZtR41U+sk2Aetgm3r496tGej+1X46oHZ89tX2lsjwRIgARiToDGE/MLgOmTAAmQgG0CNB7bxNkeCZAACcScAI0n5hcA0ycBEiAB2wRoPLaJsz0SIAESiDkBGk/MLwCmTwIkQAK2CdB4bBNneyRAAiQQcwI0nphfAEyfBEiABGwToPHYJs72SIAESCDmBGg8Mb8AmD4JkAAJ2CZA47FNnO2RAAmQQMwJ0HhifgEwfRIgARKwTYDGY5s42yMBEiCBmBOg8cT8AmD6JEACJGCbAI3HNnG2RwIkQAIxJ0DjifkFwPRJgARIwDYBGo9t4myPBEiABGJOgMYT8wuA6ZMACZCAbQI0HtvE2R4JkAAJxJwAjSfmFwDTJwESIAHbBGg8tomzPRIgARKIOQEaT8wvAKZPAiRAArYJ0HhsE2d7JEACJBBzAjSemF8ATJ8ESIAEbBOg8dgmzvZIgARIIOYEaDwxvwCYPgmQAAnYJkDjsU2c7ZEACZBAzAnQeGJ+ATB9EiABErBNgMZjmzjbIwESIIGYE6DxxPwCYPokQAIkYJsAjcc2cbZHAiRAAjEnQOOJ+QXA9EmABEjANgEaj23ibI8ESIAEYk6AxhPzC4DpkwAJkIBtAmnbDZpur1Spek0sFze8PZ5n08n6v5T3HHs852aHAPWwwzloK9QjKCk75eKqR6SNB6LBYJaLFXW7UOzqSoH5jOcyal8+W98PdXUuC/sToB7+XMI6Sj3CIu/fLvVocImc8Yh4twuluuGUG5nce1RaWPAeLV2+7O2L8/MqNz2tslNT3nN5jHpgVvg3pKpqOJf1ekU0onsgA+6oR0BQlopRD0ugAzZDPfxBRcZ4YDIwm9aeza2LFxXM5eqFC/4Z7nIUBjRx/LiaOnXK25c9E0MbxXovKMee0C7c5DD1EBJu7KmHGzpIFNRDSPjvEzfnvntlXI0e9n85/KN4x3BjcW2H4cBsFt98Uy28/rqWAFtNCJUOqZqazA+rg5MjnBNqokw9mmA48JB6OCBCUwjUowmGz8NltXr1wOzHjzhtPDAc/JMNhvPOuXPy1MgeJoRe0Mzp0179mfo6hImRnJrdmzfSXpQqpR5uqUU9qEfU7ldOGw+6qXN3VhTePWDDfM27L77oDanZutQg6OEzZ9T+kye9JrEYYXbvWCwXIlAPW1ddsHaoRzBOtkpRj+CknTUeiPj2/JKXCQwHczeyUCB4evpKwoAeOnvWmwfKJBPq0J5Rbw5IXwtu10Q93NKHelCPdgRcv1+J8aSee/qpZ7IqM9kuGVuvYWL/3VsrXnMwm+8/+6ySVWq2Ymhtp1IoeMY3NDamckdn1UphXVUTWIo9+EuwqUfr1RDuc+oRLv/W1qlHK5HOz0uqvPTSK1992Zk5HvRy8G4OG4bVdC0c6IwieAkMvcncD1a+DfK8D/UIfl3YKEk9bFAO3gb1CM6quaT0eJwwnmYR0csJc2itGZLfYyzBfvT8ee+lQTUf6uGnfHjHqEd47P1aph5+VIIdE+MJ/btjsDJHejqumw7QwhT/+cknPcroajevuguG3u1S1MMtfagH9eiHgKv3q1CNB4YjN+4omI5cAPjAKuLFNn93ZcdnjKRMFPfUwy3VqAf10EHAxftVaMaDPyp0WbFhTsfl4TU/8RHvtVdfVZVkSl2/u7rda/MrG4Vj1MMtlagH9dBJwLX7VWjGIz0dAHFxIUEQ0bHUGx9q3ajWvM8dBTnH1TLUwy1lqAf10E3ApftVKMaDPyq8o4PpyJCVbsi26pPPGeHDrnN3Craa1doO9dCKs+/KqEffCLVWQD204vQqC8140Dpu2lHfMH6KoUJsS2vF7W9biFJe+MPCRj3cUI16uKGDREE9hIS+vXXjkV4BhqjQ4xmEDeazNeSmthdLRCUv6uGWUtSDepgm4ML9yqrxYDgKS5CxDcK76+YLRPJZrH+zAYYRo7BRD7dUoh7UwxaBsO9X9W8fS9RsJYsv/sSG1WBw3UHakA/yKqtE3VxLkUiNerglE/WgHrYIhHW/Er9J1lRt01ay0hOI6iq2TpwkL/TqJNdO54T5usQocYcZi4m2JS/qYYJu93VSj+6ZmTwjDD3Eb5L13zvbMJmc1C0TdJgLGbTejuSIvGTeyvVeD/UQ1dzYUw83dJAoqIeQ0Ly/5zfJWrJmxXjk3TV+OXSQN3kXUapY60j2hJN69ITN2EnUwxjaniqmHj1h63iS+E19jqe23rG0hgIipNyYNVTpZBXS41kvuj3PQz3cunyoB/UIg4Dt+5X4TbKqNm+ZTlhWskmSptsLs34ZbiurpLPzPNQjzCvk/rapx/1MwjxCPczRr6jyAmpPVpObV801s1XzcrHiPRj03o5wlDxdneehHqKUG3vq4YYOEgX1EBIG9snaNdSarCbUDw1Uv6PK5eLWNFIcejxIXPKUvHfAcOCJxCVxOhCS0RAkT8nbaGM9VC5xSZw9VBGpUyRPydu14CUuidO1+HTHI3lK3rrrb66vWi3/AM+TleTmpeYXTDzGB+OwDepqtlZmkqfk3fp62M8lLokz7HhMty95St6m2+u2folL4uz2/KiVlzwlb9fil7gkTtfi0x2P5Cl5666/ub7KUPINPE/OHvqlf69/uTI3zQRKC95QZiS/u00zCieqox5OyLAdBPXYRuHEAxt6wGfgN0jY+8qczZra6pIYQCCrdaQ7Z6AJJ6tsvItwa1k19aAeLvzB8O/DBRUaMdjQo9lnPOMpq7Lba38bfPiIBEiABEggggSafWarx5MsG/vitLi+w250XfkO24W/EerhggqNGKhHg4ULj2zosdnkM57xVJIb/+ZC8oMUQ6PramwUc5BwGc+FehhH3FUD1KMrXMYL29Cj2Wc846mqyl+byiyb9ppQuelpU004Wa/kK/m7EqTEI/G5EpfpOCRfyd90e0Hrl3gkvqDnRb2c5Cv5u5KPxCPxuRKX6TgkX8nfRHvVVPmbUq/nCjMP/qf/VZ/44UYCJEACJEAC2gnAX2ZmPv0NqXirO1J/VqqVt36hTV7RtB/PZbyaJo4f11RjNKqRfCV/V6KWeCQ+V+IyHYfkK/mbbi9o/RKPxBf0vKiXk3wlf1fykXgkPlfiMh2H5Cv5626v1V+2jaeSLL6nuzHWRwIkQAIkQAKt/rJtPBvJ1b80gUfGDLNTUyaqd7ZOyVfydyVQiUficyUu03FIvpK/6faC1i/xSHxBz4t6OclX8nclH4lH4nMlLtNxSL6Sv+72Wv1l23gOP3jqi5uGvsJAkpHunO6kWF93BKhHd7xMl6Yepgl3Vz/16I5Xp9LwFfhLc7lt48HBUmJjpflFXY+z6ZSuqiJRz+EzZ7w49+VzTsZLPdyShXpQjzAJmL5f+fnKDuPZSK5fMgFgXz7rVTv9xBMmqneuTlmaOJ5LOxcbAqIebslCPahHmARM36/8fGWH8WymS583sapaVkrEZaht/8mT3nUkeYd5Ufm1LXFRDz869o9RD/vM27VIPdrR6e41+Al8pfWsHcYzM3Pyg/VqebW1UL/PMWY6nhtSmMAa9Jvd1KlTHi4v33sfnu2Xn+7zqYduov3VRz3646f7bOqhjyj8BL7SWuMO48GLpaHCt1oL6Xgel+GEycce83BJvjrYmahD4hv04U/qYeLq6b1O6tE7OxNnmtZjI736f/zivs94llZv/eamga8Xa+6+ypiiX0BRP+b6MJvwpR5Cwo099XBDB4mCegiJ3vfwkcW1hf/mV8N9xvPII58trCfWb/gV7udYc/dVVlH0U5+L5370+ee9sLCaDfm6vFEPt9ShHtTDNgHT9yv4CPzELy/fu2MpU3jOr3C/x2b3jnlVYJ5n0OZ60IuT3o4MY/XLy/T51MM04e7qpx7d8TJdmnr0R7idj/gaD77Mba2q/7vb8K7O6w3UFxkM2tzCQ2fPeiohPywsiMJGPdxSiXpQD1sETN+v4B/NXwrampev8aDQWmr5y62FdTw/ODniVYPewaD0epp7cJKfDlY26pB4qYcN2p3boB6dGdksQT16o93JP3Y1nsNHP3W2VNvU/vOZeFcnYg7KXI/kgbyQX5Q26uGWWtSDepgmYPp+Bd+Af7TLo+1dcjW59LV2J/f6mky+o6cgE1y91hX2eY+eP+/13JpvGGHH1G371KNbYmbLUw+zfLutnXp0RyyIb7Q1nkNHT/xWqbpZ6a7ZzqVxk354etIriCEeceDOZ7pVAh8WleFCmYh0K8Jg0VCPYJxslaIetkgHa4d6BOOEUvAL+EanM9oaD05eGzIz17Ml5oQX31T9O9zkE/+dAnbldRiOTNA9PD0RmQUFu/GjHruRCec49QiH+26tUo/dyOw8HtQvOhrPwSOffHatVl7fWb2eZ1j95c2L7N/v9Xqi8sFSmA6G2LDN7s1H3nRETeohJNzYUw83dJAoqIeQ8N/DJ+AX/q/uPBro9wq+8NxnfzhcHf2VxM5ztTyDmKVKVZUyObX38cdVpVBQq3NzWuo2UUmz6SD2I3vyJpoJrU7qERp634aphy+W0A5SD3/0+DLQlczd//qHf/jqW/4ldh4NZDyo7PeePvNUVg1tjY3trKPvZ6OZtMKPBcF88seOqXQ+r5YuX+67Xt0VYDjw4Rde8KrFBYghtkHcqIdbqlIP6tELAZv3q4Jau/6RBz/h+/U4frEH7sTcvPmtfSOFBxbSyUTgc/wabHfsxuKawj9sty5eVO+cO9euuNXXZPUaGsXwoCwJtxqE5caoh2XgHZqjHh0AWX6ZemwBr9RUbW30R1MHDnzmdlAJujKRD65+5+WJyuTTQSvvpdxysazenl/yTkWv5+qFC6H2fjC0hlV32GMbhIUEXiIB/6MeAUFZKkY9LIEO2Az1UGopvfhHDxz+xDMBkXnFujIenLHwg3+6k09mP9xNI92WxZzP2/OL3twPzkXvZ/6116waEBY6wHDk+9cwtIZeDvZx26iHW4pTD+rRSiCs+1WhWvrx1LGf39saT6fnXRtPYeF7U5WV3M2hhLkhNwSNP67bheL20FtpYcEzHvSAivPznfLq+XUIiLHRmdOnt+uIy9DadsI+D6iHD5QQD1GPEOH7NB1HPcq1Wi09VjyQn/rYgg+Stoe6Nh7UduXKpd/fu7nnSz2d3Dac+1+EoBhLhQlhEwPS3QOC2eBHkaSHg7bwiWUsl+bWIEA9GixceEQ9XFChEUNc9MAqtjupu88dOXLipUb2wR/17B0fzP3D9ybU2C8Eb6q/khB07s6KwpiqbM0mhGPdrIRDzwbzNjAcmb+RejGchm8iwIfGuPkToB7+XMI6Sj3CIu/f7qDrsaRW/vGB2cc/5p9956M9Gw+qvv3Df1kcSZhZYr1b6BB0ubhR7wGVdpiQlIcZYRMTkmE5MRfZS3nZw2xkHkeOcd+ZAPXozMhmCephk3bntgZRj/oHRZf2/dTPbX3nWWcEviX6Mh7M92wsZz/IJpOhdA2aRS1VNrcXI/hm2nIQvRn8vO14Lu0NqbW8zKc9EKAePUAzeAr1MAi3h6oHQY9StVot5W9Od7N02g9VX8aDCt9//1uf+PDmRy6lEqrvuvwC7PYYxMWGXhE2eS6r0WTvvcj/jBMQ/tTDOOpADVCPQJisFYqSHpv1z+v8OPWjEw8++Jnv9AtIi1ncuHbpdyc29nwlqaW2flPi+SRAAiRAAjoJ1L9YRi1l7n7+4MyJP9FRr5YhMgSznL7zpa2+ho6wWAcJkAAJkIALBHBfx/1dl+kgJ619lOvvvfGnH6p96Le1VuoCecZAAiRAAjEkgGXTP0n85Jl5oS0AAAOaSURBVM8OHf3k7+hMX7tH/OjK3399YnP817VXrDNr1kUCJEACJNCWAExnKbX8Vx858otPti3Yw4tahtqa20WQcEgOuzVT4WMSIAESiA4B3L9xHzdhOqCg3XhQKbply6n6nA8skxsJkAAJkEBkCOC+jfu37uG1ZgBGR8Sw2m18Y88fu7LUujlxPiYBEiABEthJAEumlzN3/7vOhQQ7W9h6ZtR40AQ+5zNROfB3YX3I1C9pHiMBEiABEthJAB8OXUrf/JSOz+nsrPn+Z8aNB03iR+TSq/t/YPvrde5Pl0dIgARIgARaCeBrcCqjt471+40ErfXu9tyK8Ujj+GLR8foXi1ptVBrnngRIgARIYAcBTMMv9/mFnzsqDPjEyOKC3drGt5niq7TxOw67leFxEiABEiAB8wRwH8b9uJ9vme41ylA6H/hy0dXl5Fumf8m0Vyg8jwRIgAQGmQB+OXR0vPpILz/ipoNLKMYjgX9w9Tsvj25M/F46afbXTKU97kmABEggzgQq1VptNbP0ygOHP/FMmBxCNR4kjoUHibUP/WtejRwKPZgwlWDbJEACJGCIAOY2Cmrtem3kJz9rawFBu1Scuddfu/btXx3emPxafeXbcLuA+RoJkAAJkEBwAvUVa+vrmcXPzcx8+hvBzzJb0hnjkTRvXHnj/Eh5/AvZZCotx7gnARIgARLojkCpullZG1r+8sEjn3y2uzPNl3bOeCTl6+9d+vPR6sTnsolUSo5xTwIkQAIk0J5Aqba5uZpc+tqhoyd+q33J8F511ngEydX3/u7Fkc3xL4wkh3JyjHsSIAESIIGdBNaq5eJaavnLh49+6uzOV9x75rzxCDLMAWU38l8arg0fTFn99JFEwD0JkAAJuEVgs/410uuJ9RulTOE5l+ZwOlGKjPFIIm+99c38xOj+v8hURn95JJEZiVwCkgj3JEACJNADAaxQW6ttrG2kV//v0uqt33zkkc8Weqgm1FMifd++du3iA6lK9iuZ6vCJbC0zlkpGOp1QLwQ2TgIk4C6BzfpvFZQSGysbyfVLm+nS52dmTn7gbrSdIxuoO/XV91//g0x19DfS1dzRbGIoV/85Bm4kQAIkEDkC9Z8nUKVauVhJFt/bSK7+5eEHT30xckm0CXigb83X3v/bX0uq9K+kq5mfSVWHpofUULZuRkl2jNpcEXyJBEjAGgH86FrdZKplVS5tJsvzleTGv1VT5W9Gab6mF1j/H3uQ/0HZx/nOAAAAAElFTkSuQmCC;base64,iVBORw0KGgoAAAANSUhEUgAAAZ4AAAGcCAYAAADptMYEAAAAAXNSR0IArs4c6QAAAHhlWElmTU0AKgAAAAgABAEaAAUAAAABAAAAPgEbAAUAAAABAAAARgEoAAMAAAABAAIAAIdpAAQAAAABAAAATgAAAAAAAACWAAAAAQAAAJYAAAABAAOgAQADAAAAAQABAACgAgAEAAAAAQAAAZ6gAwAEAAAAAQAAAZwAAAAALQZVhQAAAAlwSFlzAAAXEgAAFxIBZ5/SUgAAQABJREFUeAHsfQmcXFWV/qmlq6v3Tki6O2tnIRu7EJRFMRFkU1Fwm5ER3Nf/qKMMOm7jNuOgI4POCI4OIi64jo6gICAEXNmRJZgEsodO0kk6va/VVf/7vepT/aq6uvtV1b1vqTrn9+t+23333fN99c55995z7w1RBcr2vXefGB1LbgiHq1ZRMrQ0SlWtKQrVhJKhGIUoFqJQJEWpUCVBMzQWCu3vi1R1DYSiw+Oh0MgYhYcT4dB4UiEiIggUgEAkTKl4NJmqrqJkPJJKza1LJRY0jI/VVKVSBWQT+KTKjiiFU+OUotFUODUaotRQgsYOUji1J5kcezZRFb5v5ZKXPxV4RYtQoKyNyp49v31jeLzqDdFk7AWRZFVbFVVVR0IUDpe11rP/CpLq9d/VTfTMoRD99XCI9vWGqGekwkGZHTZJUSICTdUpWtyYonXzUnTc/BQtayaSd5FoPEXJMRobGQ+PHUiERx9PRsZ+snTpeT8uEW5f315W1mb3zjv/KZas+7toMr6iOlQVV05GZAIBfGtuO0L0x71heqQjRIMJAUd+HN4iUBtN0fqFKTp7SZJWH0MUkp9khhDljGgkNaYaHYZ3jIYHvt++/IIvZi6WwU6gqd6z566FkUT1DbFkzcbqVKwhUumfT3l+kCMJovt2hejuHWE6PBRouvNoJ6fKBYF5NSl6+YokbViWoupouWilT49x1UwxEhrtGw0PbRqPjrx36dLzO/Tl7n5OgbNEmzf/pL6pruXb1WP1F9eEq+oCp4BLHA8rh3P3jhDduT1M/ap1WUQQCAIC9bEUXbAyqZxQiuLigPJSho6yoeTYwEhV/+09A51vO/74N/TnTejjk4GxSOivqR6t//eaVM1i1XkpMgMCDz8folueDtPR4cDQO4M2cqkSEZgTT9GbTkjS6YtgZkWmQ0AF/9BQaGjfSKz/qiD1C/neMu3duemL8UTDh2rDVfHpwJfzaQS6hoi+/ZcwPd0pnll+E+WBwAktSXrbKUmaW1Me+pjUYjA5NjwY6f3P9hUvu9rkc3Tk7VvHs3fHpm/VJZveWh2KRHQoWu55PHEwRN98NEwDY76ltNwpEP0MIVBXlaJ3nZakk9WgB5HZERhJjY8PhHtuWrJi4ztnT+1NCt9ZqX277ru2dqzx76vDEWnhdfCbQLTaz/4apl8/Cyp9R6cDDSSJIOAEgRS9YlWKXrdODSyTn7kTwGgkOZ4YrOr9z8XLNnzY0Q0uJvINhejDqRltvqk2VCWVaoc/gIRq3/2fx8L0wPPStOYQMkkWcATOWJSkd5yapKj85B0zOZgaGxqKdb/VT31Anjue/ftvnx8anPNoPdUu8bwwjqn0PiHCpP/zYenP8Z4JKYHbCKDf5+9PT0rYdQHAo5Gynwb3pmqPnrZgwcWHCrjVSFJPvxs6dt9/XW3/woMN4nQKIhc1HXE6BUEmicsIAQTP4PeP90DEGQL4qIedhb2F3XV2l7lUnlQy+g8+0DrQG95cH65W45VFCkEAfTr/rYIIpHmtENQkbTkigGa3d6ugA+nzKZzd/uTIkbrG5PH1rWccLPzu0u9wvcaza9emjyT64vvF6RRHHgIJxOkUh53cVV4I4D3A+yBSOAKwv7DDsMeF3136Ha7WeDq2/+GBRmp4kasPLR0j3+SAkOn/eAAvmiDoG1KkIB4jkKJ/OENCrYslAX0/vdT34MKVLz6j2DyKuc8VC4YAguhAy7MqYq2pmELKPUQYHPqpTREZpyM/BkEgBwGM8/n8xnEZZJqDSyGHKvKtJ1HXucqtwAPj9dSdO29/aXX/ggPidAr5GUxNixkJZHDoVFzkjCCA9wLvh0jxCMA+w07DXhefi/M7jbK1b8+m9xwzvmhTdThs9DnO1Q1mSsy9JtPgBJM7KbU7COD9wHsiUjwCsNOw17Dbxefi7E5jDuH5Xfd8uWl07g1qTRz5NTjjIm8qzDKNCT9FBAFBYGYE8J7gfREpHgHYa9ht2O/ic5n9TiMWbe+O+/67cXzeVbI8zuwEzJbiru0hmWV6NpDkuiCgEMBs7FgKRKQ0BGC3Yb9hx0vLafq7tTue53f9/gdzUnPepT3j6XUo2yuYneAutYCbiCAgCDhDAOtP4b0RKQ0BWB3Ycdjz0nLKf7dWqwYP2TTe+Cb55sgPdqFnsXKoLOJWKGqSvpIRwPuC90akdASAIuy5iZqPNseDNsFm5SGF8tIJRw6YoQDLVYsIAoJAYQjgvcH7I1I6ArDnsOu6+3y0WDZEQTQmVJ9O6XpKDhMIbDtCdHhI3Lj8IASBQhHAe4P3R0QPArDrsO86o91KXvMGcd+No3Ov90sgwcjEzIG9w6MW6jiuVnOoV0fT68lhi2O/yx/3+r+MTjBsiI1byRbWp/nAcd9ohPpG0nz0jal9dSziDgKVwgfenzXz/D+LaFDslRVwoOy8svd/Xb784vtL/bWW9EmNGQkw6MircTogDQ6mV8VQHuofLggLOJ/GeIzm11erbVVB95pOnFTNBP/v9ggNJkqix3Qxp+QPowYHs0j9rZ6jplooQOB89g/EaMuRGupQW5HSEahkPmqjKfqvi8fJLx/EYLMc7NVIMpkcqd/fVuoMByXVeDANjttOh8k71D+iHM7YlLdz5GB6stWeJ56wrg0fOEDxtjaqbm21jnkf+cBZ4a+KklQTr7ZqRX5wRLu6KTBOh43bGuVouFZjJ8UpH8inITZkOaz+oRT1jldTv6oNiSOyozn7vvCRxggfbXiPVsyZHTOTKcrNXsHejyu7rzBrLgW3oj+pMeFnk5rws5SHF3IvnAycTW7NpvOuuwjOZffNNxeSneWMmk4+mVovuICwtcv8+rinNaFfbQupWXf93fy0sG6U1h6TdhR27Ezwse1ojTggO8h59oWPqaC8bt04vXK1N1EG5W6vekqcWLQox4OptOeNz/33om6e+vuY8Qy+GPZ1D2Y5HBi37r/8hQ7eeeeM9zq9iFpQrhOqohQ119fQ4uZa1/uEvvynMG0+5M8+HnxRn97Wn9WU5gYf/cMp6hiqpYcP1EufkO2HLXzYwMjZPX5+kv7xLHf7eSrFXsGdH450XbVs2cav5MDu6LBg34FF3LCOQ1XI/PJLcDj4Y4GB23rNNXxoZAsnhFrQ0iuusPKPKfvfVBunlfPqjTwvX6Yf/E2EekYKpiZfVlrPrVcOZ31rfyZPL/joV7h0DMbp3j0y0bnwkfkp5t1pqk7RVy9MB7fkTaD5ZKXZq7FUKhVtGF5QzGJyBVu3g88+dNj0Im6opm4/3Gd1xuG3gf6abV/6ktWkpvm3Mm12cEDtV15JLeefb6VBMMLKeQ3GAxGGVLfVe28vqettWp2KvYBmnI1Le1QfTPol9gMfCEbYpJxPJQYiCB/Of8k3XJygGsOxQ5Vsr7CSaeuqF85zzkg6ZUGOB2t1NyWaP1joQwpJDxKfOdBj3QIDh74bDhQoJB9daeGAVl99tdUUF1MhMkvm1qn+n7iu7Kfks+Mo0ed+5x/HAyN3ybFdVjn9xgdqPw93NtLWrpopOJbrCeGjMGY/fU7CaIBBpdsrsNET7f7qwvaXfqgQZhz3YCN0um5o/s/CBpvYEDiwrbPPKj+M3JMf/jBxVFQhSulMm+jvtxxfVUMDxVespL7+IUqGEIpt5jPquS5lTDv80b+zZu4QXbhchQYp8SMfc9aspPmxQYpVhamjv/xDsIWPwt/sE+anaFFj4fc5uUPsVRqlaKL6RR/8+CXXf+UrP5jsF5kFQMeO5x/f9/+21IRixhrWUcs50Jsei4NmtR3XXz9L0d27DOdz5I9/JPjchlNeYIVxoxNxbq1+Y7f9aIgeP+C947lkZRedND/9O/IzH/PXv8AK426sHqedPeZqou792vI/SfjIj8tsZ09qSVF7SYG/+Z8g9moSF1RGRseif/PvX7vxPybPzrznqKltz57fvnHu2PwfOUo88/PyXgWJqLJCUMvxsmktbwFtJxH9dtK111pn0OSmO+gAyyDc8rTj7wFbyfTtwsjxmJwg8YGw63IMOhA+iv9tv+mEcTp/pd6QarFXU/kAwl1Vh/5m6dLzfjz16tQzjj6ta0abbzLldBAJEhSnA/jgFB++/HILSVS17VF3U+Et/IzXC1khUiooTgfo2vnAbAkofzmJ8FEam7rfJ7FX+fmAf4CfyH916tlZHc++Xfddq9bjNtJ7C4fDhtvvX9Z26DBgFeWFHOjqyxpjZE9XzP54ypSLn7006LjmcOmg8rG2sYfQF1IOInyUzqLO90ns1cx8wE/AX8ycKn11VsdTO9b4904yKjQNSESVFYI+BD83r+XTDeXd893vUiIcob1dA5laW760QThnj5YKMh/1NRE6vaWXoE+QRfjwF3tir5zx4dRfzOh49u7Y9K3qcMRIbC/XdGDAdc1A4AwafakQ6o1BlKNqVk+MOwqyrG+bjCYMOh/1auAgxh0FWYQPf7En9soZH/AX8BuzpZ7R8dQlm946WwbFXOd2UjgdbrIqJh8/3MPjjBDltv1wMPsX0v0IY1ats1z4wGDXlwXU+QgffnizJ8sg9moSCyd7TvzGtI5n9457v1QdihgJr+Kvh0In9nSitNtp0N+DpilIz+BwZrYFt8tRyvO4X6fc+FhYO5yZbaEUfNy+V/hwG/GZnyf2amZ8cq/Cb8B/5J63H0/reGrHzfTtcK0ATVRB69exA2ffh/NJN7lRJljCft3P+1wrKEc+0OSGCU2DJMKHv9gSe1UcH7P5j7yOB+N2asNV2kfjoTmKlzUoh69rOyWsT7ea2QAdkUEQNEfxgm1cfp3ljs+dSy/55Cfp9T/9Kb1HNat+RDno923eTJf/5jf0og9+kGrnz9f5uKy8WJ+FNYOBCTQwzUcWQBMHL//yl+kqtYYV/k5WcxOakiDyIfaq+F8D/Af8yHQ55HU81aP1/z7dDaWc5w54RIOhllBOAn2g1xiFlHMdCYRqG5ekO+BN8HHmVVfRB7dvp5d9/vN03OteR60nnUT1ajG++ccdR8eq2b8vvO46+n9bt9LiM880ghXzUR8PWesGGXmI5kxN8pGvqEte/GI6Uw0LqGtpyfzlS6fjXBD5EHtVGvMz+ZEpjmfz5p/U16RqFpf2yPx3c00gqFFT+bWaPMt6oVbHuk5e9d8eDxTlcusq4YbPfpbOV1/S8eaZ5yqpmTOH3nz33bRiYgZwXc/nfFgv1OqCEF5tig/Gw76dt24dvfHnP6dQeIoJsCfTuh80Pvgd5nJrBcMHmbFepuwV/Aj8ST5Vp/zqmupavh2ZcjbfrYWd4w469CWUW22HkYBe3G/l91oPj/DXzcdJb34zvfTTn2ZIrO3Y0BDtuOceevzb36YDagE/tYxH5nqsro7edNtt1L5hQ+acrh07H1gt1c9iio98Os9Ttc4rFB91Bps68z03SHyIvcrHYGHn4EfgT/LdNcXFxBJ1r8iXsNRz/PWAlUPLWfgrYiTh3gJUxeDJNQCdfIRjMTr3i1/MKk73rl30jVNOoe+ddx7d+va303+/4AX0vZe/nEYHBjLpIuq+l3z845ljnTvMR31V5fGRi2MoGqWzP/Yxevejj1LDggW5l105DgofYq/0/Bym8ydZjmfPnrsW1oZitXoemZ0LE8k/vOyr5XPENZ6hYX/385ho1jlZ1XYaFy3KkDl09CjdePbZ1LVtW+Ycdnaqr+3vKkeUGE7PRo5zK9Tx3NWrsatVmI/GSOXxYQeyVU1u+84HH6Tz1IdBNK49bsj+qBn3g8KH2KsZaXR8Ef4EfiX3hizHE0lU32BipjCOZOMfXW4hyumYmxPGKOzbfh6ey0w3H6e9611ZVP5ZzeLd39GRdY4Pnn/gAXr0m9/kQ2vJidPf+97Msa4d5qO+JuTbfh5TfADDcFUVbfzCF+hdjzxCC049VResRecTBD7EXhVN75Qb4U/gV3IvZDmeWLJmY24CHce9E1PElntth7FiPf3az7OoftQqKpeTy13KNqK+ottUM5pdnvze9+yHU/bR52OXU97yFkJzkG5hPf3az2OCD8Zw7rHH0jmf+ASFc3A9omqhf1XBBV6I3/kQe6X3V5HPr2Q5nupUrEHvI9O59Q6nDZ3uL2wTZdWRJ+vJeuvIU2ceCyYm0ORy6sgbX9MR9XXN0vXcc9Szezcf5t0efPJJGurqylxDFBwMpW5hPVlv3fmXmh+Xi8tZan6z3f+X73yH/lvxtf+xx2ZLauQ668l6G3lICZnye8vlLCGrQNzKerLeugudz69kHM/unXf+UyRsoqGNMtPIoJpdCcJ6YgCaHwUDFSFcTh1lXHT66VnZIHptVlHRbQefeiorGcb56BbWk/XWnX+p+XG5uJyl5jfd/Tt++1u66Zxz6JdvfSuN2YI7pktv6jzryXqbek6x+fJ7y+UsNp+g3Md6st66yw2/Av9izzfjeGLJur+zX5D90hAYUSPBIabILK10+u+uU4ND7YJoNifSs2dPVjITNR48gPnwq7HLAkHjwcChQ/T4TTfRjWedZUUT7vn97zXmXnxWlcpH8YiZvZP5MGWvcv1LxvFEk/EVJlTj6BCuzpl4hh/znPyK8FcYL4dR6+ajurExi4Zch5J10XbQu2+f7YgoVp93vFlWmmIOmI8Gn4VVm+KDMRo6fJhufdvbaN+f/8ynfLH1Kx9ir8zYq1z/knE81SH9c7P54hcuhXAFgXhTU9ZzRvudTc6Z2+SDAaUigoAgUF4I5PoXy/Hs2XnP30bMdO9kQop1f2H7nZbJqquZL4hi9V/YYCbQI7fGYx+jM1NZc9NVGXI8zEdDdWXwMRPmfrjmVz4qtcbDfJga+A7/Yp801HI8YYq+zg8/xnIqAzclmGoz9RtWw93dWUWqOeaYrOPpDpLj2Y4gN+x3uvsKPc98VFofT6E4uZVe+HALaWfPYT5M2qvweNUbuDSW44kmY9kDMPiqhm11NN2aF29r05BbcLJgfVl/v5S8bzS9th+XT1e5Yg3ZkfjDatYCJxKtrs5K5rSJLusmBwesL+vv4BZXknB5uHyuPNQHD2F9WX8fFMkqAr+vXD6/lMt0OVhf1t/E8+x+xvIKkWRVZXkFE6hWeJ6jfX1ZCDidliU33UhPeqmGrMzkQBAQBAKPgN3PWI6niqqyPzs1qtgYj1m5Nam5oipJWF/W3y+6d/Sb4SO3plKjFoFzIrnpRnp7ndxWcBrmg/UvOANDN3B5uHyGHuO7bFlf1t8vBeT3lcvnl3KZLgfry/qbeJ7dz6RrPCE1sZiIIFACAv0T45Y4i6alS3l3xm1uumGp8cyIl1wUBIKKgAowyPiZ8Pa9d59oaMICCx9uM6zOGWAYVPCclpv1Zf2d3mc6Hbepc/l0Pe/QM89kZTVnxYqs4+kOctMdUauSmhDWl/U38Yxi8uTycPmKySOI97C+rL9fdOD3lcvnl3KZLgfry/qbeB78DPwN8g5Hk5GNJh5iz5OV4eqc/Zrsu48Av+w6+Ti0eXOWIovPOEP9ujIfOFnX+KBajf2Zf/zxfEjJRII61FoxlSYm+Kg0DHXqK/ZKJ5rZebG/CYdTpH9WxuxnUXU0HUmVc7psD9uvvNLSbX69d+uezAQuG7qZ0hR67cizz9LgkSOZ29B3kzt/W+bixM4KtSBcODL528C8bYnBwdxkJR8zH9uO1pScl4kMTPBhopy68vQ7H2KvdDE9NR/2N+FwMtI+9bLeM/Pr07ELbRdeqDdjn+bGoYmNcf1T/OtQeeuEAdbJR0rVVrb84hdZxTv7ox/NOs46CIXo7Kuvzjq1XS2LbkKYj+cnAitMPKOUPE3wUUp5TN/rdz7EXpn7BbC/UY0hkRZzj0nnzJESOpt2TJe5lPxbzj/fup31LiUvE/dyJJFuPp665Zas4q679FLa8LnPZZ2zDtSv7lXf+lZWjSgxMkIPfvWrU9NqOMN8sN4astSaBZdLNx9aC6kxM7/zwe9tpfHBemukekpW7G9UzSdkvP0BbaaN8SpCB1a5k9l6wQUW2Ja+E4Nnp6Dv8Qk07cDY6eZj16ZN9NxvfpOl3Us/9SnLySxUyyZgsbilL3kJveGnP6VT3/72rHRPfPe71L9/f9Y5HQfMB/T1a5OWKT504Kc7jyDwIfZKN+uT+bG/CYeSofTAjslrRvYqpfrafMopFn6srxEwNWRqqnnnjg98gIZyZi049R3voHc+9BB9cmiI3vq739G6yy7L0qBTBSbcndPslpWghAPmg/UtISujt3L5dDZ/Gi1wkZkHhQ9+fyuFD9a3SFod38b+JkwhcsXxcDUONR5u43Vc2gAl5GYE1tevRefmnUbNfHSpIINvrl9PWF3UifTs3Us/uOgiGsmZ683JvU7SMB+sr5N7vEjD5dPNhxe6zPTMoPDB76/Yq5nYLOLahL9RodWhybCiIvJxeou9+spRLU7vDUq6NROd6Yhmg75+Fm7eiavmT918dO/YQf9z5pn02I03Tqn9MCajagXM+1X/z/UqnLpXOR8Twnwgms2vzWyst0k++Bm5W3Bgl9zZJ+zXdOwHiQ+xVzoYn5oH+5toilKGFkSY+tCV8xro8X1dVj8PviTKaakE1OL4a86tautUhAs7s2lvE12+7hDhK1s3HwiLvk01seGvWQ0mXXjaadTU3k59HR10ZNs2OrxlC405XLOnMK3Sqe18bDlivBuzmCJOucckH1Mepk48eN111l++a7rPBZEPsVe6fwVE7G9cjffFVwRqA4eoldB2Wk6OZ/VEHwX0Q2BBEARf2agNrFa1HpN8oAaEPzeF+YB+HQOutCaXrJ5bfJRc0CIyCCIfYq+KINrhLa63By1urrWKhtoBvrLLQaAH68L6BUWvhw+kl5ouVz5YP+HDOwTs70fQ+OD3uVzfD9bP7V+H644HXxGsrO6+BbfB4+exHtAL+gVJ8JX9yMG082E9glT+fGVlPaAX9AuSCB/+YkvslRk+PLGS3PmOLyHucDSjnvlcT7r2Wqu2Y/+Bmn+q3ids7Up3vpcTH5YBn6jN6UXLfG7Ch3mMC3mC2KtC0HKW1hPHAyN9XFuzVUJUYfkL1VmR/ZMKg+G4iQ0dkUEVGOlbt6fXzykXPjbtaQoqHVYtTfjwD31ir/Rz4YnjgRppMtPGoVUFGvCIZv0qmskRDoc7TI9rawpMQMF0aFjO57kJ5xNwPm5VegQloED4mA4Bf50Xe6WXD88cD9RA9JfVL9LSYtV6gjKwFE4HTWyQlfPqA+90LEXUPxhr9IvEFR9L1QzbQeQDIclBdzrCByPgr63YK318eOp4oAYcj9WGqkJ6Ycz9XvOxOx38EFH2cpJHVL8IQpAxsPTEgPGB0f/oHyknET78xabYKz18RK764Ns/VE2xdIeLnjwLzqUuFqXxZIpGYnGqX7WKovX1vhzjA6d43MRsy3A6aGLTLVsOh2jrEdfG9OYt/uGhKoqrocWt86qpTvFRFQA+4HS4XySvUgE+KXwUT97aeSlap/50itir4tEcobGer3ztxutcHUA6XXHRfoomK2z3kWrmueIKq5ln6zXXTHeL6+c5eg0PxlcP/spV0N9zr+qc71Xb9a3kez7QPIiaQbmK8OEvZsVelc6HLxwPqwFjjprEMwd6rOlnMG3/7ptv9rT2g6Y1RN1hCymHQALGe7YtjHlHX4wuObbLt3yUQyDBbDzwdeGDkfDHVuxV8TyE9m//065GqjO+CmkhRRxJJJXz6SZsIZ1qZcoDap0XN6fYQcc6HA7CiyHcsYitSfnFljD9cqvnXW9ZKjbExumSlV2ELcQPfHT0V6laTkPZBBJkAT7LgfAxC0C2y69ek6RL16btiO201t1KtleFAtlLA7sXrDxrmS8dD5QBmYf6h2lf96Cl28jBg5bjQQ1o+MCBQvV1nB4OB305aO5jcbNpzY+OBzjA2K2ZO6Sa3votWIYVH71PPGHVSN3mo9yb1vh3N9NW+JgJnclrbjgePK1S7dUk0s72fO94WA0QCucDJwRhB6S7BgRng0WquIaDZyFiDX1PbopfHQ9jAIN3els/rZ4zZJ1iB+QGH4i2Q9+TyCQCwsckFvn23HI8/OxKs1est9NtYBwPKwRCtx/uo97hMT6V5YRwspCmONRs0G8Dh8P9N5wxmtMwEwE6Ed0WvzsexgMGb+OSHlpYP8qnjPGBiDWMz0Enu0h+BISP/Li47Xi4FJVir1hfp9vAOR5WDIT2Do+qGtBIlhPKXFdNQBB2QtwMxM6Ft5yet3A23I/D57zYBsXxMDYweHA+a1QNyO6E+DpqqJBC+YCzsQa0lnG0GmOkcyt8ZKPplePhUpS7vWI9nW4D63jsCtpJHUmMZ4IR7Gmm20dtBsvbNsajvhoEGjTHY8fXbvSwjz+ngtrMfjVzwvNlOAjUKQa60wkfRF47Hjun5Wiv7Po52WfH46twaicFt6eB80A/jH32AJALQa0IwsccjcZb66L804oAnAdmDsAfCzsfrg3xMcK0IeUyvQ3r66et8OEnNtLzU4q9SnMSaMeT72fF/TJ2Z5QvnZxzBwHul7E7I3eeLE/Jh4DwkQ8V785Vqr1yv/fcO47lyYKAICAICAI+QEAcjw9IkCIIAoKAIFBJCIjjqSS2RVdBQBAQBHyAgDgeH5AgRRAEBAFBoJIQEMdTSWyLroKAICAI+AABcTw+IEGKIAgIAoJAJSEgjqeS2BZdBQFBQBDwAQLieHxAghRBEBAEBIFKQkAcTyWxLboKAoKAIOADBMTx+IAEKYIgIAgIApWEgHdT5qQSNJ7so+T4gMI7QSl1TOovRWZXC/Q7ueOJVlVE/IkIAoJAqQiMJw7RyHB6hvRS8wrq/SFS9YtQlELqjyhK4UgdRcIN1jmvdHLH8aRSND7eTeOJTkqMdypn00upZHphN68U9+tzxxOohIrj8Ss/Uq5gIQDHMzr812AV2qXShsJx5YQaKRppoUhU/UWalTMKufJ0o44nkThMibE9NDa6T9VmJhdwc0UzeYggIAgIAoLAtAjg438cf2Od6TShKqqKLaZo1VKKRudNe5+OC9odTyo1rhzNDhobeY6SyUEdZZQ8BAFBQBAQBEwjoCoHYyM7rb9wuJaqqo9VjmiFqgTpX/lXm+NJqX6aseHnaHTkWdVfM7kcsmmsJH9BQBAQBAQBvQig0jAy9KRqptxCsepVVBU/lkKqf0iXaMkJTWkoZCo1pKtcko8gIAgIAoKAxwigEjEyvFlVKHZQdc1JVlOcjiKV5HiSytEMDz6q2ggrO2pEBxGShyAgCAgCfkUAlYrhwQdpbGwXxWtPo3BocpXhYspc9DiexNgBGuy9R5xOMajLPYKAICAIBBABVDJg92H/S5GiHM/I8NM0NPAn1bQ2Usqz5V5BQBAQBASBgCEAuw/7Dz9QrBTY1JakocFHKDG6t9jnyX2CgCAgCAgCgUcgpQIPtlqRyzW165U2hdVhHKfGzAKDysuJ0wn8L0YUEAQEAUFACwLwB/AL1swzBeTo0PGgpvOA9OcUAKwkFQQEAUGgEhBAvw/8AxUw3Zkjx4PmNYlcq4SfkOgoCAgCgkDhCKSdzyOOb5zV8YwMPS3Na47hlISCgCAgCFQmAmh2cxpwMKPjQcjc6Mi2ykRRtBYEBAFBQBAoCIHR4W2OQq2ndTzpwaGoOqUKerAkFgQEAUFAEKhUBFJqoOkjBP8xk0zreDAjgYzTmQk6uSYICAKCgCCQiwD8BvzHTJLX8WDuNQkmmAk2uSYICAKCgCAwHQLwH9ZyONMkmOJ4MMs0JvwUEQQEAUFAEBAEikXAmjha+ZN8MsXxYGkDmWU6H1RyThAQBAQBQcApAvAj8Cf5JMvxYBE3rKcjIggIAoKAICAIlIpAen228SnZZDkerBwqi7hNwUhOCAKCgCAgCBSBAPwJ/EquZDsetVy1iCAgCAgCgoAgoAuBsTx+JeN4EonD1kyjuh4m+QgCgoAgIAgIAlhGG/7FLpllERJje+znA7s/loxbZR9INFtbHFeFh9VfekBTLDxiHQdWwYAVvCGWbt9dWD9qlRzHfaMR6huJWMd9Y2pfHYu4g4Dw4Q7OTp9SKfYK/iUanZeBJe14UqkZY64zqX22A9LgYPDXPdpaUOngjOqiPdQc229tC7pZEudFAEYNDmaR+ls9Z+aRy7kZwPnsH4jRliM11KG2IqUjIHyUjqHOHCrZXmFMTzz+AqJQGlHL8YyPd6uZccZ0YmwsLybvqHI0gxO1GvvDRg4etA57nnjC2g4fOEDxtjaqbk07Jt5HPt2j+GuliKoKVsdGCbUhcUR2NGffZ+O2RjkartXY73LKB/JpiA1ZDqt/KEW949XUr2pD4ojsaM6+L3zMjpGbKcReTaCt/IvlZ6Lpj8q040l0uslFUc8aSDQpJ7FgSs2m8667CM5l9803F5QvHFDTySdT6wUXWNvBRC0NqhzgiJpjB8UBzYLmwrpRWntM2lHYk+rio57STXOoOW07WiMOyA5ynn3hIw8oHp4SezUV/HH4mehi60Jo//Y/7YoOPNY+PuZP54Mvhs7hZVkOB8at+y9/oYN33jlVuyLO5DohZIFaUEO8j1riu1ztE7p91/F0x+4TitDCnVvwRX16W39WU5obfPQPp6hjqJYePlAvfUI2qoUPGxh5di9qf5ouXrY5zxUzpyrNXhWCYqSqhRJ1p+5esPKsZZbjCffe155KDheShytpDymH0zncnnkWDNzWa67JHJvYgRNCLWjpFVdY2UdpiOpjvbSodouJx03J08+OZ71yOOtb+zNl9oKP/pEQdQzG6d49TZlyVOqO8DE78246nkq0V7MzMJkiFI5TsnHDhON59v49od57lkxe9n4P1dTnB9cSvh4g6K/Z9qUvWU1qbpUODqj9yiup5fzzrUciGAHOBwEJJsWPjgfNOBuX9qg+mHSEmh/4QDDCJuV8KjEQQfhw/ga64Xgq2V45ZyKdMtV47t4Fq166NHRg2+0d1PfAgkIzMJUeJO7qP8XKHgYOfTccKGDqmTPlCwe0+uqrrX4g1H5aa/eo/p8DM91S0jW/OR4YuUuO7bJ08hsfqP083NlIW7tqSsI8SDcLH4WxZdrxVLq9KowNlbrhjP1tqy9eGPnI+y79aGjsYF3BGRi4oXu0jfYOpPs3YOSe/PCHiaOiDDzOUZaJ/n7L8VU1NFDNyrU0OFxDqXBM1XxUJKABeba7hZ7raTGQc+FZrpk7RBcuT+vpRz7mrFlJ82ODFKsKU0d/+YdgCx+F/4ZXNXfSquZDhd/o4A6xVw5AykmSis4d/srXf/LlqAqjzsxekJPG1cOd/SdnwqPRrKYrcECHEoiaQ98Stuj76Ryuo1HVDOhWv48OHQrN45KVXZnwaL/zsb6mnxpVM2A59/sIH4X+gs2mF3tVJL6pccvfhCmVnBjSU2RGGm6zk4hajp+cjl09NPuhfBCEXaMfqhzFbuSCwgfCrl+m+qHKUYQPf7Eq9qoEPlIJy9+EQ6mEpzUeRILwQFAYOS/7c5zAifI9fPnlVlI4H5S/nASRUjwQNGh8wPmg/OUkwoe/2BR7VRof7G/CqZB3NR50zHG4dBCMHEOOJjeUF3JkYJ6q/bTxpUBv0XHN4dJB5WNtYw+hL6QcRPjwF4tir0rng/2NZ7UdezQI+hD8XtPJhRzl3fPd79J4pI4ODi5V88UFe1yJPVoqyHzU10To9JZegj5BFuHDX+yJvdLLh2eOB7MRQGDA/dqnYxVwhn/o88EgygTVBL6/Z31bn6VpOfBRX52yxh3NQJ3vLwkf/qKoc2iZVaByeD/8YK88cTzcTgoSucnKXz8z56XhcUYY7BrUYIN0P8KY9RFQLnxgsGtQgw2ED+fvnxspLXs13lxW74fX9soTx8P9OjDaQRf096BpCtI/2piZbSFIenG/TrnxsbB2ODPbgvDhDQL29yOofIi90v/bcd3xcK0ATVSo8ZSD4OXiJjduQgyKXlwrKEc+0OSGCU2DJMKHv9gSe2WGj8wKpGayz84V1TuEIENMfF3H586l09/3PmpTyx0cs3o11ak1eIaOHKGevXvpuTvuoKduuYUGD5kZxQx9MK9b33ADDcSajM/plo1scUdojuIF20zwseiMM2jVRRfR3FWr6Bj117h4MQ0o/A9v2UJHtm6lPX/8I23/zW+KK/wsdzEfC2sGVaBBMBaXM81H+0tfSmsuuYTmrV1Lx6xZQ9F4nPo6Oujo9u30zM9+Rtt+9SsaHxmZBdniLgeRD9P2yg98eGWvXHU8+wbXWL9aRIOhlqBTzrzqKjrnE5+geHNzVrb1yvnMP+44OlbNOP3Sf/5nuuUVr6B9f/5zVhodB9AHemFmA6wbZHoyUR1l3rgkPeBSNx/Ny5fTeWqmh+Nf//opxazH7N8nnpg5/5xyPLf//d/T0eeey5zTsWPnA+sGBWEyUVN8zFm5ks7/93+nta95zRRoGxctokWnn04n/M3fWE7o1ne8w/pIm5KwxBNB5MOUvfIbH17YK1eb2nigqO4otg2f/Syd/+UvT3E6ue9KzZw59Oa776YVEzNO514v9Zj1Qq0uCOHVPFCUy12q/ri/9ZRT6P3PPJPX6eTL/9gLL6T3Pf00rVQfBrqF9UKtLgjh1Sb4aGpvp3c88EBep5OLd8PChXT57bfTC9WHgAkJGh8m7JUf+fDCXrnmeHiEP/oSdNZ2Tnrzm+mln/501nsyNjREO+65hx7/9rfpgFowLpVKZa7H6uroTbfdRu0bNmTO6dqBXtxvha8IPwuP8NfJR5XC9nU/+pHVhGPXvV/h8sz//i89cN11tPknP7G+rO3Xo9XV9JrvfIdq5s2zny55384Haj1+FhN8RGtq6I2/+AXV5uDapZrWHv3Wt+jP//EftOO3v50CywXqPJqBdEuQ+DBhr/zMh9v2yrWmtv6JAZZYOVSXhGMxOveLX8zKrnvXLvqe+nru2rYtc375uefS3/zylwSnA4mo+17y8Y/T7vvus451/sNXHZbUHk1W68xWe15cA9DJx8tVdN881XfAAof/4Ne+RveqJtCxgQE+TdHaWtrwmc/Q2f/4j5lzaIJ7xfXX08/e8IbMOR07zEd9VXotIR15msjDBB9n/MM/0IIXvCCruL/7l3+h+z/3OUqOTg6wxfvx2h/+kOrmz7fShiMRQivCzQY+zoLChwl75Wc+3LZXrtV4TFRbT1a1HbRRswwdPUo3nn12ltPBtZ2q9vPd886jxPDkKqsr1PFcFYCgW7jGMzLq72n6TTTrrHvta7PgfEx9Vd/5oQ9lOR0kSAwO0m/VGkcPff3rWelXv/KVFFJGT6cwH40RM53muspqgo8T3vjGrOI9rWqjmz75ySyngwR4P25717uy0i5TNZ6mZcuyzuk4CAofJuyVn/lw21654nh4LjP+0en4ASOP03Jelj9fey31qyidfPK8aud+9JvfzFwKhUJ0+nvfmznWtcPNCePhWt/28/BcZjr5OEZFSiGQg2W4p4fu/uhH+TDv9m5V4xm11YSqVNPQvHXr8qYt9iTzUV8T8m0/jyk+Wk86KQMbap93TswvmDlp29n6f/9HPXv22M6QFf2WdULDQRD4MGGv8H74mQ+37ZUrjmcgkY40485FDb9fiqhQ0LacZoQnv/e9GbNGn49dTnnLWygU1d/ayHq63W5q122m/UX16WYWLudMaZ1ewxeyXfY/9hiNdHfbT03ZT6i+uEObN2edt7+cWRdKOGA9/drPY4KPZlVb6X3++QxqBx5/nPr3788c59sZ6OzMOs1Nb1knNRz4nQ8T9ioIfLhpr/Rb3Tw/TI7w0vmFveDUUylSVZV5WpcKx+3ZvTtznG/n4JNP0lBXF9Wo8T4QhF7PPfZYOqLGlegU1pP11pm3jrwWTEygyeXUkSfGgzz94x8TIqPQ/Pn8Qw85yhYBCXZJjo3ZD7Xss56st5ZMNWbC5eJy6sga46P+Q42bwtg2hK/ba5Z58w+Hp9Rw+mZxVHnzcXCS9WS9HdziahJ+b7mcOh4eBD5Ybx36zpaHK44HA7EgqGbrEow9sAui12YV1dxw8KmnyP51jjE+uh0P68l6z1oulxNgoCKEy6nj8dtUpCD+CpFa1ZmNwYx26XjkEfuhln3Wk/XWkqnGTLhcXE6NWdOw+tDaff/9s2Z5pgpEiNXXZ9IlEwnqVO+KCWE9WW8TzyglT35vuZyl5JV7r5/5YL1zy2zi2JWmNhMFx6wEdkE0mxPJbcdGjceEjBw8aGXrJpkm9DCZJyKnEEHFMnj4MHXv3MmHWrfMh1+NnVZlC8gMEYZnq764l6txcHZB7XVg4jdsP69rX/jIj6TXfLhlr4zXeLj6prPaCsqqGxuzmMt1KFkXbQe9+/bZjijrKy/rQokH+FqqVs4RYYpV4clouhKzLfl2DtvVzUehBWtTTaW5wSE777230Gwcp2c+GlRYdd/opLNznIGhhF7wsfbSS62aJkbQYzaD2mOOydIO43wQ+GFS/MqHKXs1E5Z+4sMte2Xc8cwEeCnX4k3ZC6+N9jubDNI+ngTP57E9pZRF7i0MAUypc/mvf51V20mOj9N9n/lMYRlJ6qIQQO1mrnI6+WSfiv78qQrDni0QId+9cq44BCqRD+NNbYOJORYbur+wc2s89jE6M9Gfmy63c3umewu5xk0JY8maQm4znnZhQzqiTTcfTgte29JCb1azV2DAqF1+9/nP0+G//tV+Sus+89FQ7a+BpK7zoYIImpYunRZb9Hme9ZGPEEbZmxS/8mHKXk2Lpc/4cMteGXc80wJe4oXhnFDdmpzmgumyx5e1XcIGwqmRP3dMutVmatfJr/uNyuC9ZdMmK5LQXsZtqvaD0fQmhfmo9D4e1PBR68f706lC2TG9lF3wQfeiD3yArlCDShERZ0qEjzSyfuPDLXtl3PFw/0Y85wu31B90rKEhK4thNWuBE8G8YHZx2kRnv8fJPuvL+ju5x4003L/B5XPjmXgGJg/FZJX4orYL+nV+ilmsbfPp2a/r2md9WX9d+ZaaD5eHy1dqfrPdP9rXR9cuWULXqAlzbzjhBPpXFcn2nY0b6bBapsIuS848ky766lftp7Tus76sv9bMS8iM31cuXwlZObrVb3yw/o4KX0Ii446nhLLNeCsIswvWFnEiuelG1Ah7EbMIYObpt/3+99SwIHvi1J2q9nPLq15FGEgq4h4CY/b+0GTSmrPwG+rDYM8f/pBViBPf9CbCiHsRswhUIh/GHU9dND16HRNn6pTcmgoPCp3tGbnpRnp7Z7ulqOusL+tfVCYGburoT88hx+Uz8IisLF/w9rfTm9QCY/YxIkiw+ac/pR+oReIwb5sbwvqy/m4808kzuDxcPif3mEgzruYx/L+3vjWr6S2k+h9Wq/WrTAjry/qbeEYxefL7yuUrJg8d93jFB+uvQ4eZ8jDueGZ6eCnX+nPGGMzUYWp/Tm46zCkmYgaBjV/4Al3yP/9Duf1omFPvZypyytRql2a0Kf9csRjfrvvuy1IUIdci3iBQznwYdzzcZogxLTrlkFpszC5zVqywH067n5sOSzCbENaX9TfxjGLy5DZ1Ll8xecx2D2aYfo1ajRUrwtolpZp17vjgB+kuFTVluk/H/lzss76sf+51r465PFw+3eVA0A3GTFXnDD+Y7jm570OT6g8yIawv62/iGcXkye8rl6+YPGa6x+98sP4z6aDjmnHHg0KyMjqrr7mTSy4+4wwi1TQwk+Dlm3/88ZkkmBak49FHM8eVssMvu04+MtipWb8vufFGwpIVdsFcYT9SAxcfUuvziGQjYIKPcz71Kfqoily7Ws0G8W71G1//nvdkP3SaI7eaoqd5vC9Om7BXwkc2tTNb6uy0RR8xkUVnkOfGI88+S4NHjmSu4IXJnb8tc3FiZ8XLX541aBHztpnoY2i/8krric2x9LQ5ueXw+pgNnYlyYPXKUyb05/yxAulN55xD2269lU+5umU+th01OzalWKVM8BFR0Zv2QdYYHT+rqI+GhTlzIGJAqW7xOx8m7FUQ+HDTXrnieOZMGOC2Cy/U9htOqdrKFrWsr10w59S0ol6qs9XiY3bZrgYymhAOxXSro65QHbZOGGCdfKAMMG5nqKY0u2AOvW+/+MV0QC2T4JUwH89PBFZ4VY7pnmuCj9zf9qIXvpAWn3XWdEWwzmMKo/k56yHt/dOfZrynmIt+58OEvQoCH27aK1ccDyuku2nnqVtuyfrdr1OGb0O+gYiqCe5VajVMe40oMTJCDxoap9By/vlWuVjvrEL64IAjiXTyEVMDD4GxXRAxiGXIj6q5v7wU5oP19rIs+Z7N5dLJx74//5lGbEMOsPDha3/wA4qr8Tv5BE4pd6LQozt20IEnnsiXvKRzfueD39tK44P1Lolchze7Mlcbqq61CKtWAQYgU9d0LbvUOJDn1Lojx9pqUi9VbdsYL4LVRtGUBmdzhlp+ed1ll2VB8oTq/DYxH1WrMrQQ6Guiyp6lRJEHaNqBsVuokY8Xvv/9UyabxCj416tZjguRTZ/+dMHLK8yUP/MBfU00ac30bKfXTPCBdY3uVjX8V95wQ6YYWIzsfU8/TXdddRU9e8cdhCEJ89asISyIeKZanRTh0yzo//xfNY4HLQs6JQh8mLBXfufDbXvliuPBDxfVV6xjjuYdXY4H+d6hpvd4x4MPUo3tS+7Ud7yD8DedYKoQvJQmpFkNxINwdd3EM3TkieadhWolUl18nHj55XmL1TaBR96LeU5iAlGdwnxwc5bOvHXmpZsPlO3Rb3yD2l/yEsJAUBYs1PfaiZYCLIeNmlA+wQfA8+q90i1B4cOEvfIzH27bq8lPHN2/sJz8uBqHGg+38eYkKeqwSwUZfHP9esLqok6kZ+9ea+DibMsyO8krXxpuRmB986Xxwzlu3mnUwEdYrQR7zOrVflBrShmYD9Z3SgKfnODy6eDDrtJt7343PfXDH9pPZfbzOZ0hNfXUre98J/3h3/4tk07nTlD44PdXt73yKx+sr06uZ8rLNcfD1VfEx3NUy0wFK+Rat2qL/h81t9RjKowXL04+QTgvJqK8XoVT9yrnY0LWTAQ3IDrEr81srDc378Q18JE7KwE/o5ht7owUxeTB9zAfiGbzazMbl1UnH5wntpiO5eeqxoP52DpVM9t0glnb0Wf6dRVc8Lga9GtinFWQ+DBlr/zIhxf2yrWmNvzgF9dupW29L7L6eXT29SBvhEXfpprX8NesBpMuPO00ampvp76ODjqybRsd3rLFegmR1oSgFsdfc82x/SYeoT3PTXub6PJ1hwhf2aXwgQlavxCLaS9fKRna+dhyxJ9h1Ln66eIjN18c777vPrrhxBMJy41jotZ5ysHA2WCuQjQ9IwAklTNze758ij0XRD5M2is/8eGFvXLV8eArAt61W31l6+pbyPcioAaEPzdl9USfEfSriwZjGh58ZaM2sNowH27ywM9iPqBfx4C/nCKXMXfrBh+Dhw7R7vvvt/5yn2/yOIh8uGGvvObDK3vlWlMb/6hb4rusXdQO8JVdDgI9WBfWLyh6PXygvqz5YP2ED+8QsL8fQeOD32exV3p/P647HnxFtMR3W1ro7uvRC43z3FgP6AX9giT4yn7kYNr5sB5BKn++srIe0Av6BUmED3+xJfbKDB+uOx6o0Rw7YBlofAlxh6MZ9cznepKaaRl64Ac6f6I2Z/6pep+wtSvd+V5OfFgGfKI2pxct87kJH+YxLuQJYq8KQctZWk8cD4z08vr0iGhUYfkL1VmR/ZMKg+FgrCGLarf4p2AFlgRG+tbtc627yoWPTXuaCkTBP8mFD/9wgZKIvdLPhyeOh8lcVv8XS6NWNaiURzTrV9FMjnA43GEKPYISUDAdGpaxe27C+QScj1uVHkEJKBA+pkPAX+fhfMRe6ePEM8cDFWCs0S9S3dJi1Xp0DizVB9HUnOB00MQGWaRCxIPudFhDGGv0i8QVH0vVDNNB5AMhyUF3OsIHI+CvrdgrfXx46nigBvpFENKHgaUw5n6v+didDuY3QvtvOckjql8EIcgYWHpiwPjA6H/0j5STCB/+YlPslR4+Ile9/zUfCyW643qyKy6Xmkg/jaeqKFHTSvWrVlG0vl7rfG7FlWrqXXCKx03Mfg2nw/1UU1MWf+bZ7hZ6rqel+Aw03Hl4qIri0RS1zqumOsVHVQD4gNPhfioNEPgqC+GjeDpWNXfSquZDxWeQ506xV3lAcXoqOmfkK9f/8t9cHUA6XdnQforO+Zjadra009IrrrCaebZec810t7h+nqPX8GA0DwY1gs0JcOjvuVd1zveq7Xq1Yrnf+UDzIGoG5SrCh7+YFXtVOh++cDysBox5bfQo7eo/xZp+Bs1vu2++2dPaD5rWEHWHLaQcAgkY79m2MOYdfTG65Ngu3/JRDoEEs/HA14UPRsIfW7FXxfMQ2r/5pu7Q8E5fxZ6OJeO0s/9kwhbSqVYKPaDW3dG5nMJskKFjHQ4H4cUQNK1hFLPpQILbdx1Pd+w+YbbiuXq9ITZOl6zsImwhfuCjo79K1XIayiaQoBBChQ/naF3U/jRdvGyz8xuKSOlLexVR9qrGvL0qFK5UfHnPguPf2uxLxwNlQGb3aBt1Drdbuo0cPGg5HtSAhg+Y69CHw0FfDpqXWNxsWvOj4wEOMHZr5g6pprd+C5ZhxUevWp3SCz7KvWmNf3czbYWPmdCZvOaG48HTKtVeTSLtbM/3jofVAKGdw8uUE1KdDUrYAemuAcHZYJEqruHgWYi2c3tgqF8dD/CAwOCd3tZPq+cMWcfsgNzgA9F26HsSmURA+JjEIt+eW46Hn11p9or1droNjONhhUDovsE11iqmfM7uhHCukKY41GzQbwOHw/03nC+a1TAlOjoR3Ra/Ox7GAwZv45IeaxVTPmeKD0SsYXwOOtlF8iMgfOTHxW3Hw6WoFHvF+jrdBs7xsGIgdEAtoX1U1YCwlHauwPhB2Alxsxw7F97m3gdnU68GtHodrRYUx8P4weBhCe01qgaEba4UywecjTWgtYyj1XKx0nEsfGSj6JXj4VKUu71iPZ1uA+t47AraScU+/pwKajMIFMCSr34aBBo0x2PH2270sI8/p4LazH41c8LzZTgI1CkGutMJH0ReOx47p+Vor+z6Odlnx+OrcGonBbengfOA07A7DnY+qBVB+Bhh2hDTUWnWQyr0H5zHVjVzAP5Y2PlwbYiPEaYNKZfpbVhfP22FDz+xkZ5sVOxVmpNAO558Pyvul7E7o3zp5Jw7CHC/jN0ZufNkeUo+BISPfKh4d65S7ZXnc7V5R7k8WRAQBAQBQcALBMTxeIG6PFMQEAQEgQpGQBxPBZMvqgsCgoAg4AUC4ni8QF2eKQgIAoJABSMgjqeCyRfVBQFBQBDwAgFxPF6gLs8UBAQBQaCCERDHU8Hki+qCgCAgCHiBgDgeL1CXZwoCgoAgUMEIiOOpYPJFdUFAEBAEvEBAHI8XqMszBQFBQBCoYATE8VQw+aK6ICAICAJeICCOxwvU5ZmCgCAgCFQwAuJ4Kph8UV0QEAQEAS8QEMfjBeryTEFAEBAEKhgBcTwVTL6oLggIAoKAFwiI4/ECdXmmICAICAIVjIA4ngomX1QXBAQBQcALBMTxeIG6PFMQEAQEgQpGQBxPBZMvqgsCgoAg4AUC4ni8QF2eKQgIAoJABSMgjqeCyRfVBQFBQBDwAgFxPF6gLs8UBAQBQaCCERDHU8Hki+qCgCAgCHiBgDgeL1CXZwoCgoAgUMEIiOOpYPJFdUFAEBAEvEBAHI8XqMszBQFBQBCoYATE8VQw+aK6ICAICAJeICCOxwvU5ZmCgCAgCFQwAuJ4Kph8UV0QEAQEAS8QEMfjBeryTEFAEBAEKhgBcTwVTL6oLggIAoKAFwiI4/ECdXmmICAICAIVjIA4ngomX1QXBAQBQcALBMTxeIG6PFMQEAQEgQpGIFpuuo8l45ZKA4lma4vjqjUq21sAADtJSURBVPCw+huyjmPhEeu43PT2qz4NsXGraAvrR60tjvtGI9Q3ErGO+8bUvjoWcQcB4cMdnJ0+pVLtVaAdD0iDg8Ff92irU66tdHBGddEeao7tt7YF3SyJ8yIAowYHs0j9rZ6TdvR5E+Y5CeezfyBGW47UUIfaipSOgPBROoY6cxB7NYlm4BwPk3dUOZrBiVrNpDpEIwcPWoc9TzxhbYcPHKB4WxtVt6YdE+8jn+5R/LVSJDlI1bFRQm1IHJEdzdn32bitUY6GazX2u5zygXwaYkOWw+ofSlHveDX1q9qQOCI7mrPvCx+zY+RmCrFX+dEOjOMZSDQpJ7FgSs2m8667CM5l980359dwmrNwQE0nn0ytF1xgbQcTtTSo0sIRNccOigOaBjc+vbBulNYek3YUfA5bXXzUU7ppDjWnbUdrxAHZQc6zL3zkAcXDU2KvZgY/tH/zTd2h4Z1NMyfz7iq+GDqHl2U5HBi37r/8hQ7eeaeWguU6IWSKWlBDvI9a4rtc7RO6fdfxdMfuE7ToZSITfFGf3taf1ZTmBh/9wynqGKqlhw/US5+QjVjhwwZGnt2L2p+mi5dtznPFzKlKs1eFopiKL+9ZcPxbm33teA4ph9M53J7RDQZu6zXXZI5N7MAJoRa09IorrOyjNET1sV5aVLvFxOOm5Olnx7NeOZz1rf2ZMnvBR/9IiDoG43TvHt9+K2XwMb0jfMyOsJuOpxLt1ewMZKfwteNBNfX5wbWErwcI+mu2felLVpNathrmjuCA2q+8klrOP996CIIR4HwQkGBS/Oh40IyzcWmP6oNJR6j5gQ8EI2xSzqcSAxGED+dvoBuOp5LtlXMm0il963hA4q7+U6xSwsCh74YDBQpVUkd6OKDVV19t9QOh9tNau0f1/xzQkXXePPzmeGDkLjm2yyqr3/hA7efhzkba2lWTF8tyPCl8FMaqacdT6faqMDaI2PFErnr/az4WSnSnqxaF5qI5ffdoG+0dSPdvwMg9+eEPZ6LUND/KcXaJ/n7L8VU1NFDNyrU0OFxDqXBM1Xy6HedRSMJnu1vouZ6WQm4xlnbN3CG6cHlaTz/yMWfNSpofG6RYVZg6+ss/BFv4KPynvqq5k1Y1Hyr8Rgd3iL1yAFJukuicka9c/8t/801U287+kzPh0WhW0xU4kKt3MceImkPfErbo++kcrqNR1QzoVr9PMWUu9Z5LVnZlwqP9zsf6mn5qVM2A5dzvI3yU+ovWe7/Yq9Lw9MWUOXYSUcvxk9Oxw4tmP5QPgrBr9EOVo9iNXFD4QNj1y1Q/VDmK8OEvVsVelc6H544HkSA8EBRGzsv+HCdwonwPX365lRTOB+UvJ0GkFA8EDRofcD4ofzmJ8OEvNsVe6eHDU8eDjjkOlw6CkWPI0eSG8kKODMxTtZ82vhToLTquOVw6qHysbewh9IWUgwgf/mJR7JU+PjxzPPZoEPQh+L2mkws5yrvnu9+l8UgdHRxcquaLC/a4Enu0VJD5qK+J0OktvQR9gizCh7/YE3ullw/PHE/n0DJLExhwv/bpzAY1+nwwiDJBNYHv71nf1lc2fNRXp6xxR7Px5+frwoe/2BF7pZcPTxyP1U463mzVcrjJSq9a7uXG44ww2DWowQbpfoSxsuIDg12DGmwgfLj3/jp5ktgrJygVlsYTx8P9OjDaQRf096BpCtI/2piZbSFIenG/TrnxsbB2ODPbgvDhDQL29yOofIi90v/bcd3xcK0ATVRB69eZDn68XNzkhglNgyRcKyhHPtDkhglNgyTCh7/YEntlhg9XB5CiOQohyBA3v67P/8pXaNmGDdZze/ftox+9+tXWvs5/0AfzuvUNN9BArMn4nG46yo7mKF6wrVz5WFgzqAINgrG4nCk+lpx9Ni047bSCfzIdjzxC+/70p4Lvy3cDvx9B4kOnvWo56SRacd55+aAp6FznU0/RjrvvLuiefImZD6/slauOZ9/gGgsDRIOhluCGrL3sMjpzIvQZz2tqn5ztWufzoQ/0wswGWDfI9GSiOsq+cUl6wGW584F1g4IwmagpPs740IfouNe9ruCfzBPq96zL8djfj6DwodNerVN2aMM//3PBHOTe8Oztt2txPHY+vLBXrja18UBRt6LY6hcupFd985u53Bk7Zr1QqwtCeDUPFOVyGwNmImOv+ECtLgjh1ab4aDslPemuaX5ny59/Z0Hhw217NRt+uq8zH17YK9ccD4/wR1+CK7WdUIhec9NNVHvMMbr5mjY/6MX9VviK8LPwCP9K4QNf2X4WU3zE1OS2c1au9IXq9vfD73y4bq8cMpQYGXGYcvZkdj7ctleuNbX1TwywxMqhbsiLPvABWjmxlo4bz+Nn4CsCS2qPJqv5lC+3XAOoFD7qq9JrCfmSDFUoU3y0qt9iSH2EsRx88kn645e/zIczbtGfoFv4/fA7H7rtFZotu557zjGc4UiEXvOd72SlH+ntpXs+/vGsc6UeMB9u2yvXHI+b1db5xx9P5/3bv5XKSVH3c41nZNTf0/SbatbJB5of+GiM6PtSzKdjqedM8ZHbzLZddUw/9f3vl1rcou/n98PvfOi2V907dhD+nMqGz30uK2kqlaKfv/nNdGSL3pWQmQ+37ZUrTW08lxkrmYWo5oNwLEaX/eAHFI17s8QQV1/Hw7W+7efhucwqiY/6mlCmVqH5J1dydib5yHU8+x99tOTylpIBvx9+5sNNe5UPy5UXXkjnfPKTWZfu/+xnadutt2ad03HAfLhtr1xxPAOJZgsj7szSAdh0eZz7L/9Cbap5geWZn/2Md13bsp5ut5s6VXBRfXoeMy6n0/uKSecnPvzar2CSjwUveEEWbQiR9lr4d+dXPty0V7lcoE/u1d/+dlbz6L4HH6T7P//53KTajpkPN+2VS44nPYGm6S/sZS97GZ35kY9kCOl9/nn69fvelzl2a4f19Gtk24KJCTS5nKZw8RsfrLcpfYvNl8ulm49QNEpo5mRBH0Eh/Qx8n+4t68l6686/1Pz4veVylppfIfdv+MxnqGHBZGBScnycfvXudxMlk4VkU1Ba1pP1LujmIhO70seDgVgQVOtMSXzOHLpUDeLkjlS0if7fW95CQ0ePmnrktPmynqz3tAk9uoCBihAup4li+JEP1tuEvqXkyeXSzcf8desoWj0Z5LL/scdIvSC09CUvoZYTTiDrumqS7ty8mQ6ooB/8jXSnlzovRZ/Z7mU9We/Z0rt9nd9bLqdbz8dHAoKi7PLAddfRQTWRsklhPVlvk8/ivF1xPPwwk9tX3HADNS5enHnEQ//5n7Tzt78lfPV5ISMHD1J1a6s1d1tVeNiLInj6TL/yAWPXNxrxFBu3Hp7bv9O8fDm9V0W1tdhqQfayJBMJ+t0XvkC/U83VKbVvUvj9qCQ+ZsPz4v/6Lwrb7FXP3r10n4ZBp7M9F9eZDzgfN+yV8aY2rr5xdc4JCIWmOfHv/o5OeOMbM7cdVpEfv/3YxzLHXuzwV4TbYYqz6cphu5XKR4PPwqpN8tGW07/TrGbtmM7p4HcDo4emnneqPoVj1q6d7adU0nV+P/zGhxv2Kh9wy889NzOtF1+/9xOfoLGBAT40umU+3LJXxh2PUbRU5k3LltErvv71zGPGx8bo58oRJYb8PWAwU+Ay2xE+/ENobo3HackWnHoqvelXv6JoTY3TWyRdiQicffXVWTl0bd9OT91yS9a5cjow7ngGE3MsvIx8YYfDdKkamFXd2Jjh5H4V/+51yCgKg6orZCzpr5d3YUM6oq1S+Wio9tdAUpN85HM8iGr7jZq77QYV+fkF5Vi+oabTuUd9WSeGs5uD56rZDjYajKTi98NvfBi1V5ZFmPqvVXGQO9j9D1/8IqVUYIFbwny4Za+86QDRhOaLP/pRalcdpSz7HniAQJgfhKuubnbYea13EPjwa4e2bu7qVWRUjQq4scs2VYv5yetfT+M2J4OOa/z99ec/t2o5cDgsmFz0ye99z0jnNr8flcIHY5pvm1vb6dmzhzDTgZvCfLhlr4w7Hu6oire1acUR07xvUIOqWEZVWyhG9rr5lcDPzrdlfVn/fGm8OMcd61w+XWUICh+svy69S82Hy6Obj8HDh+nGs84iBBTMUX+I8vyjWrBwuqABjIhH2O4VKiCHBdO2oO/BRFQV68v68zO93vL7yuUzXZ7a+fPp+De8IesxmNIoqboM3BTWl/U3/WzjjseEAtHaWmt2gkhVVSb7u9T4naMFzIWUuVF2SkZA+CgZQu0ZwHDt+/OfrT+nme+85x7aettttOZVr8rcgrBrEXMIrL30UoKDZ8EkoKhllrsYdzx10fS4AEycqUtefs01NG/Nmkx2qJruVQtWzc/zktjDE3FDtRoZbE/XpwaZDhsY68P6sv6Zwnq809GfnkOOy6ejOEHig/XXobeOPLg8OvkopVxorrY7ntYTTywlu2nvZX1Z/2kTunyB31cun+nH566ThPV2Rnp6TD92Sv6sL+s/JYHmE8Ydj+byWtm1n3NOVrZNS5da4xOyTk5zEFFzub3PNuvuw2r8z+0ezG4wTfECeVr4CCRteQt9NGciS/vYuLw3yMmiEahRS7Ys37gx6/5yjmSzK2o8qo3bDDGY0o8SUpFxJoT1Zf1NPKOYPLlNnctXTB4m7zHNB+tvUodC8ubyGOUDv3GHv/NYfX1W8THtlAlhfVl/E88oJk9+X7l8xeTh9J41l1ySNWAUUxohAMQLYX1Zf9NlMGN1c0rNynB1LueyHLqMAL/swofLwE/zOBN8nHnVVfTep5+mq1RY/6dGR+ncf/3XaZ6efdrehI0rGIxdaeKWvcptKYDTsUccljPurjS1gUidYXp/UH08c1ascMSLNRo7Z9qJez/1qcy9e37/+8y+rp32K6+0smqOpcfy6MpXVz4wdDrDWIPCx7aj/hpTxXzq5gP5YqJJ+ywFqy6+mO6ZZTaPkOrkPvaii7hY1taE4+H3w6986LZXWYDaDha96EW2I6IOj5asYD7ctFeuOJ45ygBjYaU2tc6EjoGLTxcwohdztW2wOZ7BI0fo92o+KpPCoYluddQVqstWZYCx8Fil8fH8RGBFoXiZTq+bD5QXC76d+eEPZ4qOIIGlqm90z+9+lzmXu3O66uu0Oytc366Wqtct/H74lQ/d9iofftXNzTQvZ1qiQ2qyVi+E+XDTXrnS1MYKVUrTTsvEktustxc/ppmeyZFElcYH6z0TNl5c43Lp5GO3cjAIzbXLZWrlUYwbySfLzztvykwFz/zv/1LHQw/lS17SOX4/WO+SMjNwM7+3OvnILeaiF74wM5M+X+tUTaNeCPPBertRBlccD6qutSqsGh1YJsl0A7DZntF6wQVWEujLbcWz3eP2dTTt4KWvJD6gL/eluI33bM8zwUdicJB+lzPlTdOSJfQ+ZdxOfstbCBFVaA1oVcMczlMDS9+sajbxpvS6WSgv5jw0MdEuvx9+5sMNezX32GOzfhbDajkKDO1wW5gPt+2VK01tANON6qvbpOV7XrOadwkCff0sJpp3/Kgv8wF9/Swm+Pi9CihYcvbZtMrWb1PX0kKvuemmWaG4UzXTmRiQHRQ+TNsr+2JvIMOr2g7z4ba9cqXGA2C5GocaD7cp4ny5iRfV1mIw5GaOxgrhg/UtBis37uHyaeVDTZODmdoLCdFF89yv3/9+elitDWNC+P1gfU08Q0eepu0V5tKzi1eOh/lgfe1lMrnvmuOxV185isKkYpm81cs3ppodWEb7+3lX+3aNmrQUgugQvzazsdLcvBNXzZ/lzgeip/zazGaaj+GuLvqhmgLn+yqw59Azz/DjpmwxOzUmCr3hpJPokeuvn3Jdxwl+P4LAh2l7lTunJFaBdVuYDy/slWtNbQB1ce1W2tb7IqufBzUfHRFus5EFgv+1rm62ZCVfRy2Ovx6aY/tLzs+NDDbtbaLL1x0ifGWXMx9bjvi7mY25NsnH9jvvpOvVyqPo2zlGTTeFiKqauXMJk4n2dXRYU06NGfwos78fQeHDpL3ChKz480rsfHhhr1x1PPiKgHftVl/ZukJ5vSIu97mrJxZygn51UffnWsotj5Nj1ALw9bm6jPmAfh0D6fnpnGDiZRo3+BhSwwn2qXkN8eem8PsRJD7EXpn7hbjW1MYqtMR3WbuoHZRLhBv0YF1YP9bX79uHD6SnSClXPlg/v/PA5ePyCh+MiLdbfp/LlQ/Wz22UXXc8+Ipoie+29HS1b8EgsqwH9IJ+QRJ8ZT9yMO18WI8glT9fWVkP6OX3vp3c8gsfuYh4eyz2ygz+rjseqNEcO2AZaNQSuIPLjHrmcz3p2mut2g5+oPMnanPmn6r3CVu70p3v5cSHZcAnanN60TKfm/BhHuNCniD2qhC0nKX1xPHASC+vf8IqIaqw/IXqrMj+SYXBV9zEtqg2uJMpwkjfun1uWfGxac/kYEj//GKclUT4cIaTW6nEXulH2hPHAzVA5rL6v1gatapQTx5Bq19FMznC4XCHKfQISkDBdGhYxu65CecTcD5uVXoEJaBA+JgOAX+dF3ull49wKBVO6c3SeW4w1ugXqVajqVHrCcrAUjgdNLFBFqkQ8aA7HWYMxhr9InHFx9KA8oGQ5KA7HeGDEfDXVuxV6XywvwmnQtFk6dkVnwP6RRCCjHnDYMz9XvOxOx3Mb4T233KSR1S/CEJeMbD0xIDxgdHw6B8pJxE+/MWm2KvS+GB/E1YzBXpW42EVENLHzqddTWDo1z4fOEWu6cDpcD8V61EuW4T0svNZGhA+4HS4n6pceGA9hA9Gwh9bsVcl8DDhb6IUinha44EKaD9F53xMbTtb2mnpFVdYzW5b1YJvfhGOXkN50DwY1Ag2J3iiv+de1Tnfq7br1YrlfucDzYOoGZSrCB/+YlbsVQl8TPibaChSmyghG623wpjXRo/Srv5TrOln0Py2++abXZlaZzpF0LSGGhi2kHIIJJhO19zzMOYdfTG65Ngu3/JRDoEEubhPdyx8TIeMN+fFXhWOO/ub0P5n798T6r1nSeFZmLsDy2Tv7D85s1x2p1or5MBvfuOqA0KgAxwOwr0htZFuaqnZZTyQ4PZdx9Mdu08wB24ROWOZ7EtWdmWWy/YDHx39VaqW01A2gQSF0CJ8OEfrovan6eJlZifgrGR75ZyJdMpU47l7F6x66dLQ/u1/2hXuva89lfTXiHuQ2T3aRp3D7VaJRw4etBwPakDDB8x16MPhoC8HzUssbjat+dHxAAcYuzVzh1TTW3p272HFR+8TT1g1Urf5KPemNf7dzbQVPmZCZ/KaG44HT6tUezWJ9Ox7oXCcko0bdi9YedYyy/FEBx5rHx/rnP1OD1KA0M7hZcoJqc4GJeyAdNeA4GywKBLXcPAsBDy4PTDUr44HeEBg8E5v66fVc4asY3ZAbvCBgAf0PYlMIiB8TGKRb88tx8PPrjR7xXo72UaqWihRd+qk44kP72sfGfZmvW8nBUYaELpvcA0NJpozt9idEE4WsswCajbot4HD4f4bzhgRa5gSHZ2IbovfHQ/jAYO3cUkPLawf5VNZHwU4qYsPRKxhfA462UXyIyB85MfFbcfDpagUe8X6OtlWx0+g4fjiScdTlxhtH+y/18m9nqcBoQPK+RxVNSC7E+KCwRlB2OhxMxA7F95yet7C2dSrAa1eR6sFxfEwbjB4cD5rVA3I7oT4erF8wNlYA1rLOFqNMdK5FT6y0fTK8XApyt1esZ5OtrX1L6OBaGzS8TSmatv7em8jSo05ud83aeykYh9/TgW1GYxExpKvfhoEGjTHY8fbbvSwjz+ngtrMfjVzwvNlOAjUKQa60wkfRF47Hjun5Wiv7PrNuB+qoobGV1FvaNByPOmF4EIhqootprGRnTPe67eLcB5wGnbHwc4HtSIIHyNMG1Iu09tYyvjsH5zHVjVzAP5Y2PlwbYiPEaYNKZfpbVhfP22FDz+xkR6vWKn2Cv6FlJ9hyaxAGq1aGjjHw0rYt9wvY3dG9uuy7y4C3C9jd0bulkCeZkdA+LCj4f1+pdgr+Be7ZGanjkbnUThca78m+4KAICAICAKCQEkIwK/Av9gl43hwsqr6WPs12RcEBAFBQBAQBEpCIJ9fyXY8sRWqGS7d9l7Sk+RmQUAQEAQEgYpHAP6kSvmVXMlyPKFQhGLVq3LTyLEgIAgIAoKAIFAwAvAn8Cu5kuV4cLEqfqxKOBmVlHuDHAsCgoAgIAgIArMhAD8Cf5JPpjieEEWpuuakfGnlnCAgCAgCgoAg4AgB+BH4k3wyxfEgEWKuI1XpudHy3STnBAFBQBAQBASB6RCA/7DG7kyTIK/jQdp47Wmqya16mtvktCAgCAgCgoAgMBUB+A34j5lkWscTVu1z8dr16t7J0aYzZSTXBAFBQBAQBCodgZDlN+A/ZpJpHQ9uila1USy+eqb75ZogIAgIAoKAIGAhAH8BvzGbzOh4cDOmso7GfLVA6Ww6yXVBQBAQBAQBlxGAn4C/cCKzOh5kUqOa3CTYwAmckkYQEAQEgcpDAP4BfsKpOHI8RGGV6RnifJyiKukEAUFAEKgQBNJO5wylrUN3UkjKUChKtXVnSbNbhfyYRE1BQBAQBGZDAM1r8AvwD4WIcxdl5YqazwtVwMEadSTRboUALWkFAUFAECgfBEKWH4A/KKSmw/oX5qYm7kIHUiQyj4YHH6FUaoTzkq0gIAgIAoJAmSOQHqez3lH02nRQFFjjmcwGIXO1jedKv88kJLInCAgCgkBZI4D+HNh9JyHTMwFRVI2HM8Qgodq6F9PY6D4aGXpS1X6G+JJsBQFBQBAQBMoEAUz4ibnXZpoGpxBVS3I8/CAUJhpro7Hh52h05FnlgEb5kmwFAUFAEBAEAooA1tPB0gbWqgXTTPhZjGpaHA8ejFlIY/G1ahXTVaoGtIPGRp6jZHKwmDLJPYKAICAICAIeIoDlqrFyKBZxy7eeTqlF0+Z4uCC8mBy8ZCJxmBJje6ymOEqNcRLZCgKCgCAgCPgNgVCV1ZQWrVpK0eg8o6XT7njspUXh8RePv4DGx7tpPNFJifFOSo73Uio5bE8q+4KAICAICAIuIhAKxykcaaRopIUiUfUXaVZNV+4MkzHqeDIYKmUi0TnWX4wwBkhJKkHjyT7lhAbUQUL1CyWscylKWpcr9V8kOr9SVRe9BQHtCOB9isXXac83SBmGMKOAGuCZHuQZVc6mjiLhBuucV3q443jyaaeAiESUM1J/IpMIRKJFR7hPZiJ7goAgYCEAx1MdP0bQ8BkCYuV8RogURxAQBASBckdAHE+5Myz6CQKCgCDgMwTE8fiMECmOICAICALljoA4nnJnWPQTBAQBQcBnCIjj8RkhUhxBQBAQBModAXE85c6w6CcICAKCgM8QEMfjM0KkOIKAICAIlDsC4njKnWHRTxAQBAQBnyEgjsdnhEhxBAFBQBAodwTE8ZQ7w6KfICAICAI+Q8C7KXMMATGSSM/11jucXhMIx9VqGprqaMR6IrY4FnEHgYbYuPWghfVpPnDcNxqhvpE0H31jal8di7iDgPDhDs5On1Kp9irQjgekwcH0DifoUH9hs13D+TTGYzS/vlptq5z+TiTdDAjAqMHBLFJ/q+cUthotnM/+gRhtOVJDHWorUjoCwkfpGOrMQezVJJqBczxM3qH+EeVwpq7xM3LwoKVdzxNPWNvhAwco3tZG1a2t1jHvIx84K/xVqRmxa+LVVq1IHNHkj8PJHhu3NcrRcK3Gfp9TPpBPQ2zIclj9QynqHa+mflUbEkdkR3P2feFjdozcTCH2Kj/agXE8cDJwNrk1m8677iI4l90335xfw2nOwgE1nXwytV5wgbUds5wYnjGsakFxqQlNgxufXlg3SmuPSTsKPoetLj7qKd00h5rTtqM14oDsIOfZFz7ygOLhKbFXM4Mf2r/9T7saqa595mTeXcUXw77uwSyHA+PW/Ze/0ME779RSsFwnhEyrKEXN9TW0uLnW1T6hX2wJ0y+3+rcPCl/Up7f1ZzWlucFH/3CKOoZq6eED9dInZPvVCx82MPLsvnpNki5d694aX5Vmr/JAPuOpXhrYvWDlWct87XjgcPDHAgO39Zpr+NDIFk4ItaClV1xh5R9TPqCpNk4r59UbeV5upn52POuVw1nf2p8pshd89I+EqGMwTvfuacqUo1J3hI/ZmXfT8VSivZqdgewUvnY8qKZuP9xH+HqAoL9m25e+ZDWpZath7ggOqP3KK6nl/POthyAYYeW8BuOBCH50PGjG2bi0R/XBpCPU/MAHghE2KedTiYEIwofz994Nx1PJ9so5E+mUvnU8IPGZAz1WKWHg0HfDgQKFKqkjPRzQ6quvtvqBYuEQLZlbZ/UB6cg7Xx5+czwwcpcc22UV1W98oPbzcGcjbe2qyQdlWZ4TPgqj1bTjqXR7VRgbROx4Ild98O0fqqZYc6EZmEiPjv1tnX1W1jByT374w8RRUSae5yTPRH+/5fiqGhoovmIl9fUPUTKEUGwzIdhbDodo65GQk6IZT7Nm7hBduLzbeo4f+ZizZiXNjw1SrCpMHf3lH4ItfBT+k187L0Xr1J8JEXtVOKojNNbzla/deJ1votpQy8HXAwTNaroCBwqHZuodiJpD3xK26PtBWy6aAd3q95laIvNnLlnZlQmP9jsf62v6qVE1A5Zzv4/wYf43X8gTxF4VgtbUtL4In7KTiFqOn5yOHTI0+6F8EHztbD882dFuTxf0fbuRCwofCLt+meqHKkcRPvzFqtir0vnw3PGg9sA1HRg5L/tznMCJ8j18+eVWUjgfe9Sdk/v9ngaRUjwQNGh8wPmg/OUkwoe/2BR7pYcPTx0PHA4b7iAYOYYcTW4oL+RAV1/WGCNOE8QtOq45XDqofKxt7CH0hZSDCB/+YlHslT4+PHM8IBFVVgj6EPxe08mFHOXd893vUiIcob1dA5laW266oBzbo6WCzEd9TYROb+kl6BNkET78xZ7YK718eOZ4uKYDA+7XPp3ZoEafDwZRjiZT1rij2dL7+fr6tslowqDzUV+dssYd+Rnv2comfMyGkLvXxV7pxdsTx8PtpHA63GSlVy33cuNxRohyC2qwQbofYcyqdZYLHxjsGtRgA+HDvffXyZPEXjlBqbA0njkeFBNGO+iC/h40TUF6Boczsy0ESS/u1yk3PhbWDmdmWxA+vEHA/n4ElQ+u7ZTb++GlvXLd8XCtAE1UQevXme7VxcuVbnKjTLDEdGn9dp5rBeXIB5rcMKFpkET48BdbYq/M8OHqAFI0RyEEGVIOXw92SqAP5nXrVjMb9AZkcTk0R/GCbUb4CIdp8Rln0ML162nhaadZ2+qmJjq6fTsd3rqV9v7pT/Tk975HqfH0HHB2PEvdZz4W1gyqQINgLC6nk4+Wk06iFeedVyqM1PnUU7Tj7rtLzieIfIi9Kpn2aTOIhihkZj6JPI/ExJ8QRIOhllBOAn2gF2Y2wLpBpqbU0YnZxiXpqEITfMTnzKHLfvADWnXRRVOK3LhoEbWfcw6d9s530pkqLP2OD3yAdt9335R0pZyw84F1g4IwmahOPtZddhlt+Od/LgVC695nb79di+MJIh9ir0r++UzJgP1NOKW+N6dcNXQCIYmQoEZNzQYL64VaHes62z1eXueBolxuXWVpPeUUetejj+Z1OrnPaD3xRLpCfVEvefGLcy+VfMx6oVYXhPBqU3yUDKSmDILGB7/DXG5NMPgmG9bLTXvF/ias1jtzZcADd9ChL6Hcajv8S4Je3G+FWo+fhUf46+Zj3nHH0dtVE9qc5cuz1N//+OP0wHXX0aPf/CYd+utfs66Fo1F6/Y9/TLUtLVnnSz2w84Faj5/FFB+l6pwY0fc7DhIfYq9K/eVMc/+Ev4mmwqlR5XyMC389YOXQchZ8RWBJ7ZGEaxXJouDkGoBWPkIheuUNN1BVzeQyBclEgm59xzvoCVsEYygSoZd8/OO04TOfoZDqB4I0LFxIZ3zoQ3SvOq9TmI/6qsri4wnV7Nv13HOOoQwrTl7zne9kpR/p7aV7KpQPsVdZPwVtB5a/UbmpPp6UK5+CTCRX77Rp4rOMuMYzNKzvS9GEiiaadVa/6lVW3w2XN5VK0c/+9m/prz/7GZ+ytggm+N3nP091ra30wve/P3Nt1cUXa3c8zEdjpLL46N6xg/DnVDZ87nNZScHdz9/8ZjqyZUvW+VIPgsKH2KtSmc5/P/ubcJLGO/Mn0XeWI9n4R6cvZ//lxM0JYxT2bT8Pz2Wmm4+T/u7vsgh5+kc/muJ07An+8MUvEgwcS5uqKcIZ6RTmo74m5Nt+HlN8OMVx5YUX0jmf/GRW8vs/+1naduutWed0HASBD7FXOpjOn0eCxg7iSjQZHt9NhlsheocTVinKvbbDUHPzjl+j2xbVp7v1dPIRUwvlrX7lKxkCSqpazWzNNH3PP2/1+dTOm0eDhw/TwMGDNHT0aCYPXTvMh1+j20zw4RQ78Pbqb3+bQqqZlGXfgw/S/apGakr8zofYK1PMq3zDqT3IPZoMkfOG4CLL0zucNnS6v7CLLI7x21hP1tv4Awt8wIKJCTS5nAXenjc5xurY+3b2q6i2nl278qa1n/z1e95jPzSyz3qy3kYeUkKmXC4uZwlZFXwr+tkaFizI3IcPhl+9+91EyWTmnO4d1pP11p1/qfnxe8vlLDU/v9/PerLeJsubTI49i/yjifD4JpMPQt4YiAVBNbsShPVkvf2mMwYqQricOsrXcsIJWdnsuOeerGMMHG1aupSqGxutwaNDqobjlrCerLdbz3X6HC4Xl9PpfaWmm3/88fQiNYbKLog8PKjmUDQprCfrbfJZxeTN7y2Xs5g8gnQP68l6myx7oip8H/KPrlzy8qf6nnuCwpM1bZPPrZi8R1SzUbXqrwCZ1VHXZyZyHecWNR7HLvseeIBU+w2h3+c09QW99Oyz7ZepZ88eQpp7PvEJOlpA9FVWJgUcMB8wdn2jkQLuLN+kF//XfxFC2Vl69u6l+zQMOuX8ZtoKHzOh4/415sOkvVKT+BP8DbSzLOJ4iozVqzk6hKtz7kPqzRMnvyIMd6AVqB6HUevmo3Hx4qySoM/g8jvuoEsxm0OO00FC1H6Of8Mb6D1qfM8pb3tb1r0mDpiPBp+FVZviYzYMl597Li3bsCEr2b3qI2BsYCDrnKkDv/Ih9sqcvbL7GetzZ4zGRqpUC72pH5nkW/4IVKtOaru8Ro3biavmtdkkVl9Pr77xRmpub3fta3u2MlXC9bOvvjpLzS41f95Tt9ySdU4OBAGdCMDPcH6W4xkPj6nOl6rsoeacosRtpX5BoOoKSQ8krSoRRX23L2wwE+iB6Ci72J1Ov8Jiyy9+QYfVmJA6NTsBvrYXv+hF9uT04n/6J9r8k5/Qoc2bs87rOmA+GqrVF507H/WOim6Kj5kejimNVqoJbe1ihbYbmKzV/gz7vl/5EHuFGo8Ze5X2M+lfgeV4EuHRxylZa8Tx2H9slbTPTQludNj5AVfUXPLJlv/7P7pVTQaaFUygxoyc8Q//QOepcTyRWMy6LVJVRa/8xjfoJjV5qBrcky+rks4xH37t0C5JuQJvzq3toL8NMx24KcKHm2jP/izmw6S9svzMRFGsPp4kJX42e9GKS8Ed6/G2tuIyCOhdrC/r7xc1uGOdy6etXHmcBYIHfvza12Y7HTxQpX3g2mvpd1/4Qtbjl6qJQnODFLISlHDA+rL+JWSl9VYuD5dPa+Z5MqudP9/qW7Nf+uOXv0zJsfQEvvbzJvdZX9bf5LMKyZvfVy5fIfcGOS3ry/qb0CUZGfsJ52s5nqXLz/2h6vgREQSKRmC0P3vBtZQaB3Lbu94143gQGLzu3buznjlfTTIqYg6BtZdeSpiXjQWTgGJNJBFBwCQC8C9Ll573Y36G5XhwMJIaS6/Qxlc0bRvj6aYUTJxZScL6sv5+0b2j3wwfI33ptZZYT0xQiUXEZpLx4WHarmYrt0uLGltiQpgP1t/EM4rJk8vD5Ssmj0LuOe51r8tKjvV2RnrS6zJlXTB8wPqy/oYf5zh7fl+5fI5vDHhC1pf1161Orn/JOJ5EeHiH7odJfpWDwHB3d5ayg0eOZB1Pd9D1rDWQOXP5mNWrM/uyoxeBmmOOoeUbN2ZlKpFsWXDIgSEEcv1LxvGMhge+b+KZ3GaIwZSVJKwv6+8X3blNncunq1yHc9bYQbCAExnP6VvAlC0mhPVl/U08o5g8uTxcvmLycHrPmksuyRowimUPtv3qV05v15qO9WX9tWZeQmb8vnL5SsgqULeyvqy/7sLn+peM42lffsEXxzG01ICwMlydM/AIybIABPhl18nHwZxmNQQJhCci1mYq2tyVK7Mu9+7bl3VcCQcm+MiHG5YbtwucDpo7RbIREHuVjUepR/Ar8C/2fDKOBydHQqPZDfX2lCXsV0cnOzNLyCYwt7ZfeaVV1vn1cV+WmQ2dzsJZU+TYMoxWV9OCU0+1ncm/u/iMM7IudO/cmXWs44D52HbUn2OkTfCRD7dFOWOnOtRErl6I3/kQe6X3V5HPr2Q5ntHw0Ca9j0znNr++2tppU+t+VIJwaGJj3Bom5TuVt04YYJ18YL615x9+OEvXi776VYraViPNuqgO1qmObsxqzYJIuK233caH2rbMx/MTgRXaMtaUkQk+cotW3dxM89auzTptarBu1kPyHPidD7FXeUgr4VQ+v5LleMajI+810djGkRI6m3ZKwMH4rS0To8JZb+MPLPABHEmkm4/H1boudln0whdac7VhstBcmbtqFV3wla9knd51333UZ6CpjflgvbMe6oMDLpduPuyqgQv7mju41vn00/Ykru37nQ9+b03y4RrYDh7EfLDeDm5xnAT+BH4l94Ysx7N06fkdQ8kx7ROKoM20MV5lzdZc7mS2XnCBhbGlr09npUbTDowdOhR18vHYt75Fuc03CN99g1r6ug3NbsoB1amBxJgU9F2PPGJNFMo/SAQV/FZNm6NbmA/o61aTVqE6mOLDXo65xx5rPyREIWIhPrclCHyIvdL3q4A/gV/JzTHL8eDiSFX/7bmJdBxXSvW1Wc2DBWF9dWBnIg8TzTsp5Tx+ccUV1pIH9jKvu+wyerfqT/h0IkFX7d9vTQqKdXns8sdrrqGOhx6yn9Kyz3ywvloyNZAJl09n86e9mPbF3nDeq9pOUPjg99cUH3ZuvNxnPlhf3WUZjQ7kDZuc4nh6BjrfNp7U/XhSNZ7JgYvcxqv/Kd7naLLaqlM7bt5pVAN7dfJx+Jln6L9V7eZZtSRCroTCU35uVhIss3yvmr/NhDAfrK+JZ+jIk8unmw8uW71tlVGc88rxBIUPsVf8yyl+Cz/SPXjwHflymGIJjj/+Df1DoSHtMa326itHteQrUJDPrfnoR63iI5qNQzL9qg8378RVc5tuPobU4NFbXvEK+u3HPmbNSI2ggXyyc9Mm+r4KOLnv0582MjEo84FoNr82szEuJvnAM1AbtUunoVnA7c/I3Q8SH2Kvctkr/Bh+BP4k3515w65GYv1X1Y/V/CjfDaWcWzmvgR7f12X1K6BvQfdiZKWUrdR7UWvgrzlT1dZSy5h7/6a9TXT5ukOEr2ztfKiJQNF8hj8smYDQ6lb1HBjA7l276JAacNq9Y0dukbQd2/nYcsSfYdS5yprk41dqFVj8eSVB5EPsVWm/FviR6XKYUuNBQkzmNpjUP3cbviKs2oD6yi63ttPVEwtrQT8EFgRB8JWN2gBqPSb5GFXzuO2+/3566Gtfo4e//nV69te/Nup0gD3zAf06BtLNvH7nxC0+vMAhiHyIvSr+lwL/YZ8UNDenvI4HiQYjvf+Zm1jH8eLmWisb1A50RlTpKFuxeUAP1oX1KzYvt+97+EB6HZ1y5YP1cxvXYp/H5RU+ikVQ7338PpcrH6yfXtRm9x/TOp72FS+7eiS3YVhD6fAVwcrq7lvQULyismA9oBf0C5LgK/uRg2nnw3oEqfz5ysp6QC/oFyQRPvzFltirwvmA34D/mOnOGa3kQLjnppluLvYad76jlsAdjsXm5fV9J6kFzaCH/QfqdZkKff7WrnTneznxYRnwidpcoXh4nV748JqB7OeLvcrGY7YjJ35jRsezZMXGd44kxxOzPajQ6zDSx7U1W7ehCstfqIXm43V6DIbjJjZ0RAZVYKRv3T7XKn658LHp/7d3rbFRXFf47OzLXi92DAaDbRxjJyAgUkuBFDU0wW0hKan6C6VKH6pCHylSSdSUVMqf/uBPpJYUpVSiTSuiVE2kRlF/VA0itA1J1ES0IaVVQxAJT2OMjY0f6/Wud7070/vtMmZ3vd6dp3dm91zJnp2Z+5rvm3vO3HvOvbevya10ZHppzIdz6GN5pZ0L6AvojXIpSioeJI757bH1ZMnMCodW4VKrzmguV2Gn3IfCUQ2m65Y3ucahYD78Msrn/C3l43I+/iyewy0OBczHfAg46zrLK218aNUXZRVPR9e2p2LKTFxbsfpiwfsrYxdZtizT67FyIqO+muiLDaWDITaEnpawpUrH67FjtTxtzwdhDbtIneCjU6yw7UY+4JLsdqWjssV8qEgYP1rZnlheleYBegL6onSs7F1Nlte9+x45Xy837Jq71KOWIkrHAZmJlEyJQB21bN1KqWiUpi5cKJ2ogndzlQ7q3rU4a5i3qkpXJjz0vxtlvwesKm5OPphB3xhMU2tLkJYIPtIu4gN1f28gfymeOQ/osgvMhznCNixXqCfbkTeX0a3ULK+Kw4jP5cnA6LcOHvz9meIx8q9qUjzI7Iknv/2dIPltGThvCPgImwVB+YTFqsW+cNiRk0sxHLhu//4MgngBMcRmdRiY9NDpwcopHjzPSNxPdT4lo3waBB9+F/ABAa3aRazmpNL5MR/GGbi3TWxCljUnG8+kICXLqwJAxGmUYlfbVz1QdHmcubGJiq5cUCyiEhrbmIrWD/mkImvcF0ug4xrGTzFkhWM/iWEesdAkhnnOiVnvTgmq9xrqg+FB1SXc6vo5YQsf2HveFMb5iDhuEjuWO50PDA+ecqkHm5b3h/nQglLxOHa0J5ZX+VinFFKUhrGN+VdLn2nq8SCL5557OfbEvkeb6+S6/C0jS+ev6y56EfgbjiaoQWyJjJVTpwcHKTE0pCsfKyNjaA0u3zgioJcD90q7QkIsqfX2lcr2eNRnQy8Cf2sWxx3LBxwJ1JWd1XpX65H50M/sl++SqdmmFZNYXmX5mPSP/7KtY/uf9LCj22wz9Mm/RsJScImeQvTGhc3no8HxjO0HaW8cP06Dx44t6PAbelxw84Z7MQJeMvRycLQzxGeI9hzV3BG1syqzeS8KpOmrPaOEI4IT+BiI+kUvZ1HVOBLMgq3hB/OhAaRbUQ7vTFG9vU02I6dqVV5F5cTN1rvvbdHOSDambsUTHTrZmpqsu+4v3M5Qb8ll4kP5DEenqX88lomJXg8WFb3y0kuZXlCZ5IZvQ+HAloPhJTXYObSmlpF7fPKYlyYSuqnJzcLy3xB26Plsas0uNjst+IhUiI9qH1rTQh7zUR6lpqBCzz+Uvyp3+VTGYtSivJpRFMW3aHpFuHWL7iEpQ9Lt8uUTP25JLz5gKLFOXkEolA+UEIKqgKzuAUHZYGhP7eGgLAypwfa00OHn70l0ZtgZw22Fzw6Bt3l5lFY3Zz3sVQW0EHxgwU/YnjjcRoD5uI1F4a/1S2V6+nPFt+QojGvVea3IK3ixjXhH93V19ebvX68RSMO6Y+DCP0420aLPaizHdDQQemFkkiLTYizqVshVQrikZ5sF9Gxgt4HCUe03ar4YTsNKBDAiViL85WMPvXZWs/mtElXMDLv1rpygtnBytny7+IBtA/NzYGTnUBwBKCDmIx+bXWvT9JXVlZkXV+3yaoIm/9nWs9Wwvd+w4gHFw+dPjYc89rhY579Ct89AaGQ6mXFAyFVCagwIPwRVCcE5AUFVLuoxczHnn2ootMtbLaeosj8vjhHtf8dZdp75Kg2BB+WzRvSAcpWQGt8oHxlDOia0VrG3moqRlUfm4zaaP70/Rd3Nt88r8asa5ZWYKDqx9K5NppzUTSke2HuSkeBAUJpnT2Obmc4lNZFKzzojaCkWvRlsb9so/C3t9FLTUpfCOGJKE/3wqJdiKVP0FGZr+3mu0MNv/GkN6M1cF4rmmujdnBu1yQ1Ja2WqJF4t8xES89B+tTNNkoOaUDXIq4Qsy4nw9eUrVuwcNtNMTNNy6dLRB5ak2094PWQ6LzMPoqYFuQjoFSGo56o3mnrM3HTwvyOnJXqnrzJDfVbCoioftTekng9MZjdnq5blbazEzM68VPyrnY/7O2XavWFh7TtGeFPlkxvkVVrM17npvda7atXOt408a24aS5RFf9+JHzQlFx920tdF7kO68fe5EaJn33XHcJsb8eU6VzcCz9yXojW6nXyrGxMzT4dRmInA6J6Ozt5fm8lHTWvJJzUqE/GNHHD+94X62M4/rhYzpVrqK2MYdT46XENGYH4E0G7QfjhYgwDkOuS7VUoHtbJE8SCj9q4vPj3uGXuBRSXQMB+wMNH2blbl5pHkHGoNAbQb6xf2qjUUs88LeQ65DvluJQKWKR5UamX3tscnvJFXWPlYQ9G2LoXCAUbTGjQ5l1pAAO0F7YaDeQSAIuQ55Lr53PJzsFTxIOv2rs9/Y0xoSP5WzwfayFlQmHge7GEkjWDHaWoTAbQXtBsO5hCA1IEchzw3l1Px1JYrHhQDDRnxCpsPf3gUR13H1e3dCjXXMZA6IOOoNYoA2gnaCwdzCEBuQ37b0dNRa2aL4kHmGBOEFwRc8NTC+KgfASzr/vV7uNejHzlOUWsIoJ3YsQ1CLeEIeQ25bbVNpxBD2xQPCoIXBPy+MemosGA+147A5naF7lnGEGpHjGPWGgJoH2gnHIwjADkNeW2l99p8tbFV8aBQTDbCTFcsszBfJfh6eQR2f1qmBj83rPJIcYxaQwDtAu2Dg3EEIJ8hp62YHKqlFpZMINVSEOJgYdFGsbDoghaqtXIuiPffIQ8dPIlvBUbQBXRxFRcEAYV+tEWmT7XyR5kRuIFaxOSCn0bKtb3Hk1sprGaKpbSxj0Pudf6tDQE0rofvZui0ocWxagEBtAdWOsaYhhyGPDazyrSxkiv06YzFRaci0hm7dzI1CoqT00Fl/+YDiU5eW9BvBidDwnWrUQS2tMv0+EaeLGqEfuwc2tAorzeyiZuR8grTVER64WGxXeqEb/z5lMy9n0JSSp1jRvZ3PyOzs0EpkPhe1SMAZwK0A16hQB/VkLeQu5C/lVI6qHHFjQXXrx9d6ok1fxCm0MqKV0YfhxWNnUgRHXpfog9vVOTboaLPzoXXNgJQOns380RRPW8BBuijFLuqhMY2mt3SQE+588V1jKzv6/vb1+qTd7woNpbjzVjmY6vgOnaA+N2/editABY+rWIEMLyGnk6FNgd2JbLCYy0eD4w/1tn5pT865QEco3hUQPovv/WL0Ezj3qDk5YUvVFBKHDFQ+dpZiV7/BFQ6js4SNedbjIAeBLKONbvW8vCaVtQScjoV80cOdXRte0prmoWK51hJdfXiid82yE2PBT1e70KB4eZy4Gr9gnA6mJpxLKVuhpfrXkEEME/n+8KJgL3XtJGQUNLpKWnixZXdvd/TlmLhYzleSl25+ObPQunGvSHJX7fw8LirxNE40ZH/sN3HXaxxbUshAHsOJocu5gH4UjBl7sXkmemYN3Lozu4v/KRs5ApHcLziUfGBDSiYDB+oV+o7vGxPV2Epenz/mode+VCisWnX0Fv0Ofhi7SKABT+x9hovg1P6HUgLO2/cE+9PBKL7nGTDKV1rFxoFzpx5NdzUsOxIINXwcMgTCLFoLU7xtPB6O37BQ8cvShRNMkrFUeKrTkMA++nsEBu57ehReMHPeciBh1pMScaSvqnXJ6Zu7F6//pHoPFEde9nVEqmv73ibNxU8HJDre4NKYJFXcvXj2PKSwO36rcse+qtQQCNxxscWkDlT0whgu2rsHIpN3Hg/nblwpsVeBQlPcjIpxU+kfYk9nZ07BubGcs+VqpJEVy698UxAbvimT67rDnr8dd6qejpzLxW83z6+SfTuVYlODXgolmJwzCHKqc0iEPIptKlNoftWyrR6iRh+4VdyFlKxPQEllJnplDR9MSlN/eHOVQ8+O3uzCn5UNdV9l/7+qES+XT45sMEr+5f7yR8Uykiq9Y4RNnq6PE700bCHzo54qD/ioYlEVb8KVdBU3f8ITUGFOhoVWtui0LqlCnXdQcRtkUgoGXmGZhJpaWYwJSVPy96ZV91krzHyZv4ftdu8feBPSfcAAAAASUVORK5CYII=;base64,iVBORw0KGgoAAAANSUhEUgAAAZ4AAAGcCAYAAADptMYEAAAAAXNSR0IArs4c6QAAAHhlWElmTU0AKgAAAAgABAEaAAUAAAABAAAAPgEbAAUAAAABAAAARgEoAAMAAAABAAIAAIdpAAQAAAABAAAATgAAAAAAAACWAAAAAQAAAJYAAAABAAOgAQADAAAAAQABAACgAgAEAAAAAQAAAZ6gAwAEAAAAAQAAAZwAAAAALQZVhQAAAAlwSFlzAAAXEgAAFxIBZ5/SUgAAQABJREFUeAHtfQl4ZFWZ9qkllcrSSbrpTtJb0gvdrLLIIiBKt2CjuAxuMCMK4i78KoP8MDqj4zDOKCi4/YLLKIKCyqDjuKCs3biCgqyNdkPvDZ2ktySdpSq1/ee7yVe5VbmpulV1zr2nqt7zPJW7nfud73vfyn3rrDcg6jBt2XXfS8KJ9JpgsGGVSAd6wqKhKyMCTYF0ICICIhIQgVBGZAJ1CA1CBgJAQBEC8jmSkc+RlMiIiUwwMxEQmfGkSPSLYGZnOp14LtkQ3LBy6aufVlRcVZmp6Yfrzp33XxhMNVwQTkdODKUbuhtEQ2MoIILBmo66qr5/cBYI1DUC6YwQqYxIJ0Qingom+pLBicfTocSdPT3n/KiWgampR/CObfd8PJJueUc4HV3RGGiISpFBAgJAAAhUHQJSjEQ8k4glg7GtE8HR7/cuP/ezVRdEAYer+tG8c+e9i0LJxpsj6aa1jZnInBCqMgWoxiUgAASqFYGUrBrFAxOHJoLj61Ph+Id6eta9WK2xkN9VJzwbN97Z2t7S+Z3GROt5TcGGlqoLoJq/LfAdCAAB3xGQlSExnk6MxhtG7h4aHXj3McdcMOK7UyU6UDXPbeqvaZxo/UJTpmlJKFhilMgOBIAAEKhBBFJpKUKB8d3xyMhV1dQvZLzw7Nq2/rPR5JwrmoMN0Rr83iAkIAAEgIASBMbSidhYaPirvStedbUSgxqNGCs8u7au/1ZLuv3SxkAopDF+mAYCQAAI1BQC8UwqNRocumXpirXvMzUw44Rn9/YNNzYn2j7cGAyFTQUNfgEBIAAETEcgnk4lxxqGv7pk2ZorTfPVGOGhPpymiY5bmgMNTaaBBH+AABAAAtWKwFgmMT4eGbzUpD4g34Vnz567FwTG5j7WKpqX+u5MtX6z4DcQAAJAoAACNBJuRIztyjQfPGnhwvP2FsjqySVfx4e9uOOhLzWPLOqfA9HxhGwUAgSAQH0iQD/q6TlLz1t67vqNgi+VjJH+h7tGh4MbW4ONh/kNAMoHAkAACNQbAiPp+P6WtvQxrV2n9fsRu+c1nu3b138seSi6B6LjB90oEwgAASAgBD1/6TlMz2M/8PC0xvPilt893CbmvMzTQv1AFWUCASAABKoAAer7GRaHHlm08szTvHTXEw2gAQTh0c7n5Ii1di+DQ1lAAAgAASBQHAE58m0o2TKwyquBB9qb2rZtu/usxpGFfRCd4uQjBxAAAkDADwTo+UzPaXpee1G+VuHZvXP9Bw9LLV7fGAxqLccLoFAGEAACQKCWEaDnND2v6bmtO05tgvDC9gc+3z4x72b5ThxPmvN0AwX7QAAIAIFaR4Ce1/Tcpue3zli1iMKurRu+0ZGZ+35tqqYTEdgGAkAACNQ5AnLRazEYOPjNpSvWfEAHFMqF54Xtv729PdX2duWGdUQPm0AACAABIOCIAI14GwoN37F42SsucsxQwUmllRKq6UB0KmADtwIBIAAEDEGAKg/0PKfnumqXlAkPtQlS8xpqOqopgj0gAASAgD8I0POcnuuq+3yU6ASNgqAOqaASa/4AjFKBABAAAkDAGYG0bHcbihz40JKetV93zlHa2YqlgsZ90xA8U0avxZPULSZn48YmrC0dN4aD8jP5Pjna0jGSNwiAD29wdlsK+HCLlDf5qomPVEZk9odeWLt8+XkPVYpORcJDKxLQpCO/5ukQaSQww7Gk2DsSKwkLEp+2aEQsaG2U24aS7kVmZwTAhzMufp0FH34h71xuLfART6fT8dY93ZWucFCR8Ox9/tFBr1ckYPL2jsSl4CRmMBzvn1xsdejJJ61rsb4+Ee3uFo1dXdaxfZ9vbhBp0RRttGpFECJGxd0WfLjDyatc4MMrpN2VU4t80PI6Cw4/ucMdAs65yhYeWvCzXS746WxW/VkSGRKb/JrNwL33ChKXHbfeWlKhJEDtxx8vus4919rab17QGkVNyA6Iwz74cADFx1Pgw0fwHYqudT6GKlxYtCzhoaW056fmfaGsmx1IKnSKfjHsHhzLERwSm8EnnhD999xT6FbX15xEqEFkREdrk1jS0Yw+IRuS4MMGhgG74MMAEmwu1AsfNMdnX+jAVcuWrb3BFr7r3ZK1g17iRu9xaAgESr7XtVdTGUlw6MOJBGfTddfxoZYtiRDVgnouvtiyH5HjENqbo2Ll/FYt5VWTUfBhFlvgA3z4+bxKZDKZ8JzYwnJeJleyePQ/96d9ul/iRtXULfsOCfr1QIn6azZff73VpObVV40I7b3kEtG5bp1VJA1GWDl/Tl0ORAAfXn3r3JUDPtzh5FWueuaD3mTaterU+aViXZLw0Lu625MdHy21kFLyE4nP9g1Zt5DgUN8NDxQoxY6qvCRAq6++2uoHisiJSkvntcj+n6gq88bbAR9mUQQ+wEchBPx4Xg2FB7+8qPesKwr5lX9tcnJL/lmHYxo63TK+4K6gxiY2GjiweeCQVTqJzVNXXil4lJqDS56cSo6MWMLXMGeOiK5YKQ6NjIt0gIZi1/4QbPDhyVfMdSHgwzVUnmQEH5Mwh5ONL/voJ9540w033D7dL1KEAdc1nr4tf9w5RzQvLWKv7MtUy6Ffc5SoWU3VwIGyHXK4kZreuO+Haj213O8DPhy+AD6eAh8+gu9QNPjIBeWQGNvVvfL0ntyzsx+5Ep6dO++/cF5iwQ9dZZ69rFmv2EmkWo6fTWuzOjl1gYZgH3fjjdZRrYoP+Cj2LfD2OvjwFu9ipYGPmQjRKLcDDXv/vqfnnB/NvDrzjCstkRNFx+RE0aaZt1d+xj4yx3TR4WipHfWU22+3Dmm4NX1qJYEPs5gEH+CjUgS8el7JiaXjcmKpq4dh0UXLdm/fcKMu0aGmNfrHolQtokO+0oRV8pdS34FDOXOMrJNV+gd8mEUc+AAfKhDw6nlFOkF64cbnosLTnGj7sBtDpeahfyqqslKiPh2Tm9ecYiN/d952m0gGQ2LXgdFs/5RT3mo4Bz7MYgl8gA+VCHj1vHKrFwWFZ9fW9d9qDIbCKgFgW1zTIUBMHEjAfhba0lBvmtQ6IdcMp3lH1ZzAh1nsgQ/woRoBL55XpBekG8V8Lyg8Len2S4sZKOc6/VPRLzoSHW6yKseOCffwPCOa7Lpl34gJLpXsA/goGTKtN4APrfCWbBx8lAaZG92YVXh2bH3w+sZAyPU8n1JcIyIp0UO72hO1n1JTIaWhsVh2tYVqigt8mMUW+AAfuhDw4nlFukH6USiGWYWnOaWnb4drBdRERTWeWkhE5mSTm8gOlqiWuMCHWUyBD/ChGwEvnlfF9MNReGjeTnOwQfm6MNQcRbN9KdVCbcf+BeF4BuXKBtSMWA0JfJjFEvgAH14hoPt5RfpBOjJbPI7C0zjR+oXZbqjkPHfA02gwUt1aShQPxZUQASmu8aoIDXyYRRP4AB9eIeDF86qQjswQno0b72xtyjQt0QEA1wSqdRRbMUw4LqrVcazF7vHzOvvIfvvpi46yOS7woQPd0m2Cj9Ix03mHbj5IR0hPnGKYITztLZ3fCc0463Rraee4w5T6QmqttsNIUFzcb2V6rQd8MGtmbMGHGTywF+CDkSh/SzpCeuJkYYbERJItr3PKWOk5/nVNbw6t5cS/IuLJlNFhgg+z6AEf4MMPBHQ/r2bTkxzh2bnz3kXNgYirtXZKBYn/sTjQUu+vlvxc4xmPmd3PAz7M+kaBD/DhBwK6n1ekJ6Qr+bHlCE8o2Xizq1VD860UOeaRbBxkkexVfZmb2xIiaGw/D/gw6ysGPsCHXwjofl6RnpCu5MeXIzyRdNPa/AwqjodjSctMrdd2GCuO09R+HvDBTJmxBR9m8MBegA9GQs3WSVdyhKcxE5mjpqhcK8OxCetEPdR4KFCOk+PORcP/I/aL/fTfI70ecJwct97SSrfOfrGfpVuorjs4To7bNO/ZL/bTNP9U+8Nxctyq7TvpSlZ4dmy75+OhoI6GNpFdRqZWR7PlE8Vx0oRAExP7xX6a6KNKnzhOjlulbRW22C/2U4VNk21wnBy3ab6yX+ynaf6p9ofj5LhV2yddIX2x280KTyTd8g77BexXhkC8v98yoIvMyryrv7vBh1mcg4/64iNfX7LCE05HV+iAgkfrcHVORxkm2pz+FWHWsGrwAT5M+H/B/4cJLEz7oJuPfH3JCk9jQP3abNNhYQ8IAAEgAATqFYF8fbGEZ+e2B/4hpKd7JzukuN5qPNNNCfiFbcI/G/gwgYVpH8DHNBYm7Onmg/TFvmioJTxBEX6rCcHXkg/TVVczBxjUEtZuYgEfblDyLg/48A5rNyV5wUcw1XAB+2IJTzgdOZFPqN42hidb86Ld3apNG22P4+X4TXGW/WH/TPFLtx8cL8evuzy39tkf9s/tfdWej+Pl+E2Jh/1h/0zxS7cfHC/Hr6M8u85YqhBKN9SXKuhAFTaBABAAAkBgVgTsOmMJT4NoaJw1d4UX2qIRy0L78cdXaKm6bud4OX5TvGd/2D9T/NLtB8fL8esuz6199of9c3tftefjeDl+U+Jhf9g/U/zS7QfHy/HrKM+uM5M1noBcWAwJCAABIAAEgIAmBOQAg6zOBLfsuu8lmhYssNznNsPGri5N4ZhpluPl+E3xkv1h/0zxS7cfHC/Hr7s8t/bZH/bP7X3Vno/j5fhNiYf9Yf9M8Uu3Hxwvx6+jPNIZ0huyHQynQ2t1FGK3ycFwdc5+DfveIwA+vMe8UIngoxA63l8DH/owZ70JBjPicH3FTFpuDId0F2GU/d5LLrH8WdAaNcovdgZ8MBJmbMGHGTywF+CDkVC/Zb0JBtOhXvXmcy0uaJ0cu9D9mtfkXqjRIx6a2BYNGxkh+DCLFvABPvxEwMvnFetNMChCnbqD5pES9dLU1rlunQUpx60b31Lts1/go1Tk9OQHH3pwLdcq+CgXueL3sd7Imk+gqXj2ynJQm2lbtEFQB1atP+y6zj3XAsuKd2rybGXoqb8bfKjHtBKL4KMS9NTfCz7UY8oWWW+CgXRgcqINX9G0rZfmhI4TTrAQ5Hg1wVmxWfav1ps/wUfFXxWlBsCHUjgrNuY1H6w3QREQngiPvfrKbYoVo2agAdOb2Rgy8MFImLEFH2bwwF6AD0ZC8XZKb+TQ6oAnQ87s1Vce9aU4JN/NHXHNNZYPNJqN4jU5gQ+z2AEf4MNrBPx4XrHeyD6ejKYXIsyEceX8OdZJ6ueptb4eqsVxbYebsWYiYNYZ8AE+vEIA/x9eIe2uHL/4YL3x9Gc5/aqzagNykEGt9S2svvpqi3GKjwYWVEMCH2axBD7Ah1cI+P288lR4CNQlHc0WtlQ7qJVaj70Gx/F59QWqtBz2F3xUiqSa+8GHGhxVWQEfqpDMteO58NCvOiazVvp6OA6Ki+KrpgQ+zGILfIAP3QiY8Lzy5SnJne9UU+AOLt1g67J/3I03WjU3+wNDV1m67IIPXciWZxd8lIebrrvAh3pkfREeekgf3d1hRUNNPKzA6sPTa5Emi3JzIXfU6y1Rj3XwoQfXcq2Cj3KR03Mf+FCPqy/CQ2FMktluRdQl13DjGf/qQ9RjkQSHO+iO7m6vmgEFs6EBPmZDxp/z4MMf3GcrFXzMhkx5530THnKXRn9Z/SKdnVatp1omlpLoUBMbpZXzW6tedKxA5B/wwUiYsQUfZvDAXoAPRqLybeiqj77nikYRmWz3qtxeyRaIzHgyLeKRqJh/5pkiOTIiRrdsKdmOVzfYRYd8Xzav1auiPSkHfHgCs+tCwIdrqDzJCD4qgzkuEkM3fOXbX/JdeCiMlkhYpNIZS3xaV60S4dZWMfTkk5VFqOFuag48+tprLcv0BaQmtlpM4MMsVsEH+CgHAROfVyw8gT1b/rC9TbRofyePG+B2D44J+lAauPdesem669zc5kkeHr1GhVHzIA8J96RwnwoBHz4BP0ux4GMWYHw6DT5KB35YjO5YuPKMZUYJD4UxHEuIZ/uGrIio1rPj1lt9rf1Q0xqNuqMtpVoYSGAF4vIP+HAJlEfZwIdHQLssBny4BGoqm7HCQ/5Rn8+zfYPWlo6p9tP36197KkA00IEEh9dfo6Y1quXQtt4S+DCLcfABPvIRqJbnldHCQ6DSP9fekVi26S3e328JD9WAYn19+bgrOyYCqW205+KLszbrpWktG7DDDvhwAMXHU+DDR/AdigYfDqA4nDJeeNhnIpTaUkmEKLEAqa4BkdjQS5G4hkNl0YxlGi6NNI0A+JjGwoQ98GECC9M+gI9pLJz2qkZ42HkidMu+Q1YfUPbcVC2IRIhSKSPhqGZD/TYkONx/w3apOY1WIqBJY0jOCIAPZ1z8Ogs+/ELeuVzw4YxL1QkPh0GEDscmZA0oniNC2etSjCixCHGzHIsLbzk/b0lsuB+Hz2FbHAHwURwjL3OADy/RLl4W+MjFqGqFxx6GndR4MpUdjGDPM9s+1Wbo9bZt0bDVpDZbPpx3jwD4cI+VFznBhxcouy8DfMhRy1PDqcPuYTMvJ4kH9cPQhxORS4lqRZT4mEej8da6iD9KEQAfSuGs2Bj4qBhCpQbAxzScVS0802FM7xG5lOxiNH0Ve14jAD68RrxweeCjMD5eX61XPtB77vU3DeUBASAABOocAQhPnX8BED4QAAJAwGsEIDxeI47ygAAQAAJ1jgCEp86/AAgfCAABIOA1AhAerxFHeUAACACBOkcAwlPnXwCEDwSAABDwGgEIj9eIozwgAASAQJ0jAOGp8y8AwgcCQAAIeI0AhMdrxFEeEAACQKDOEYDw1PkXAOEDASAABLxGwL8lczJJkUofEunUqIw5KTLyWMhPRkyuteY1ECgPCAABIFCLCASErF8EwiIgP0KERTDUIkLBOdY5v+L1RngyGZFKDYpUckAkUwNSbIZFJj35Yje/Ake5QAAIAIF6RiAQjEoRahPhUKcIheUn1CHFKOAJJFqFJ5ncJ5KJnSIxsVvWZhKeBIRCgAAQAAJAoDgC9OM/RZ/EwGTmQINoiCwR4YYeEQ7PL26gghzKhSeTSUmh2SoS8edFOj1WgWu4FQgAASAABDxDQFYOEvFt1icYbBYNjYdLIVohK0Eh5S4oE56M7KdJxJ4XE/HnZH/N5LtwlHsLg0AACAABIKAdAao0xMefEhOxv4lI4yrRED1cBGT/kKqkxBI1pZGTmcy4Kr9gBwgAASAABHxGgCoR8dhGWaHYKhqbjrOa4lS4VJHwpKXQxMYek22E/Sp8gQ0gAASAABAwEAGqVMTGHhGJxHYRbT5JBANNFXlZ9jyeZKJPjA0/ANGpCH7cDASAABCoHgSokkHPfXr+V5LKEp547BkxPvoH2bQWr6Rs3AsEgAAQAAJVhgA99+n5TzpQbiqxqS0txsceFcmJXeWWh/uAABAAAkCg6hHIyIEHm6yRy03NJ8toSqvDuM5NKwuMSZWD6FT9NwYBAAEgAASUIEB6QLpgrTxTgkWXwkM1nYfRn1MCsMgKBIAAEKgHBKjfh/RBlLDcmSvhoeY1jFyrh68QYgQCQAAIlI7ApPg86vrGosITH38GzWuu4URGIAAEgEB9IkDNbm4HHBQUHhoyNxHfXJ8oImogAASAABAoCYGJ2GZXQ61nFZ7JyaFUdcqUVDAyAwEgAASAQL0ikJETTR8VpB+F0qzCQysSYJ5OIehwDQgAASAABPIRIN0g/SiUHIWH1l7DYIJCsOEaEAACQAAIzIYA6Yf1OpxZMswQHlplmhb8RAICQAAIAAEgUC4C1sLRUk+c0gzhoVcbYJVpJ6hwDggAASAABNwiQDpCeuKUcoSHXuJG79NBAgJAAAgAASBQKQKT72dLzTCTIzz05lC8xG0GRjgBBIAAEAACZSBAekK6kp9yhUe+rhoJCAABIAAEgIAqBBIOupIVnmRyn7XSqKrCYAcIAAEgAASAAL1Gm/TFnrKvRUgmdtrPV+1+Ih21fB9NdlhbOm4IxuRnckJTJBi3jqs2wCpzHHyYRRj4AB9+IED6Eg7PzxY9KTyZTMEx19nchu3QPxEJDH0GJ7pK8o7EqCU8JDoie6xtSTcjsyMC4MMRFt9Ogg/foHcsuJ75oDk90eiJQgQmobGEJ5UalCvjJBzBMu0kk3dQCs3YVK3G7mO8v986HHrySWsb6+sT0e5u0dg1KUy8T3YGJ+jTJUKyKtgYmRBUG4IQ2dEsvg8+imPkZQ7w4SXaxcsCH1MYSX2xdCYcsU5MCk9yoDiCPucYTbZLkVg4o2YzcO+9gsRlx623luQhCVD78ceLrnPPtbZjyWYxJi2QEHVE+iFARdAEH0UA8vgy+PAY8CLFgY+ZAKVIZ8JLrAuBPVv+sD08+pfeVMJM8aFfDAOxZTmCQ2Iz+MQTov+ee2ZGV8aZfBEiE1QLmhM9JDqj29EnZMMUfNjAMGAXfBhAgs0F8GEDI2831NApki0v3bFw5RnLLOEJDm/ozaRjedn8P9wrBWcg1pt1hARn03XXZY917JAIUS2o5+KLLfNhMS5aI8NicfPfdBRXVTbBh1l0gQ/wUU3Pq0AwKtJta6aE57mHdgaGH1hqEoVUTX1h7EhBvx4oUX/N5uuvt5rUvPKTCO295BLRuW6dVSQNRiDxoQEJ9ZbAh1mMgw/wkY9AtTyvMm1n71q46qyeQN/mu18Uhx5emB+IX8f0T7V95ASreBIc6rvhgQJ++ESErr76aqsfiGo/Xc07Zf9Pnx+u+FIm+PAF9lkLBR+zQuPLBfBRIuxzTtvTvfq8RaGPXfamawKJ/pYSb9eSfXCiW+waPdayTWLz1JVXCh6lpqVAF0aTIyOW8DXMmSOaVh4pxmJNIhOMyJqPHAlY4wl8mEUw+AAfxRAw/XmVCc+L3fC1Oz8f2PPsD/YFxv96WLGAdF/fNnJ8dng0NaupGjig0m9qeuO+Hxr5Vsv9PuBD5Tenclvgo3IMVVoAH+WhmWk6Zv/Coy+cH9iz8fb9gdimeeWZUXOXnUSq5fjZtFYsIhqCfdyNN1rZalV8wEexb4G318GHt3gXKw18FENo9uuZ6BEHFh5z0WHBQCaZXa9t9uz6rtDIHJ4IarroEAokin++6CILEJrzQ/7XUgIfZrEJPsBHJQiY9rxivQlmAumpRQwqCa+8e6ljjodLV4PocJQ0YZX8pbR/dL6cY9TNl6p6Cz7Mog98gA8VCJj0vGK98a22Yx8NQn06JjevOZFP/u687TaRCrWI/rEeuV5cu1O2qjkHPsyiCnyAD5UImPa88k14aDUCSgSIiQMJLOeK/KGh3jSpNSmarHlHRbIbfXlgfJnlH/gwgybwYQYP7AX4YCTUbH0RHm63poccN1mpCcd7KzzPiCa70qTXakwWH6kO60cA+PCfQfDhPwd2D8CHHQ01+74ID/frlLqwp5qQ1Vqh9lNqKqQ0MtGWXW1BbSl6rYEPvfiWah18lIqY3vzgQz2+ngsP1wqoiYpqPLWQSHy4yY2bEKslLvBhFlPgA3zoRsCE51X2DaS6gyX71BzFL2zTUduJzpsnTrnsMtEt59octnq1aJHv4Bnfv18M7dolnv/Vr8TTd9whxvbu1RIqxUPruh2KzRGjkfaqWNNNNx9OQL/6858Xx08twHqfXIroyRJfZ+Fk0+kc+JiJyuLTThOrXvtaMW/VKnGY/LQtWSJG5f/Dvr/9TezftEns/P3vxZZf/3rmjQrOgI+ZIPaedZY44o1vFPOPPFIcdsQRIhyNikMvvigObtkinr3rLrH5F78QqXh85o0KzvjNh6fCs3vsCAsyGg1GqqsynX7VVeKV//zPItox+cprtt0qxWfB0UeLw+WK02f967+KO173OrH7j3/ky8q2FA/FRSsb0HuDqmExUZ18OAG79MwzxelyGHogOFnRbunsdMqm5Bz4mIaxY/lycY5c1f2Yt71t+uTUXiutxv6Sl2TPPy+F5+4Pf1gcfP757DkVO+BjGsW5K1eKdV/4gjjy/POnT07ttS1eLBafcoo49u//3hKhn733vdaP5hkZKzzhNx+eNrXxRFHVo9jW/Nu/iXXyl3S+6ORz0zR3rnjnffeJFVMrTudfr/SY46JaXTUMr9bFhxOO8486Slz4k59kRccpj+pz4EOIrhNOEJc/+6yj6DjhffhrXiMue+YZsVL+UFOdwIcQ7b294r0PP+woOvl4z1m0SFx0993iVPlDQEfykw/PhIdGhlCivhBSW1XpuHe+U5z1qU/lmEuMj4utDzwgHv/Od0SffGFcJpPJXo+0tIi3//znonfNmuw5VTsUF/dbUa3H5KSLD6eY58sa58WSj5YFC5wuaztX73w0yO/6W3/4Q6sJxw7yiPyePvvjH4uHv/QlsfHOO61f1vbr4cZGcf53vyua5s+3n654v975CDc1iQv/539Ecx6uB2TT2mPf+pb44xe/KLbef/8MnM+V56lZTnXykw/PmtpGpiZY0ptDVaVgJCLO/uxnc8wNbt8uvid/rR3YvDl7fvnZZ4u//9//FSQ6lELyvld84hNix4YN1rHKP/QrgtZzm0g3qjSr3JYOPvKdDITD4gzZBLpGNnFS+7UfqZ75eLUcbTlf9h1woh9gj3zlK+JB2SSdGB3l0yLc3CzWfPrT4uX/9/9mz1ET3OtuukncdcEF2XMqduqZj9P+8R/FwhNPzIHxN//xH+Kha68V6YmJ7Hl6Xr3lBz/I/lALhkKCWnVu1fBj2S8+PKvx6GjWOV7WdqhNlNP4wYPi2y9/eY7o0LVt8tf2beecI5Kx6besrpDH8+QABNWJazzxiYhq00rt6eDD7mCXFN/3PfKIOEf+MPBLdMifeubjqLe8xU6J+Iv8VX3PFVfkiA5lSI6NifvlQI8/fe1rOflXv/71IiAfeipTPfNx7IUX5kD5jKyNrv+Xf8kRHcpAz6ufv//9OXmXyRpP+7JlOedUHPjFhyfCw2uZcZAqACMbJ+WR80e5avSIHBXilF6Q7aqPffOb2UuBQECc8qEPZY9V7XD1NRVsNrafRxcfhGGwoUGs/cxnxPsffVQsfOlLVcFatp165eMwOVKKBtZwig0NifuuuYYPHbf3yRrPhK0m1CCbhqhvTmWqZz66jjsuCyXVPu+ZWu8xe9K2s+mnPxVDO3fazghr9FvOCQUHfvHhifCMJidHmlG1TlUKyaab7rxq61Pf+15B89TnY08nvOtdgpqDVCeO09R+Hh18MIbzDj/cGl0YzMN1v2z6/KscXOBHqkc+6BeyPe35y19EfHDQfmrGflL2je7duDHnvP1hmXOhgoN65KND1laGX3ghi1rf44+LkT17ssdOO6MDAzmndfWR+sGHR8IzuYCmyhoP/ZoOyV/XnA7I4Z9DO3bwoeO2/6mnxPiBA9lrNAqOHpSqE8dp6sg29ov9VB1/vr0nZEf1NyRf9PDzI3GcHLcfPhQqk/1iPwvldXuN5oM886MfiR2//a04uHWreOFPf3J1Kw1IsKd0ImE/VLLPcXLcSowqNMJ+sZ8qTNP8qC/KeVPXHXaY+O6aNeLnH/hAYbNyygHN77GnQ0WEyp63lH2Ok+Mu5d5y86r/ue/gCU1UpETVOlWJxrrbE41eK5pk9bb/6aeF/dcgzfHZLyfQqUwcJ8et0rYKW+wX+6nCppMNGqFDHac75cPPz8Rxctx++uJUNvvFfjrlKfXcZjlykz6lpGY56jD/YfeibDJVnThOjlu1/UrtsV/sZ6X27PfH5A/fHQ89ZD/luH+6HIgQaW3NXksnk2JAPrt0JI6T49ZRRr5NT2o8+YWqOKZVCeyJRrO5SfntpjpqPORHvL/fcsdLMt3ErzsPzYR//JZbxLfPOEN879Wv9l10ON565YPjd7OlkVM0gorT2L59YnDbNj5UugUfznDSCMOXy744WuHDnqj2Ojr1TLGfV7XvNR/aazxcfePqnCqgGtvackzlC0rORdvB8O7dtiOR86si50KFB/QrolGKIw2rbghOj6ar0GzFt+vigx0blw+rn7373XxozLZe+XBLQLdsCs0frLPtwQfd3l5yPvAxDdmRb3qTVdOkFQ1oNYNm2RxnTzTPhwZ+6Exe86FdeHSBFW3PffHaxMiIq6Ls8xfoBp7b4+pmZAICNYgALalz0S9/mVPbSadSYsOnP12D0ZoXEtVu5knRcUq75Wjc/5bDsIsNRHC61+Rz2pvaxpJzrfh113jsc3QKAZ6fL78ztdC9pVybrro2lXKb9ry6+NDueIUFgA9nAJvlennvlKuJ0IRRe/rNv/+72PfXv9pPKd0HH1NwykEE7T09s2JLfdBnfOxjglY90Jm85kO78OgCK5Y3NLQpr3o6W7n0S86e8of92q9Vsk9VV0r11sdTCWY67wUfM9Ftkw+8d61fP2Nk52ZZ+6FBIToT+JhEl1pcqBWGnmcDcig7LfdlT9Sl8LKPfMRacopW39eVvOZDu/Bw/0Y07xdVpQBG5szJMRGTqxa4SbQOlT25baKz3+Nmn+Pl+N3c40Ue9of986JME8rgeDl+E3wiH9gf9s8rv2jxUFqskn5R2xP16/w3rWJtW9/Qfl3VPsfL8auyW6kd9of9q9ResfsnDh0SNy5dKq6TCxjffOyx4j/lSLbvrl0r9snXVNjT0tNPF6/98pftp5Tuc7wcv1LjDsa0C49DmUpOEWH25HZZlvx8cTmjGwkI1BMCtPL0u+UQ9zkLcxey3SZrP3e84Q2CJpIieYdAwt4/nU5ba0h+Xf4w2Pm73+U48ZK3v13QihS1kLQLT0t4crY0LZypMuXXVJpcVkPz88WHh1W6lbXF8XL82Qs+77A/7J/P7nhWPMfL8XtWcJGC2B/2r0j2ii+f+J73iLfLF4zZ54iQ0Y3//d/idvmSOFq3zYvE8XL8XpTppgz2h/1zc4+OPCm5ruRPL700p+mN3mO1Wr5PTEfieDl+HWXYbWoXHnthKvdH8sa0F+qgs5ebn4/WsEICAvWAAK2h98b/+i+R369JaxzeJUdO6XrbZT1gqyNGehnf9g0bckzTkOtaSNqFh9sMaU6LyrRXvtzKnuauWGE/nHU/Px+98ldH4ng5fh1llGOT/WH/yrFRjfdwvBy/KTGwP+yfDr9ohenz5dtx6Q299pSRzTq/+uhHxb1y1JTuPh17ubTP8XL8+df9OmZ/2D/VftAgKJoz1Zg3HWS2cvKfT+2yP0hH4ng5fh1l2G1qFx4qjIPh6pzdgXL38xczXCLfJy9kVbRQIrIXHHNMNgstQ/HiY49lj+tlRwcf9YKdjji18iFXYX/jt78t6BUi9kSrUP9QTlz8k3w/D1IuAjr4eOUnPymukSPXrpYTrD8gnzknf/CDuYXOcuRV18AsxWs7XfhJrahYJlKROcvM/ueeE2P792dNEkH567dlL07trJBLuNiXBKF123S0afdecolVYkdkctmcfD/8PtbBh98xFSq/nvmgt1eeMPV9ZIzoDaS3vPKVYvPPfsanPN3WIx8hOZrWPumdVisomuSPhkV5a1LShFLVyQ8+PBGeuVMP4G75PndVKSNrK3+Tr5G1J1rjaNYkSXy5fNmVPW2RE+d0JB6a6FVHXakx6OCjVB+8zF+vfNDD7TTZlGZPtKbhd848U/T5tFI4+VKPfOQ/axafeqpYItczLJRoCaMFee9D2vWHPxS6paxrfvDhifDwA1hlUxsh/PQdd+QAfZT8R1vjNPFNNsG9Qb590V4jSsbj4hFN4+I7162z/OK4c5w04ID9Us2HAaE5ulCPfETkxEP6ztsTjeCk18IflGt/+ZnqkY/df/yjiNumgNCLKN9y++0iKufvOCUSpfyFQun1Fn1PPumUvaJzfvDhyVpt1LTTTMOq5QADetipWj5nu5x38Lx8z8XhtprUWbItleYn0NtGqSmNxOY0+brfo9785hxynpSdrTrWP+qS/9iUKF5Tm7R08ZEDsCEH9crHqZdfPmOxSZoF/za5ynEpaf2nPlXy6xUK2a9XPui9RvfJFpfX33xzFh56Odxlzzwj7r3qKvHcr34laIrI/COOEPSCytPl20lp+DQn6o/+sZzHQy09KpNffHgiPAQUNe+MyTeRUnObKuEhu7+Sy0m895FHRJPtl8NL3/teQZ/ZEi1NQV8CHalDTvyixM1ZOspQYVMXHyp8U2mjXvl4yUUXOcLYPfX9dLzocJIWEFWZ6pUPwvCxr39d9L7iFYImgnKas2iReMtUyw29DptqQk6JfgC8IJ9zqpNffExLquqI8uzZm3e4TTEvS1mHB+Qgg2+efLKgt4u6SUO7dlkT5Yq9BtiNLac8flRbnfwodk4XH8XK9fp6PfIRlG/mPWz1aq+hdlVePfJhB4bePPr0D35gP5XddxKdcbkU2M/e9z7xu899LptP5Y5ffHgmPNy8Q+PFeRSFKgAHZdvnf8m1jP4ih40SUU6Jho/Swoc3yeHUw1J8dKQjpgY30Gg2U5vZOG6dfHAZ+VviwJ7yV5+wX1OxX6985K9KUAmWKjmqVz7s+NPyOD+RNR5aj21ANrPNlmgVferD/pocXPC4nPSrY56Vn3wE9my8ZTAQ29Y+GwAqz9NKzZuHX2a9nXPTddcpbXKz+9khJ5MuOukk0d7bK+jd8/s3bxb75Outc9ZEst+gYJ9qcafIzkJKy1qfEC1h81dE8IoPBfCWbAJ8lAyZ1hvAhzO89LpxWqh1vhQYEhtaO5K6AmgASCZvJX1nC+Wd9YuPTHT50MJjLu3wrI+H4KFf2VQbGJS1HtV9PXb4qQZEHy/T6qk+I4qvGkSHsPGKDy954LLAByNhxhZ8OPMwJl8Vv+Ohh6yPcw49Z/3mw7OmNoavM7rd2qW2xVoZzktxcCwcH8dr+pb9BR9mMAU+zOCBvQAfjITarefCQ7+yO6M7rChU9/Wohca9NY6D4qL4qimBD7PYAh/gQzcCJjyvPBceArUj0mc9oKmWwB1cusHWZf84ubIvxUEPjAVTtTldZemyCz50IVueXfBRHm667gIf6pH1RXjoIb28dXIGLjXxsAKrD0+vRZp8xU1si5v/prcwjdbBh0ZwyzANPsoATeMt4EM9uL4ID4VBZNLoL0pdclIpz6C1TlTBHxIc7qCrllFshWAFH4XQ8f4a+PAe80Ilgo9C6JR+zTfhIVdp9Bf1izR2dlq1HhriVw2JRIea2Cgtbt5UNaPYimELPooh5O118OEt3sVKAx/FEHJ/PXTV5ef/UyA5GHV/i9qcNIM+kW4SyaYuMV+umpuUE6xGfV7EsFCEdtGh9dgWNvm74GIhX8u5Bj7KQU3fPeBDH7blWAYf5aBmuyc8N37DTf/7Od+Fh1xqCo2IVKbBEp/WVatEuLVV2+RSGwQl71Jz4NFTq1+T6HA/VcmGDL8BfJhFEPgAH+UgYOTzakp4PF25oBh4e2PLxECs18o2IN+VQ6sbmJJ49Br5Q82D1TqCrRQ8wUcpaOnPCz70Y1xKCeCjFLQm8/LKBUYJD7k2mmwX20cmV3imVax33Hqrr7UfalqjUXe0pVQLAwmsQFz+AR8ugfIoG/jwCGiXxYAPl0BNZTNWeMg/WkNs28jx1paOqfbTJ9+7o/J1CmS3UKKBDiQ4vHorNa3RLGbqYKy3ZCQfIclHE/ig76IR/x/gw6znlaF8GC089M9ED7vBie5s01u8v98SHqoBxeQ743UlEhxqG+25+OJsEfXStJYN2GEHfDiA4uMp8OEj+A5Fgw8HUBxOGS887DMROiD7fgYnuqxTLECqa0AkNvRSJK7hUGG04Gc1TwxlDFVuwYdKNCu3BT4qx1ClBfBRGM2qER4OgwjdPXaE9RZTPmcXITpXSlMc1Wyo34YEh/tv2C41qy1p3lR1666x/15swYcXKLsvA3y4x8qLnODDGeWqEx4Ogwgdla/QPihrQPQq7fxEYkSJRYib5VhceJt/H4lNq+y/qYfRavmxV3IMPipBT/294EM9ppVYBB+56FWt8NjDsJNK+/Rxm2gJDBooQBPCaBFApMoRAB+VY6jSAvhQiWbltsCHfJGqHy+Cq5y6XAskHiQaduFg8aFaESU+bg4ftI7rcVSaFbgHf8CHByCXUAT4KAEsD7KCj2mQPX0D6XSx+vaIXEp2MdJXGiwXQwB8FEPI2+vgw1u8i5VWr3z4ukhoMVJwHQgAASAABGoPAQhP7XGKiIAAEAACRiMA4TGaHjgHBIAAEKg9BCA8tccpIgICQAAIGI0AhMdoeuAcEAACQKD2EIDw1B6niAgIAAEgYDQCEB6j6YFzQAAIAIHaQwDCU3ucIiIgAASAgNEIQHiMpgfOAQEgAARqDwEIT+1xioiAABAAAkYjAOExmh44BwSAABCoPQQgPLXHKSICAkAACBiNAITHaHrgHBAAAkCg9hCA8NQep4gICAABIGA0AhAeo+mBc0AACACB2kMAwlN7nCIiIAAEgIDRCEB4jKYHzgEBIAAEag8BCE/tcYqIgAAQAAJGIwDhMZoeOAcEgAAQqD0EIDy1xykiAgJAAAgYjQCEx2h64BwQAAJAoPYQgPDUHqeICAgAASBgNAIQHqPpgXNAAAgAgdpDAMJTe5wiIiAABICA0QhAeIymB84BASAABGoPAQhP7XGKiIAAEAACRiMA4TGaHjgHBIAAEKg9BCA8tccpIgICQAAIGI0AhMdoeuAcEAACQKD2EIDw1B6niAgIAAEgYDQCEB6j6YFzQAAIAIHaQwDCU3ucIiIgAASAgNEIQHiMpgfOAQEgAARqDwEIT+1xioiAABAAAkYjEDbauzKcS6Sj1l2jyQ5rS8cNwZj8jFvHkWDcOi7DNG4pAwHwUQZoGm8BHxrBLcN0vfJR1cJDpJHA0Gdwoqsk2kmMWsJDoiOyx9qWdDMyOyIAPhxh8e0k+PANeseCwcc0LFUnPEzeQSk0Y1O1mulwhIj391uHQ08+aW1jfX0i2t0tGrsmhYn3yc7gBH26RCg9JhojE4JqQxAiO5rF98FHcYy8zAE+vES7eFngwxmjqhGe0WS7FImFM2o2A/feK0hcdtx6q3OEs5wlAWo//njRde651nYs2SzGZF4Soo5IPwRoFtz4NPhgJMzYgg8zeGAvwAcj4bwN7Nl4y2Agtq3d+bL/Z+kXw0BsWY7gkNgMPvGE6L/nHiUO5osQGaVa0JzoIdEZ3Y4+IRvK4MMGhgG74MMAEmwugA8bGA67mejyoYXHXNphtPDslYIzEOvNuk+Cs+m667LHOnZIhKgW1HPxxZb5sBgXrZFhsbj5bzqKqyqb4MMsusAH+Ki255XRwkPV1BfGjhT064ES9ddsvv56q0nNq68aEdp7ySWic906q0gajEDiQwMS6i2BD7MYBx/gIx+BanleGSs89E+1feQEC1cSHOq74YEC+WB7cUyErr76aqsfiGo/Xc07Zf9PnxdFG1EG+DCChqwT4CMLhRE74KM0Glh4Qlddfv4/BZKDk1WL0mwozz040S12jR5r2SWxeerKK7Oj1JQX5tJgcmTEEr6GOXNE08ojxVisSWSCEVnzGXRpoXqzgQ+zuAMf4KMYAsY/r8Jz4zfc9L+fM6aPZ9vI8dnh0dSspmrgQDGiSrlOTW/c90Mj32q53wd8lPLN0J8XfOjHuJQSwEcpaE3n5RqPEcJjJ5FqOX42rU1D5LxHQ7CPu/FG62Ktig/4cOber7Pgwy/kncsFH864uDnLwuP7Wm00MocngpouOgQsieKfL7rIwpjm/JD/tZTAh1lsgg/wUQkCpj6vfBUe6pjj4dLVIDr8BaAJq+Qvpf2j8+Uco26+VNVb8GEWfeADfKhAwMTnlW/CYx8NQn06JjevOZFP/u687TaRCrWI/rEeuV6csXNwndyfcQ58zIDE1xPgw1f4ZxQOPmZAUtEJ34RnYHyZ5Tg9wE0cSOAGVRrqTZNak6LJmnfk5h5T84APs5gBH+BDNQImPa98ER6r3TrVYdVyuMlKNche2eN5RjTZlSa9VmMCH2axBj7Ahy4ETHle+SI83K9DIFR7ovZTaiqkNDLRll1toZriAh9msQU+wIcuBEx5XnkuPFwroCaqauvXme3LQGRykxstaFpNCXyYxRb4AB+6ETDheeXpaxGoOYpf2OZlbWfdDTeIZWvWWHwO794tfvh3f6ecW4qH1nU7FJsjRiPtVbGmmy4+lr785WLhSSeVjPGLjz4qdv/hDyXf53QD+HBAJRgUS047TSw6+WSxSPJD28b2dnFwyxaxb9MmsUti/9T3vicyqZTDzZWdqnc+Oo87Tqw455zKQJR3Dzz9tNh6330V2/GbD0+FZ/fYERZgNBqMVNeLdOSb3yxOnxr6TOW1906vdq2yfIqH4qKVDei9QdWwmKguPk674gpx9FvfWjK8T0r8VAkP+MiFPzp3rnjz7beLVa99be4FedS2eLHofeUrxUnve5/1v/Krj3xE7NiwYUa+Sk7UOx9HyefQmn/910ogtO597u67lQiP33x42tTGE0W9GsXWumiReMM3v1kx2W4NcFxUq6uG4dW6+Og+YXKRV7e46coHPiaR7ZJ8vP+xxxxFJx/7rpe8RFwsf1EvPfPM/EsVH4OPiiFUasBPPjwTHhqpQ4n6QkhttadAQJx/yy2i+bDDtBfFBVBc3G9FtR6Tky4+InIx1bkrVxoROvgQYv7RR4v3yCa0ucuX53Cy5/HHxcNf+pJ4TP4w2/vXv+ZcC4bD4m0/+pFo7uzMOV/pAfioFEEhkvF45UamLPjJh2dNbSNTEyzpzaFepJfJ5oKVU+/S8aI8LoN+RdB6bhPpRj5l5FYXH10y9oAUfU79Tz0lfv/5z/NhwS21X6tOdc2H5OH1N98sGpqasrCmk0nxs/e+VzxpG1EaCIXEKz7xCbHm058WAdkPRGmObC2gJtMH5XmVqV75oGbkA88/7xrKoOTk/O9+Nyd/fHhYPFAjfHgmPLqadXKYmTpYcMwx4pzPfc7pkvZzXOOJT0S0l1VJAbr4yG9m2yKbbZ7+/vcrcbWie+uZj9VveIPVd8MAZjIZcdc//IP461138SlrS4MJfvPv/y5aurrEqZdfnr226rzzlAtPvfIxuHWroI/btObaa3OyEnc/eec7xf6/qX0Tsl98eNLUxmuZcZA5iCo+CEYiVidqOBpVbNmdOa6+poLNxvbz6OQjX3j2yL4FP1M983HcO96RA/0zP/zhDNGxZ/jdZz8r6AHHqVvWXkmMVKZ65sMtjitf8xrxyn/5l5zsD/3bv4nNP/tZzjkVB37x4YnwjCY7LIy4M0sFYLPZOPs//kPQPwynZ/N+3fF5nVuO09R+Hp18LDzxxBxoaYi036ke+aC+ttWvf30W+rSs1RRrpjn0wgtWn8+zP/6xePQb3xAPyV/d4wcPZm2o2qlHPtxiR7z93Xe+k9NcvfuRR8RDskaqK/nBhydNbTzCS3eNZ9mrXiVO/9jHsvwMy3+kX152WVlDe7NGytjhODnuMkxovYX9Yj9VFRaQndLUzMmJ2qRLadfm+1RvOU6OW7X9Su2xX+xnpfbofpqjY+/boZrn0PbtRU3/8oMfLJqn0gwcJ8ddqT3V97Nf7Kdq+4XsUT/bnIXTA5PoB8MvPvABIdLpQrdVdI3j5LgrMubyZk+EhyYqUqJqna5E8xTeJDtMuWObmgx++q53afnFViwGjpPjLpbf6+vsF/upqvwFRx0lwo3Tgyr2/OUvQhIiel7xCtF57LHCui6bQAc2bhR9cpAJfeKD+l8hznFy3KriVWWH/WI/VdglvO1p6wMP2A+tiaPtPT2isa3Nmjw6vm9fznWdBxwnx62zrHJss1/sZzk2yrmHfrTRoCh7opGH/XIhZZ2J4+S4dZbFtj0RHi5M5/Z1cvRO25Il2SL+9NWvim333y/oV7gfKd7fLxpl+ziR2RCM+eGC52Xm9+90yCG8H5Kj2jpttSC7UzTC6jef+Yz4jWwezch9nane+OiU83HsaffDD1s/Aqjf5yT5C7pHri5hT0M7dwrK88A//7M4WMLoK7uNUvbrjQ832Jz3//6foKHsnIZ27RIbFEw6ZXuFtl7zob2Ph6tvXJ0rFHy5114i/5mOvfDC7O375MiP+//pn7LHfuzwrwjThlXr5KM7r3+nQ64SMZvoECf0T0ZNC++TbdiHHXmkVprqjQ/7jzAClloCLvrVr8SbaHWNPNGh61T7OeaCC8QH5fyeE979bjqlNdUbH8XAXH722dllvTjvg/JHQGJ0lA+1br3mQ7vwaEVLGm9ftky87mtfyxaTSiTET6QQJcfHs+ew4w0C+TUet6UufOlLxdt/8QsRts03cXsv8jkj0Cg7qe3pfNkMffi559pPOe5HWlvF333722KNHEWF5B0CL7/66pzCDsj1856+446cc7V0oF14xpJzLby01HjkZDf6BUft1JxoJI7fQ3jJF6q6UkqkpyfvWSd8/qOTDyfhoVFtv5YTEW+WIw0/I4Xl63L5FmrOScZymx/nydUO1mocuVNvfNDoKHuKysVAOY3I7+ajX/+6xctv//M/BY2ayk9nfvzjOQNF8q9XelxvfBTCi5Y0yp/sbg1t17BY62x+eM3HdIPibB4ZfP7Ma64RvbLjmhO1URNhJiSuunrZYedn3K1yJE6THOBhT5tlLebOt71NpGwiQx2l9PnrT35i1XJIcDjRTHlaHVlHZ2q98UE1F6f0t5/+VPxMLgaaM5hAzhk57R//UZwj/3dCch4cpVBDg3i9FKdb5OKhcnKPk6mKztUbH4XAyq/tUH8brXTgZfKaD+3Cwx3r0e5upTjSsvv25oAJ2RZKM3t1LOlejuMcL8dfjg0d97A/7J+qMsbkqKhvn3GGoAEFtC4YjSr8vXxB3myDBmgGNg0TvVgOAOFEy4RQW7cO4eF4OX4u0+8t+8P+KfPHQSzoh9mP3vKWmUNzZd6Hb7xRRFpaxFrbjPkeuVAoDVIYkANEVCeOl+NXbb9ce+wP+1euHbf3NS9YYPWt2fPTElNp2WXgZeJ4OX7dZWsXHh0BhJubrdUJ6FcZp3vl/B0vRuNwedjmIkD/KLv/+Efrk3tl9qNtcojvpp//XBwhl3bhlD8MmM9jWxoCEyMjOTdk5DyQn7///TNFx5aLHngnvuc9ggaFcFogFxnVITxsv963R77pTYJ+cHGiRUCp1l/rSbvwtIQn52nQwpmq0quvu07MP+KIrDmqmtJLrBbkzV2gDPbhiXRMna72fDRbO6ZhdjbHy/FT2SYk9of989sn+hVuFx5all9H4ng5fh1llGOT/WH/yrHhdE/80KGc0zSRt9girNQkukWuHk/v5eFEoxI38oHCLcfL8Ss0XZEp9of9q8iYi5vz31tF79uJDw25uFNtFo6X41drfaY17cIzs8jKz9BLq+yJhoLSfBE3idqwL7OtgvxnOf/nbrm6AZI/CBzMWzgxfxiwP15Vf6mxvIm5Y/v3uwrqwHPP5eQ7bPXqnGMcqEOgSb6yZfnatTkGa3kkmz1Q7aPauM2QJlOamHgZeNW+cbwcv2r75dpjf9i/cu0UvI+W1p9aXr9gPnkxvxOcljnSkThejl9HGeXYZH/Yv3JsON2zL+8dO/Zmaaf8fI6mI9gTLdmiI3G8HL+OMsqxyf6wf+XYcHvPEW98Y06LDC0xRQNy/EgcL8ev2wftwkMBcDBcndMdFOwXRkAHH6dfdZX40DPPiKvkUN1PTkyIs+UwXTfJ3mRK+Wnyb70lHXz022r1hCcNEqCV24sl+yhDyju8e3exW2ruug4+nEDKb7kh0bGPAHW6p1bOedLURkSqHFb8O9nHM3fFClccWLPj85adePCTn8zeu/O3v83uq9rpveQSy1RHZHIujyq7quyo5oP8ooUN7asU0LtcHiiyegS9gOzw1742JywdwlOPfFDfmT3RGno0UfeFvPP2PLS/5LTTck4NbtuWc6zioB75cMJt8ctelnP6RZ9eIeIHH54Iz1z5AKYXj3XL90yomEj6TAkzemmttjU24aG27t/K9cF0Jh6a6FVHXamxqBpm4qkAAB7USURBVOaDyqcXvp1+5ZVZV2iQQI/si9v5m99kz+XvnCL71uxiRdepc1t1qkc+aITnC3/+s1h8yilZOF/75S+L765ZM+uqHke99a3WqtZ8A42Eo1GHqlM98pGPYWNHh5ift0zUXrl4rh/JDz48aWrjB3C9NLV1Tr1ym+P248tUqEz2SyUfO6TA5L8P/s3yzaM0T8EpLT/nnBkrFdB7YF7805+csld0rh75IMAel+91safFp55qrfRBK4bnp3mrVolzb7gh5/T2DRvEIQ1NbfXKhx1c4oJX0ufzA7Kp2o/kBx+eCA817TTLYdXUgaXyYecHScXK7JpaD4vi5bbiYvd4fV0HH8mxMev1yfZY2pcuFZfJf6bj3/UuQSN4qPbZJYfVnyMnlr5T1mzsy7hQp7aOhV3rlQ/i4S/f+pbIb76h4bsXyJcjdstmNxKgFjmxmxYFfb9c2ohGh3KiQQX3y2VzVKd65sOO5bzDD7cfChqFSFM7vE5+8eFJUxuBqaN5x2uS3JTXIdddokTxmpx08EHrfi2VKx+vsvXbtHR2ivNvuaUoFPfIZjodE4DrmQ9axeN/Lr5YvEOuSm0XlaPe/GZBH2pKm21U5+9lP6qO2mc982H/J7C/7I3O+1Xb8YsPT2o8BKy9eYfbFOl8rSU/qq3lYKiFD7n0Cq0MXsqQUGqe++Xll4s/y3eR6Eh1zYcEdN+zz4pvyNrNc1J88tNsokOvWX5Qrt+mI9U7H4wprW1oT34Jj198eCY89uYdHkVhB17bvnwYJmQzEKf8pUT4vIrtEXLRUko0ms3UZjaOUxcfsQMHxA/kEjjflwNJ9sqH3myJVqemhUJvPu448ehNN82WraLz4GMSvnE5oOaO173OasqkUYNU03FK29avt3jb8KlPaVkYFHxMo56/piS9ldfr5CcfgT0bbxkMxLZNr5muMXoaUr15+GXWKwM2yaq8ihFuGt0tyTTV4k65/XbrnmWtT8ganvfLXpTksMzsBR/Ut3OYXN6IRvA0zZsnaDHRQy++aC1xlMhbT6xU/wvlBx+zo0OvTKCh1dTfRg/Awe3bxV454XQwbxWJ2S2UfgV8lI6Zzjv84iMTXT608JhLOzzr4yEQ6Vc21QYG5SADVUOrdZJTiu3VUy9yoviqQXS84oN+be+W6+jRx8sEPmZHe0Ku47bjoYesz+y51F4BH2rxrNSa33x41tTGQHVGt1u71LZYKyPcKA6OhePjeE3fsr/gwwymwIcZPLAX4IORULv1XHio1tMZ3WFF4Wlfj1rccqxxHBSX6X07OY7LA/CRj4i/x+DDX/zzSwcf+YioOfZceMjtjkif9cCjWgJ3cKkJx3srx8kXaFEc9AVdMFWb896LykoEH5Xhp/pu8KEa0crsgY/K8HO62xfhoYf08tYnLX+oiYdrDE4OmnyOJl9xE9vi5upd3BJ8mPUtAx/gQwcCJj2vfBEeApX+uWj0F6UuOfSWZ9BaJ6rgDwkOd9BVyyi2QrCCj0LoeH8NfHiPeaESwUchdEq/FgxkgpnSb1NzB43+on6RRjm7nWo9NMSvGhKJDjWxUVrcvKlqRrEVwxZ8FEPI2+vgw1u8i5UGPoohVPw6603oY5e/7epAcn9T8Vv05KAZ9Il0k0g2dYn5Z54pknJux+iWLXoKU2DVLjq0HtvCJnN9LSdc8FEOavruAR/6sC3HMvgoB7XpezINnWM33PST60NX/Z8LpfDsbZ6+5P1eU2hEpDINlvi0ylVyw62tRk4upebAo6+91gKIRIf7qbxHTG+J4EMvvqVaBx+lIqY3P/ioAN+G7rEbvnbX9YE9f71rIDD2lPPa9RXYL+fWvbFlYiDWa906IFcvptUNTEk8eo38oebBah3BVgqe4KMUtPTnBR/6MS6lBPBRClqTeTPNx+1deNRbOwN9m+9+URx6OHfFutLtKbtjNNkuto9MrvBMS+rsuPVWX2s/1LRG/U+0pVQLAwlKIQt8lIKW/rzgQz/GpZQAPkpBS+adc9qe7tXnLQrsee6hnYHhB5aWeLvW7LSG2LaR47Ovy6baT9+vf+2pANFABxIcXr21OTQoOpu218xAglIIBB+loKU/L/jQj3EpJYAP92hl2s7etXDVWT2BPVv+sD04vKE3k465v9uDnETm4ER3tukt3t9vCQ/VgGJ9fdo8IMGhvpwe+R4TTvXStMbxOm3BhxMq/p0DH/5h71Qy+HBCJfdcIBgV6bY1OxauPGOZJTzh0b/0phIDubkMOSJCB2Tfz+BEl+URC5DqGhCJDb0UiWs4VBgt+FnNE0N1UAg+dKBavk3wUT52Ou4EH7OjGmroFMmWl04LTzS2uzce8+d937O7mXuFCN09doQYS3ZkL9hFiE6W8poFqtlQvw0JDvffsGEasbakeZM1yZXPYZuLAPjIxcPvI/DhNwO55YOPXDzoqDF6rIhFl0wLT0tyonds5MGZOQ08Q4SOSvE5KGtAdhFiV0mMKLEIcbMciwtvOT9vSWxa5YTWehitxjGr2IIPFSiqswE+1GGpwhL4mEaxufVVYjQcmRaetkxz76Hhn8u3Diamc1XBnp1U2qeP20RLYNBMZJoQRosAIlWOAPioHEOVFsCHSjQrt1XXfAQaxJy2N4jhwJglPJMvggsERENkiUjEt1WOrocWSDxINOzCweJDtSJKfNwcPmgdk9gg6UEAfOjBtVyr4KNc5PTcV898kL4IqTOcsm8gDTf0VJ3wcBD2LZFLyS5G9uvY9xYB8OEt3sVKAx/FEPL2er3wQfpiT9nVqcPh+SIY9HXlHLtf2AcCQAAIAIEaQIB0hfTFnrLCQycbGg+3X8M+EAACQAAIAIGKEHDSlVzhiayQzXCRigrBzUAACAABIAAECAHSkwapK/kpR3gCgZCINK7Kz4NjIAAEgAAQAAIlI0B6QrqSn3KEhy42RA+XGX17PU++fzgGAkAACACBKkSAdIT0xCnNEJ6ACIvGpuOc8uIcEAACQAAIAAFXCJCOkJ44pRnCQ5lozHWoYXJtNKebcA4IAAEgAASAwGwIkH5Yc3dmyeAoPJQ32nySbHJrnOU2nAYCQAAIAAEgMBMB0g3Sj0JpVuEJyva5aPPJ8t7p2aaFDOEaEAACQAAI1DsCAUs3SD8KpVmFh24KN3SLSHR1oftxDQgAASAABICAhQDpBelGsVRQeOhmWso6HDHqBaXFYsJ1IAAEgAAQ8BgB0gnSCzepqPCQkSbZ5IbBBm7gRB4gAASAQP0hQPpAOuE2uRIeIYLS6GkQH7eoIh8QAAJAoE4QmBSd02S0LuWklJyBQFg0t5yBZrc6+TIhTCAABIBAMQSoeY10gfShlOReoiyrVPM5VQ44OEIeYbRbKUAjLxAAAkCgdhAIWDpAelBKTYfjL02mpu6iDqRQaL6IjT0qMpk428IWCAABIAAEahyByXk6J7savTYbFCXWeKbN0JC55raz0e8zDQn2gAAQAAI1jQD159Bz382Q6UJAlFXjYYM0Sai55UyRmNgt4uNPydrPOF/CFggAASAABGoEAVrwk9ZeK7QMTimhViQ8XBA5E450i0TseTERf04K0ARfwhYIAAEgAASqFAF6nw692sB6a8EsC36WE5oS4aGCaRXSSPRI+RbTVbIGtFUk4s+LdHqsHJ9wDxAAAkAACPiIAL2umt4cSi9xc3qfTqWuKRMedoRfJkcqmUzuE8nETqspTmQSnAVbIAAEgAAQMA2BQIPVlBZu6BHh8Hyt3ikXHru35Dx9otETRSo1KFLJAZFMDYh0alhk0jF7VuwDASAABICAhwgEglERDLWJcKhThMLyE+qgd1V74oFW4clGIIMJhedan4igOUAyZZIilT4kRWhUHiRlv1DSOpcRaesy/gABIAAEgEDlCARoRQE5wXNykmdYik2LCAXnWOcqt16eBW+Ex8k3CUQoJMVIfpCAABAAAkCgfhAoex5P/UCESIEAEAACQEAlAhAelWjCFhAAAkAACBRFAMJTFCJkAAJAAAgAAZUIQHhUoglbQAAIAAEgUBQBCE9RiJABCAABIAAEVCIA4VGJJmwBASAABIBAUQQgPEUhQgYgAASAABBQiQCERyWasAUEgAAQAAJFEYDwFIUIGYAAEAACQEAlAhAelWjCFhAAAkAACBRFwL8lc4q6Vl6GeHJyrbfh2OQ7gei4MRyUn5BlkLZ0jOQNAuDDG5zdlgI+3CLlTb565aOqhYdII4EZjiXF3pHSVrsm8WmLRsSC1ka5bfDmW1bjpYAPswgGH+DDLASmvak64eF/pr0jcSk4M9/xE+/vt6IbevJJaxvr6xPR7m7R2NVlHfM+2SGxok+DXBG7Kdpo1YogRNNfDjd74MMNSt7lAR/eYe2mJPDhjFLVCA+JDIlNfs1m4N57BYnLjltvdY5wlrMkQO3HHy+6zj3X2iYsEaMyYrIWFEVNaBbc+DT4YCTM2IIPM3hgL8AHI+G8DezZ8oftbaKl1/my/2fpF8PuwbEcwSGxGXziCdF/zz1KHMwXITLaIDKio7VJLOloRp+QDWXwYQPDgF3wYQAJNhfAhw0Mh91hMbpj4cozlhktPCQ49OFEgrPpuuv4UMuWRIhqQT0XX2zZj8hxCO3NUbFyfquW8qrJKPgwiy3wAT6q7XlltPBQNXXLvkOCfj1Qov6azddfbzWpefVVI0J7L7lEdK5bZxVJgxFWzp9TlwMRwIdX3zp35YAPdzh5lQt8uEfaWOEhEp/tG7IiIcGhvhseKOA+PHU5SYBWX3211Q8UCQbE0nktVh+QuhLMtgQ+zOIHfICPQgiY/rxi4Qld9dH3XNEoIh2FgvHqGnXsbx44ZBVHYvPUlVcKHqXmlQ/55SRHRizha5gzR0RXrBSHRsZFOkBDsWt/CDb4yP82+HsMPvzFP7908JGPSPHjuEgM3fCVb3/JmD4equXQrzlK1KymauBAcSjc56CmN+77oZFvtdzvAz7cfy+8yAk+vEDZfRngwz1W9pxc4zFCeOwkUi3Hz6Y1O0hO+zQE+7gbb7Qu1ar4gA8n5v07Bz78w96pZPDhhIq7cyw8vq8dQyNzuKZjuugQtCSKf77oIgtlqmrbR925g97sXODDLH7AB/ioBAFTn1e+Cg8JDj+4q0F0+AtAE1bJX0p9Bw7lzDHiPNW4BR9msQY+wIcKBEx8XvkmPPRPRVVWStSnY3LzmhP55O/O224TyWBI7Dowmq21OeWthnPgwyyWwAf4UImAac8r34SHazoEiIkDCdyQTkO9aVLrRDpjzTtyc4+pecCHWcyAD/ChGgGTnle+CA/9U9EvOhIdbrJSDbJX9nieEU123bJvxKtilZYDPpTCWbEx8FExhEoNgA+lcFrGfBMeKp0e2tWeqP2UmgopDY3FsqstVFNc9I9FCXyYwRr4MIMH9gJ8MBLqtp4LD9cKqImKajy1kEh8JpvcRHawRLXEBT7MYgp8gA/dCJjwvPJUeKg5ioYgU6qFX9f2LwjHMyhXNqBmxGpI4MMslsAH+PAKAb+fV3L1sUDGq2Bp4U9KNBqMVLeWEsVDcSVEQIprvCpCAx9m0QQ+wIdXCPj1vGK9CWZEJuVVsFwTqNZRbMVw4rioVsexFrvHz+vsI/vtpy86yua4wIcOdEu3CT5Kx0znHX7wwXoTlO87m9AZHNvmDjrqC6m12g7HSHFxv5XptR7wwayZsQUfZvDAXoAPRkLxdkpvgplgxhPh4V/X9ObQWk78KyKe9KwiWRac4KMs2LTdBD60QVuWYfBRFmxFb2K9kX08mfGiuRVkYCL5wazApJEmuMYzHjO7nwd8mPX1AR/gww8EvH5esd4E0yI1oDtgHsnGQeouz0/73NyWEEFj+3nAh5/fkJllg4+ZmPh5BnzoQz8pEv1kPZgOpnboK2bS8nAsae3Uem2HceQ4Te3nAR/MlBlb8GEGD+wF+GAkNGyDmZ1kNZgOiOc1mM8xORyb7EaqhxoPBc5xctw5YBhwwH6xnwa4pNUFjpPj1lpYGcbZL/azDBNVdQvHyXGb5jz7xX6a5p9qfzhOjlu1fbu9dDrxHB0Hk8HUevsFHfs0MY5SrY5my8eM4+S486/7fcx+sZ9++6O7fI6T49ZdXqn22S/2s9T7qy0/x8lxm+Y/+8V+muafan84To5btX27vWRDcAMdB1cuffXTcnFlJMUIxPutpsyqXLtNMRRGmAMfRtCQdQJ8ZKEwYscLPkhnSG8oYGvJnFRGTFZJNEDAo3W4OqehCCNNTv+KMGtYNfgAHyb8w+D/wwQWpn3wgg+7zljCkxAJs8f+TuODPSAABIAAEKhCBOw6M1njCSa0LZxWr7+wp6uu+IVtwv8I+DCBhWkfwMc0FibsecFHyqYzlvAkgxOPmxB8LfkwXXXV1opZS3BpjwV8aIe4pALAR0lwac/sBR92nbGEJy2Sd+mKrDFsFSGi3d26ijDSLsfL8ZviJPvD/pnil24/OF6OX3d5bu2zP+yf2/uqPR/Hy/GbEg/7w/6Z4pduPzhejl9HeelQ4k62a6lCz/KzfyA7fpCAABAAAkAACChHgPSlp+ecH7HhyeqIPIpnEpNvaOMrirZt0Yhlqf344xVZrA4zHC/Hb4rX7A/7Z4pfuv3geDl+3eW5tc/+sH9u76v2fBwvx29KPOwP+2eKX7r94Hg5ftXl5etLVniSwdhW1YXBHhAAAkAACACBfH3JCs9EcPT7OuDhNsPGri4d5o21yfFy/KY4yv6wf6b4pdsPjpfj112eW/vsD/vn9r5qz8fxcvymxMP+sH+m+KXbD46X41ddXr6+ZIWnd/m5n01pWsKAg+HqnOqgYK80BMBHaXjpzg0+dCNcmn3wURpexXKTrpC+2PNlhYdOxgMTh+wXVe03hkOqTFWFnd5LLrH8XNAaNdJf8GEWLeADfPiJgO7nlZOu5AjPRHB8vQ4AFrQ2Wma7X/MaHeaNs8lDE9uiYeN8I4fAh1m0gA/w4ScCup9XTrqSIzypcPxDOkZV80iJemlq61y3zvoecdx+fqmcyma/wIcTOt6fAx/eY16oRPBRCJ3SrpGekK7k35UjPD09614cTydG8zNVekxtpm3RBkEdWLX+sOs691wLLiveqcmzleKn+n7woRrRyuyBj8rwU303+FCHKOkJ6Uq+xRzhoYvxhpG78zOpOK6X5oSOE06w4OJ4VWCnwwb7V+vNn+BDx7enfJvgo3zsdNypm4+J8OgvnPyeITxDowPvTmlYXsxefeU2RSeHqv2c6c1sjC/4YCTM2IIPM3hgL8AHI1H+lnRkcKz/vU4WZgjPMcdcMDIeGN/tlLmSc/bqK4+iqMSeifcecc01lls0mo3iNTmBD7PYAR/gw2sEdD+vSEdIT5zicnw6xiMjVzllrvTcyvlzLBPUz1NrfT1Ui+PaDjdjVYqX7vvBh26ES7MPPkrDS3du8FEZwoV0xFF4aDG3sbT6tdvoV51VG5CDDGqtb2H11VdbLFF8NLCgGhL4MIsl8AE+vEJA9/OK9MO+KGh+XI7CQ5nGQsNfzc+s4nhJR7NlhmoHtVLrsdfgOD4VWHlhg/0FH16gXbwM8FEcIy9zgI/y0C6mH7MKT++KV10dz6SUvz6TftUxmbXS18NxUFwUXzUl8GEWW+ADfOhGQPfzinSD9KNQHAWfkqPBoVsK3VzuNe58p5oCd3CVa8vv+4678Uar5mZ/YPjtU6nlg49SEdObH3zoxbdU6+CjNMTc6EZB4Vm6Yu374ulUsrRii+emh/TR3R1WRmriYQUufqdZOWiyKDcXckekWR668wZ8uMPJq1zgwyuk3ZUDPtzhRLlIL0g3it1RUHjo5rEGPX09k2S2W/51yTXceMZ/MYdNuU6Cwx10R3e3V82AgtnwAx+zIePPefDhD+6zlQo+ZkMm97xbvSgqPEuWrblyLJMYzzWv5ohGf1n9Ip2dVq2nWiaWkuhQExullfNbq150mE3wwUiYsQUfZvDAXoAPRsJ5SzpBeuF8Nfesq/cVfPiqC55vSre8NZB7r5IjIjOeTIt4JCrmn3mmSI6MiNEtW5TY1mHELjrk+7J5rTqK8c0m+PANeseCwYcjLL6dBB/O0NNioIciB975xS/ettE5R+5ZV8JDxj7y0Uve0ygaJtvGcm1UfNQSCQt6WRCJT+uqVSLc2iqGnnyyYruqDVBz4NHXXmuZpS8gNbHVYgIfZrEKPsBHOQh4+bwaEWO7Fi8/y3F5HCffXVdi9uy5e0HzyKL+cDDg+h6nAgud2z04JuhDaeDee8Wm664rlN3Tazx6jQql5kEeEu6pEx4XBj48BrxIceCjCEAeXwYfk4AnMyIz1vJC18KF5+11S0FJIvLijoe+1J7s+Khb4+XkG44lxLN9Q9atVOvZceutvtZ+qGmNRt3RllItDCSwAnH5B3y4BMqjbODDI6BdFgM+hBgKD355Ue9ZV7iEzMpWkvDQHf3P/Wlfa7DxsFIKKTUv9fk82zdo9f3QvVT76fv1rz0VIBroQILD669R0xrVcmhbbwl8mMU4+AAf+Qj49bwaScf3d606dX6+P8WOSxaekf6Hu5KHonsaAvqa3Mhp+ufaOxLLNr3F+/st4aEaUKyvr1hcZV8nAqlttOfii7M26qVpLRuwww74cADFx1Pgw0fwHYquRz4SmUwmPCe2sLXrtH4HSAqeKll4yNr27es/Nj817wtl3VzQnZkXiVBqSyURosQCpLoGRGJDL0XiGg6VRTOWabg00jQC4GMaCxP2wIcJLEz7UC980Ci2faEDVy1btvaG6ejd75WtHS9u+d3D7WLOy9wXVVlOInTLvkOC2lQ52UWIzpUyEo5qNtRvQ4LD/Tdsl5rTaCUCmjSG5IwA+HDGxa+z4MMv5J3LrXU+hsShRxatPPM05+iLny1beMj03ucfHWwO6BliPZvrROhwbELWgOI5IsT5SYwosQhxsxyLC285P29JbLgfh89hWxwB8FEcIy9zgA8v0S5eVi3yISeKDi04/OTJNc+KQ+CYoyLhof6eieHGFxuDQV+qBnZS48lUdjCCY6R5J6k2Q6+3bYuGrSa1vMs4LAMB8FEGaBpvAR8awS3DdC3wEU+n0/HWPd2lDJ12gqoi4SGD27bdfdZhqcXrQwFRsS0nB0s9R+RSoloRJT7m0Wi8tS7ij3YEGH/woR1qVwWAD1cweZapmvhIyfk6+0MvrF2+/LyHKgVIiVjs3rn+g+0T824OKrFWaUi4HwgAASAABFQiIBeWEUORAx9a0rP26yrsKmkiI2eGw/u+MFnXUOEWbAABIAAEgIAJCNBznZ7vqkSHYlJaR9m1dcM35mbmvl+pUROQhw9AAAgAgTpEgIZNHwwc/ObSFWs+oDJ85Rrxwvbf3t6eanu7csMqo4YtIAAEgAAQKIgAic5QaPiOxctecVHBjGVcVNLUZi+XnCSFRLObHRXsAwEgAASqBwF6ftNzXIfoEArKhYeMUrVsOCT7fEgykYAAEAACQKBqEKDnNj2/VTev2QHQ2iJGo93aJubdZMpQa3vg2AcCQAAIAIFcBGjI9HDkwGUqBxLkljB5pFV4qAia59OeXPigX5NMnYLGOSAABIAAEMhFgCaHDoX3vErFPJ1cyzOPtAsPFUkvkQuPdj7n9fI6M8PFGSAABIAAEMhHgJbBSbYMrKp0RYJ8u7MdeyI8XDgtLNomFxb1tFAuHFsgAASAABDIQYC64YcrXPAzx6DLAy2DC2Yrm1YzpaW06T0Os+XBeSAABIAAENCPAD2H6XlcySrT5XrpS+WDFhcdHQ5u1P0m03JBwX1AAAgAgVpGgN4c2tKWPqacl7ipwMUX4WHHX9zx0JdaJto/Eg7qfZspl4ctEAACQKCeEUimM5nRyNBXFvWedYWfOPgqPBQ4DTwIjM19rFU0L/XdGT+ZQNlAAAgAAU0IUN/GiBjblWk+eJJXAwgKhWLMs37nzvsvbJrouEWOfGsq5DCuAQEgAASAgHsE5Ii18fHI4KU9Pef8yP1denMaIzwc5u7tG25sTrR9uDEYCvM5bIEAEAACQKA0BOLpVHKsYfirS5atubK0O/XnNk54OORdW9d/qyXdfmljIBTic9gCASAABIBAYQTimVRqNDh0y9IVa99XOKd/V40VHoZkx9YHr29OtX24OdgQ5XPYAgEgAASAQC4CY+lEbCw0/NXeFa+6OveKeUfGCw9DRn1AjROtX2jKNC0JeTr7iD3AFggAASBgFgIpuYz0eGB8dzwycpVJfTjFUKoa4eFANm68s7W9pfM7kWTL65oDkeaqC4ADwRYIAAEgUAYCNEJtLDMxNhEe/eXQ6MC7jznmgpEyzPh6S1U/t3fuvHdRKNl4cyTdtLYxE5kTClZ1OL5+EVA4EAAC5iKQku8qiAcmDk0Ex9enwvEP9fSse9Fcb4t7VlNP6h3b7vl4JN3yjnA6uqIx0BCVr2NAAgJAAAhUHQLy9QQinknEksHY1ong6Pd7l5/72aoLooDDNf1o3rntgX8IivBbw+nIiaF0Q3eDaGiUYhRExajANwKXgAAQ8AwBeumaFJl0QiTiqWCiLxmceDwdStxZTf015YD1/wGfXxpkT8Z3ZwAAAABJRU5ErkJggg==;fontFamily=Times New Roman;" parent="1" vertex="1">
          <mxGeometry x="50" y="370" width="414" height="412" as="geometry" />
        </mxCell>
        <mxCell id="hdJvPOuQKjUCLLla7TbE-2" value="" style="shape=image;verticalLabelPosition=bottom;labelBackgroundColor=default;verticalAlign=top;aspect=fixed;imageAspect=0;image=data:image/png,iVBORw0KGgoAAAANSUhEUgAAAZ4AAAGcCAYAAADptMYEAAAAAXNSR0IArs4c6QAAAHhlWElmTU0AKgAAAAgABAEaAAUAAAABAAAAPgEbAAUAAAABAAAARgEoAAMAAAABAAIAAIdpAAQAAAABAAAATgAAAAAAAACWAAAAAQAAAJYAAAABAAOgAQADAAAAAQABAACgAgAEAAAAAQAAAZ6gAwAEAAAAAQAAAZwAAAAALQZVhQAAAAlwSFlzAAAXEgAAFxIBZ5/SUgAAQABJREFUeAHtfQl4ZFWZ9qkllcrSSbrpTtJb0gvdrLLIIiBKt2CjuAxuMCMK4i78KoP8MDqj4zDOKCi4/YLLKIKCyqDjuKCs3biCgqyNdkPvDZ2ktySdpSq1/ee7yVe5VbmpulV1zr2nqt7zPJW7nfud73vfyn3rrDcg6jBt2XXfS8KJ9JpgsGGVSAd6wqKhKyMCTYF0ICICIhIQgVBGZAJ1CA1CBgJAQBEC8jmSkc+RlMiIiUwwMxEQmfGkSPSLYGZnOp14LtkQ3LBy6aufVlRcVZmp6Yfrzp33XxhMNVwQTkdODKUbuhtEQ2MoIILBmo66qr5/cBYI1DUC6YwQqYxIJ0Qingom+pLBicfTocSdPT3n/KiWgampR/CObfd8PJJueUc4HV3RGGiISpFBAgJAAAhUHQJSjEQ8k4glg7GtE8HR7/cuP/ezVRdEAYer+tG8c+e9i0LJxpsj6aa1jZnInBCqMgWoxiUgAASqFYGUrBrFAxOHJoLj61Ph+Id6eta9WK2xkN9VJzwbN97Z2t7S+Z3GROt5TcGGlqoLoJq/LfAdCAAB3xGQlSExnk6MxhtG7h4aHXj3McdcMOK7UyU6UDXPbeqvaZxo/UJTpmlJKFhilMgOBIAAEKhBBFJpKUKB8d3xyMhV1dQvZLzw7Nq2/rPR5JwrmoMN0Rr83iAkIAAEgIASBMbSidhYaPirvStedbUSgxqNGCs8u7au/1ZLuv3SxkAopDF+mAYCQAAI1BQC8UwqNRocumXpirXvMzUw44Rn9/YNNzYn2j7cGAyFTQUNfgEBIAAETEcgnk4lxxqGv7pk2ZorTfPVGOGhPpymiY5bmgMNTaaBBH+AABAAAtWKwFgmMT4eGbzUpD4g34Vnz567FwTG5j7WKpqX+u5MtX6z4DcQAAJAoAACNBJuRIztyjQfPGnhwvP2FsjqySVfx4e9uOOhLzWPLOqfA9HxhGwUAgSAQH0iQD/q6TlLz1t67vqNgi+VjJH+h7tGh4MbW4ONh/kNAMoHAkAACNQbAiPp+P6WtvQxrV2n9fsRu+c1nu3b138seSi6B6LjB90oEwgAASAgBD1/6TlMz2M/8PC0xvPilt893CbmvMzTQv1AFWUCASAABKoAAer7GRaHHlm08szTvHTXEw2gAQTh0c7n5Ii1di+DQ1lAAAgAASBQHAE58m0o2TKwyquBB9qb2rZtu/usxpGFfRCd4uQjBxAAAkDADwTo+UzPaXpee1G+VuHZvXP9Bw9LLV7fGAxqLccLoFAGEAACQKCWEaDnND2v6bmtO05tgvDC9gc+3z4x72b5ThxPmvN0AwX7QAAIAIFaR4Ce1/Tcpue3zli1iMKurRu+0ZGZ+35tqqYTEdgGAkAACNQ5AnLRazEYOPjNpSvWfEAHFMqF54Xtv729PdX2duWGdUQPm0AACAABIOCIAI14GwoN37F42SsucsxQwUmllRKq6UB0KmADtwIBIAAEDEGAKg/0PKfnumqXlAkPtQlS8xpqOqopgj0gAASAgD8I0POcnuuq+3yU6ASNgqAOqaASa/4AjFKBABAAAkDAGYG0bHcbihz40JKetV93zlHa2YqlgsZ90xA8U0avxZPULSZn48YmrC0dN4aD8jP5Pjna0jGSNwiAD29wdlsK+HCLlDf5qomPVEZk9odeWLt8+XkPVYpORcJDKxLQpCO/5ukQaSQww7Gk2DsSKwkLEp+2aEQsaG2U24aS7kVmZwTAhzMufp0FH34h71xuLfART6fT8dY93ZWucFCR8Ox9/tFBr1ckYPL2jsSl4CRmMBzvn1xsdejJJ61rsb4+Ee3uFo1dXdaxfZ9vbhBp0RRttGpFECJGxd0WfLjDyatc4MMrpN2VU4t80PI6Cw4/ucMdAs65yhYeWvCzXS746WxW/VkSGRKb/JrNwL33ChKXHbfeWlKhJEDtxx8vus4919rab17QGkVNyA6Iwz74cADFx1Pgw0fwHYqudT6GKlxYtCzhoaW056fmfaGsmx1IKnSKfjHsHhzLERwSm8EnnhD999xT6FbX15xEqEFkREdrk1jS0Yw+IRuS4MMGhgG74MMAEmwu1AsfNMdnX+jAVcuWrb3BFr7r3ZK1g17iRu9xaAgESr7XtVdTGUlw6MOJBGfTddfxoZYtiRDVgnouvtiyH5HjENqbo2Ll/FYt5VWTUfBhFlvgA3z4+bxKZDKZ8JzYwnJeJleyePQ/96d9ul/iRtXULfsOCfr1QIn6azZff73VpObVV40I7b3kEtG5bp1VJA1GWDl/Tl0ORAAfXn3r3JUDPtzh5FWueuaD3mTaterU+aViXZLw0Lu625MdHy21kFLyE4nP9g1Zt5DgUN8NDxQoxY6qvCRAq6++2uoHisiJSkvntcj+n6gq88bbAR9mUQQ+wEchBPx4Xg2FB7+8qPesKwr5lX9tcnJL/lmHYxo63TK+4K6gxiY2GjiweeCQVTqJzVNXXil4lJqDS56cSo6MWMLXMGeOiK5YKQ6NjIt0gIZi1/4QbPDhyVfMdSHgwzVUnmQEH5Mwh5ONL/voJ9540w033D7dL1KEAdc1nr4tf9w5RzQvLWKv7MtUy6Ffc5SoWU3VwIGyHXK4kZreuO+Haj213O8DPhy+AD6eAh8+gu9QNPjIBeWQGNvVvfL0ntyzsx+5Ep6dO++/cF5iwQ9dZZ69rFmv2EmkWo6fTWuzOjl1gYZgH3fjjdZRrYoP+Cj2LfD2OvjwFu9ipYGPmQjRKLcDDXv/vqfnnB/NvDrzjCstkRNFx+RE0aaZt1d+xj4yx3TR4WipHfWU22+3Dmm4NX1qJYEPs5gEH+CjUgS8el7JiaXjcmKpq4dh0UXLdm/fcKMu0aGmNfrHolQtokO+0oRV8pdS34FDOXOMrJNV+gd8mEUc+AAfKhDw6nlFOkF64cbnosLTnGj7sBtDpeahfyqqslKiPh2Tm9ecYiN/d952m0gGQ2LXgdFs/5RT3mo4Bz7MYgl8gA+VCHj1vHKrFwWFZ9fW9d9qDIbCKgFgW1zTIUBMHEjAfhba0lBvmtQ6IdcMp3lH1ZzAh1nsgQ/woRoBL55XpBekG8V8Lyg8Len2S4sZKOc6/VPRLzoSHW6yKseOCffwPCOa7Lpl34gJLpXsA/goGTKtN4APrfCWbBx8lAaZG92YVXh2bH3w+sZAyPU8n1JcIyIp0UO72hO1n1JTIaWhsVh2tYVqigt8mMUW+AAfuhDw4nlFukH6USiGWYWnOaWnb4drBdRERTWeWkhE5mSTm8gOlqiWuMCHWUyBD/ChGwEvnlfF9MNReGjeTnOwQfm6MNQcRbN9KdVCbcf+BeF4BuXKBtSMWA0JfJjFEvgAH14hoPt5RfpBOjJbPI7C0zjR+oXZbqjkPHfA02gwUt1aShQPxZUQASmu8aoIDXyYRRP4AB9eIeDF86qQjswQno0b72xtyjQt0QEA1wSqdRRbMUw4LqrVcazF7vHzOvvIfvvpi46yOS7woQPd0m2Cj9Ix03mHbj5IR0hPnGKYITztLZ3fCc0463Rraee4w5T6QmqttsNIUFzcb2V6rQd8MGtmbMGHGTywF+CDkSh/SzpCeuJkYYbERJItr3PKWOk5/nVNbw6t5cS/IuLJlNFhgg+z6AEf4MMPBHQ/r2bTkxzh2bnz3kXNgYirtXZKBYn/sTjQUu+vlvxc4xmPmd3PAz7M+kaBD/DhBwK6n1ekJ6Qr+bHlCE8o2Xizq1VD860UOeaRbBxkkexVfZmb2xIiaGw/D/gw6ysGPsCHXwjofl6RnpCu5MeXIzyRdNPa/AwqjodjSctMrdd2GCuO09R+HvDBTJmxBR9m8MBegA9GQs3WSVdyhKcxE5mjpqhcK8OxCetEPdR4KFCOk+PORcP/I/aL/fTfI70ecJwct97SSrfOfrGfpVuorjs4To7bNO/ZL/bTNP9U+8Nxctyq7TvpSlZ4dmy75+OhoI6GNpFdRqZWR7PlE8Vx0oRAExP7xX6a6KNKnzhOjlulbRW22C/2U4VNk21wnBy3ab6yX+ynaf6p9ofj5LhV2yddIX2x280KTyTd8g77BexXhkC8v98yoIvMyryrv7vBh1mcg4/64iNfX7LCE05HV+iAgkfrcHVORxkm2pz+FWHWsGrwAT5M+H/B/4cJLEz7oJuPfH3JCk9jQP3abNNhYQ8IAAEgAATqFYF8fbGEZ+e2B/4hpKd7JzukuN5qPNNNCfiFbcI/G/gwgYVpH8DHNBYm7Onmg/TFvmioJTxBEX6rCcHXkg/TVVczBxjUEtZuYgEfblDyLg/48A5rNyV5wUcw1XAB+2IJTzgdOZFPqN42hidb86Ld3apNG22P4+X4TXGW/WH/TPFLtx8cL8evuzy39tkf9s/tfdWej+Pl+E2Jh/1h/0zxS7cfHC/Hr6M8u85YqhBKN9SXKuhAFTaBABAAAkBgVgTsOmMJT4NoaJw1d4UX2qIRy0L78cdXaKm6bud4OX5TvGd/2D9T/NLtB8fL8esuz6199of9c3tftefjeDl+U+Jhf9g/U/zS7QfHy/HrKM+uM5M1noBcWAwJCAABIAAEgIAmBOQAg6zOBLfsuu8lmhYssNznNsPGri5N4ZhpluPl+E3xkv1h/0zxS7cfHC/Hr7s8t/bZH/bP7X3Vno/j5fhNiYf9Yf9M8Uu3Hxwvx6+jPNIZ0huyHQynQ2t1FGK3ycFwdc5+DfveIwA+vMe8UIngoxA63l8DH/owZ70JBjPicH3FTFpuDId0F2GU/d5LLrH8WdAaNcovdgZ8MBJmbMGHGTywF+CDkVC/Zb0JBtOhXvXmcy0uaJ0cu9D9mtfkXqjRIx6a2BYNGxkh+DCLFvABPvxEwMvnFetNMChCnbqD5pES9dLU1rlunQUpx60b31Lts1/go1Tk9OQHH3pwLdcq+CgXueL3sd7Imk+gqXj2ynJQm2lbtEFQB1atP+y6zj3XAsuKd2rybGXoqb8bfKjHtBKL4KMS9NTfCz7UY8oWWW+CgXRgcqINX9G0rZfmhI4TTrAQ5Hg1wVmxWfav1ps/wUfFXxWlBsCHUjgrNuY1H6w3QREQngiPvfrKbYoVo2agAdOb2Rgy8MFImLEFH2bwwF6AD0ZC8XZKb+TQ6oAnQ87s1Vce9aU4JN/NHXHNNZYPNJqN4jU5gQ+z2AEf4MNrBPx4XrHeyD6ejKYXIsyEceX8OdZJ6ueptb4eqsVxbYebsWYiYNYZ8AE+vEIA/x9eIe2uHL/4YL3x9Gc5/aqzagNykEGt9S2svvpqi3GKjwYWVEMCH2axBD7Ah1cI+P288lR4CNQlHc0WtlQ7qJVaj70Gx/F59QWqtBz2F3xUiqSa+8GHGhxVWQEfqpDMteO58NCvOiazVvp6OA6Ki+KrpgQ+zGILfIAP3QiY8Lzy5SnJne9UU+AOLt1g67J/3I03WjU3+wNDV1m67IIPXciWZxd8lIebrrvAh3pkfREeekgf3d1hRUNNPKzA6sPTa5Emi3JzIXfU6y1Rj3XwoQfXcq2Cj3KR03Mf+FCPqy/CQ2FMktluRdQl13DjGf/qQ9RjkQSHO+iO7m6vmgEFs6EBPmZDxp/z4MMf3GcrFXzMhkx5530THnKXRn9Z/SKdnVatp1omlpLoUBMbpZXzW6tedKxA5B/wwUiYsQUfZvDAXoAPRqLybeiqj77nikYRmWz3qtxeyRaIzHgyLeKRqJh/5pkiOTIiRrdsKdmOVzfYRYd8Xzav1auiPSkHfHgCs+tCwIdrqDzJCD4qgzkuEkM3fOXbX/JdeCiMlkhYpNIZS3xaV60S4dZWMfTkk5VFqOFuag48+tprLcv0BaQmtlpM4MMsVsEH+CgHAROfVyw8gT1b/rC9TbRofyePG+B2D44J+lAauPdesem669zc5kkeHr1GhVHzIA8J96RwnwoBHz4BP0ux4GMWYHw6DT5KB35YjO5YuPKMZUYJD4UxHEuIZ/uGrIio1rPj1lt9rf1Q0xqNuqMtpVoYSGAF4vIP+HAJlEfZwIdHQLssBny4BGoqm7HCQ/5Rn8+zfYPWlo6p9tP36197KkA00IEEh9dfo6Y1quXQtt4S+DCLcfABPvIRqJbnldHCQ6DSP9fekVi26S3e328JD9WAYn19+bgrOyYCqW205+KLszbrpWktG7DDDvhwAMXHU+DDR/AdigYfDqA4nDJeeNhnIpTaUkmEKLEAqa4BkdjQS5G4hkNl0YxlGi6NNI0A+JjGwoQ98GECC9M+gI9pLJz2qkZ42HkidMu+Q1YfUPbcVC2IRIhSKSPhqGZD/TYkONx/w3apOY1WIqBJY0jOCIAPZ1z8Ogs+/ELeuVzw4YxL1QkPh0GEDscmZA0oniNC2etSjCixCHGzHIsLbzk/b0lsuB+Hz2FbHAHwURwjL3OADy/RLl4W+MjFqGqFxx6GndR4MpUdjGDPM9s+1Wbo9bZt0bDVpDZbPpx3jwD4cI+VFznBhxcouy8DfMhRy1PDqcPuYTMvJ4kH9cPQhxORS4lqRZT4mEej8da6iD9KEQAfSuGs2Bj4qBhCpQbAxzScVS0802FM7xG5lOxiNH0Ve14jAD68RrxweeCjMD5eX61XPtB77vU3DeUBASAABOocAQhPnX8BED4QAAJAwGsEIDxeI47ygAAQAAJ1jgCEp86/AAgfCAABIOA1AhAerxFHeUAACACBOkcAwlPnXwCEDwSAABDwGgEIj9eIozwgAASAQJ0jAOGp8y8AwgcCQAAIeI0AhMdrxFEeEAACQKDOEYDw1PkXAOEDASAABLxGwL8lczJJkUofEunUqIw5KTLyWMhPRkyuteY1ECgPCAABIFCLCASErF8EwiIgP0KERTDUIkLBOdY5v+L1RngyGZFKDYpUckAkUwNSbIZFJj35Yje/Ake5QAAIAIF6RiAQjEoRahPhUKcIheUn1CHFKOAJJFqFJ5ncJ5KJnSIxsVvWZhKeBIRCgAAQAAJAoDgC9OM/RZ/EwGTmQINoiCwR4YYeEQ7PL26gghzKhSeTSUmh2SoS8edFOj1WgWu4FQgAASAABDxDQFYOEvFt1icYbBYNjYdLIVohK0Eh5S4oE56M7KdJxJ4XE/HnZH/N5LtwlHsLg0AACAABIKAdAao0xMefEhOxv4lI4yrRED1cBGT/kKqkxBI1pZGTmcy4Kr9gBwgAASAABHxGgCoR8dhGWaHYKhqbjrOa4lS4VJHwpKXQxMYek22E/Sp8gQ0gAASAABAwEAGqVMTGHhGJxHYRbT5JBANNFXlZ9jyeZKJPjA0/ANGpCH7cDASAABCoHgSokkHPfXr+V5LKEp547BkxPvoH2bQWr6Rs3AsEgAAQAAJVhgA99+n5TzpQbiqxqS0txsceFcmJXeWWh/uAABAAAkCg6hHIyIEHm6yRy03NJ8toSqvDuM5NKwuMSZWD6FT9NwYBAAEgAASUIEB6QLpgrTxTgkWXwkM1nYfRn1MCsMgKBIAAEKgHBKjfh/RBlLDcmSvhoeY1jFyrh68QYgQCQAAIlI7ApPg86vrGosITH38GzWuu4URGIAAEgEB9IkDNbm4HHBQUHhoyNxHfXJ8oImogAASAABAoCYGJ2GZXQ61nFZ7JyaFUdcqUVDAyAwEgAASAQL0ikJETTR8VpB+F0qzCQysSYJ5OIehwDQgAASAABPIRIN0g/SiUHIWH1l7DYIJCsOEaEAACQAAIzIYA6Yf1OpxZMswQHlplmhb8RAICQAAIAAEgUC4C1sLRUk+c0gzhoVcbYJVpJ6hwDggAASAABNwiQDpCeuKUcoSHXuJG79NBAgJAAAgAASBQKQKT72dLzTCTIzz05lC8xG0GRjgBBIAAEAACZSBAekK6kp9yhUe+rhoJCAABIAAEgIAqBBIOupIVnmRyn7XSqKrCYAcIAAEgAASAAL1Gm/TFnrKvRUgmdtrPV+1+Ih21fB9NdlhbOm4IxuRnckJTJBi3jqs2wCpzHHyYRRj4AB9+IED6Eg7PzxY9KTyZTMEx19nchu3QPxEJDH0GJ7pK8o7EqCU8JDoie6xtSTcjsyMC4MMRFt9Ogg/foHcsuJ75oDk90eiJQgQmobGEJ5UalCvjJBzBMu0kk3dQCs3YVK3G7mO8v986HHrySWsb6+sT0e5u0dg1KUy8T3YGJ+jTJUKyKtgYmRBUG4IQ2dEsvg8+imPkZQ7w4SXaxcsCH1MYSX2xdCYcsU5MCk9yoDiCPucYTbZLkVg4o2YzcO+9gsRlx623luQhCVD78ceLrnPPtbZjyWYxJi2QEHVE+iFARdAEH0UA8vgy+PAY8CLFgY+ZAKVIZ8JLrAuBPVv+sD08+pfeVMJM8aFfDAOxZTmCQ2Iz+MQTov+ee2ZGV8aZfBEiE1QLmhM9JDqj29EnZMMUfNjAMGAXfBhAgs0F8GEDI2831NApki0v3bFw5RnLLOEJDm/ozaRjedn8P9wrBWcg1pt1hARn03XXZY917JAIUS2o5+KLLfNhMS5aI8NicfPfdBRXVTbBh1l0gQ/wUU3Pq0AwKtJta6aE57mHdgaGH1hqEoVUTX1h7EhBvx4oUX/N5uuvt5rUvPKTCO295BLRuW6dVSQNRiDxoQEJ9ZbAh1mMgw/wkY9AtTyvMm1n71q46qyeQN/mu18Uhx5emB+IX8f0T7V95ASreBIc6rvhgQJ++ESErr76aqsfiGo/Xc07Zf9Pnx+u+FIm+PAF9lkLBR+zQuPLBfBRIuxzTtvTvfq8RaGPXfamawKJ/pYSb9eSfXCiW+waPdayTWLz1JVXCh6lpqVAF0aTIyOW8DXMmSOaVh4pxmJNIhOMyJqPHAlY4wl8mEUw+AAfxRAw/XmVCc+L3fC1Oz8f2PPsD/YFxv96WLGAdF/fNnJ8dng0NaupGjig0m9qeuO+Hxr5Vsv9PuBD5Tenclvgo3IMVVoAH+WhmWk6Zv/Coy+cH9iz8fb9gdimeeWZUXOXnUSq5fjZtFYsIhqCfdyNN1rZalV8wEexb4G318GHt3gXKw18FENo9uuZ6BEHFh5z0WHBQCaZXa9t9uz6rtDIHJ4IarroEAokin++6CILEJrzQ/7XUgIfZrEJPsBHJQiY9rxivQlmAumpRQwqCa+8e6ljjodLV4PocJQ0YZX8pbR/dL6cY9TNl6p6Cz7Mog98gA8VCJj0vGK98a22Yx8NQn06JjevOZFP/u687TaRCrWI/rEeuV5cu1O2qjkHPsyiCnyAD5UImPa88k14aDUCSgSIiQMJLOeK/KGh3jSpNSmarHlHRbIbfXlgfJnlH/gwgybwYQYP7AX4YCTUbH0RHm63poccN1mpCcd7KzzPiCa70qTXakwWH6kO60cA+PCfQfDhPwd2D8CHHQ01+74ID/frlLqwp5qQ1Vqh9lNqKqQ0MtGWXW1BbSl6rYEPvfiWah18lIqY3vzgQz2+ngsP1wqoiYpqPLWQSHy4yY2bEKslLvBhFlPgA3zoRsCE51X2DaS6gyX71BzFL2zTUduJzpsnTrnsMtEt59octnq1aJHv4Bnfv18M7dolnv/Vr8TTd9whxvbu1RIqxUPruh2KzRGjkfaqWNNNNx9OQL/6858Xx08twHqfXIroyRJfZ+Fk0+kc+JiJyuLTThOrXvtaMW/VKnGY/LQtWSJG5f/Dvr/9TezftEns/P3vxZZf/3rmjQrOgI+ZIPaedZY44o1vFPOPPFIcdsQRIhyNikMvvigObtkinr3rLrH5F78QqXh85o0KzvjNh6fCs3vsCAsyGg1GqqsynX7VVeKV//zPItox+cprtt0qxWfB0UeLw+WK02f967+KO173OrH7j3/ky8q2FA/FRSsb0HuDqmExUZ18OAG79MwzxelyGHogOFnRbunsdMqm5Bz4mIaxY/lycY5c1f2Yt71t+uTUXiutxv6Sl2TPPy+F5+4Pf1gcfP757DkVO+BjGsW5K1eKdV/4gjjy/POnT07ttS1eLBafcoo49u//3hKhn733vdaP5hkZKzzhNx+eNrXxRFHVo9jW/Nu/iXXyl3S+6ORz0zR3rnjnffeJFVMrTudfr/SY46JaXTUMr9bFhxOO8486Slz4k59kRccpj+pz4EOIrhNOEJc/+6yj6DjhffhrXiMue+YZsVL+UFOdwIcQ7b294r0PP+woOvl4z1m0SFx0993iVPlDQEfykw/PhIdGhlCivhBSW1XpuHe+U5z1qU/lmEuMj4utDzwgHv/Od0SffGFcJpPJXo+0tIi3//znonfNmuw5VTsUF/dbUa3H5KSLD6eY58sa58WSj5YFC5wuaztX73w0yO/6W3/4Q6sJxw7yiPyePvvjH4uHv/QlsfHOO61f1vbr4cZGcf53vyua5s+3n654v975CDc1iQv/539Ecx6uB2TT2mPf+pb44xe/KLbef/8MnM+V56lZTnXykw/PmtpGpiZY0ptDVaVgJCLO/uxnc8wNbt8uvid/rR3YvDl7fvnZZ4u//9//FSQ6lELyvld84hNix4YN1rHKP/QrgtZzm0g3qjSr3JYOPvKdDITD4gzZBLpGNnFS+7UfqZ75eLUcbTlf9h1woh9gj3zlK+JB2SSdGB3l0yLc3CzWfPrT4uX/9/9mz1ET3OtuukncdcEF2XMqduqZj9P+8R/FwhNPzIHxN//xH+Kha68V6YmJ7Hl6Xr3lBz/I/lALhkKCWnVu1fBj2S8+PKvx6GjWOV7WdqhNlNP4wYPi2y9/eY7o0LVt8tf2beecI5Kx6besrpDH8+QABNWJazzxiYhq00rt6eDD7mCXFN/3PfKIOEf+MPBLdMifeubjqLe8xU6J+Iv8VX3PFVfkiA5lSI6NifvlQI8/fe1rOflXv/71IiAfeipTPfNx7IUX5kD5jKyNrv+Xf8kRHcpAz6ufv//9OXmXyRpP+7JlOedUHPjFhyfCw2uZcZAqACMbJ+WR80e5avSIHBXilF6Q7aqPffOb2UuBQECc8qEPZY9V7XD1NRVsNrafRxcfhGGwoUGs/cxnxPsffVQsfOlLVcFatp165eMwOVKKBtZwig0NifuuuYYPHbf3yRrPhK0m1CCbhqhvTmWqZz66jjsuCyXVPu+ZWu8xe9K2s+mnPxVDO3fazghr9FvOCQUHfvHhifCMJidHmlG1TlUKyaab7rxq61Pf+15B89TnY08nvOtdgpqDVCeO09R+Hh18MIbzDj/cGl0YzMN1v2z6/KscXOBHqkc+6BeyPe35y19EfHDQfmrGflL2je7duDHnvP1hmXOhgoN65KND1laGX3ghi1rf44+LkT17ssdOO6MDAzmndfWR+sGHR8IzuYCmyhoP/ZoOyV/XnA7I4Z9DO3bwoeO2/6mnxPiBA9lrNAqOHpSqE8dp6sg29ov9VB1/vr0nZEf1NyRf9PDzI3GcHLcfPhQqk/1iPwvldXuN5oM886MfiR2//a04uHWreOFPf3J1Kw1IsKd0ImE/VLLPcXLcSowqNMJ+sZ8qTNP8qC/KeVPXHXaY+O6aNeLnH/hAYbNyygHN77GnQ0WEyp63lH2Ok+Mu5d5y86r/ue/gCU1UpETVOlWJxrrbE41eK5pk9bb/6aeF/dcgzfHZLyfQqUwcJ8et0rYKW+wX+6nCppMNGqFDHac75cPPz8Rxctx++uJUNvvFfjrlKfXcZjlykz6lpGY56jD/YfeibDJVnThOjlu1/UrtsV/sZ6X27PfH5A/fHQ89ZD/luH+6HIgQaW3NXksnk2JAPrt0JI6T49ZRRr5NT2o8+YWqOKZVCeyJRrO5SfntpjpqPORHvL/fcsdLMt3ErzsPzYR//JZbxLfPOEN879Wv9l10ON565YPjd7OlkVM0gorT2L59YnDbNj5UugUfznDSCMOXy744WuHDnqj2Ojr1TLGfV7XvNR/aazxcfePqnCqgGtvackzlC0rORdvB8O7dtiOR86si50KFB/QrolGKIw2rbghOj6ar0GzFt+vigx0blw+rn7373XxozLZe+XBLQLdsCs0frLPtwQfd3l5yPvAxDdmRb3qTVdOkFQ1oNYNm2RxnTzTPhwZ+6Exe86FdeHSBFW3PffHaxMiIq6Ls8xfoBp7b4+pmZAICNYgALalz0S9/mVPbSadSYsOnP12D0ZoXEtVu5knRcUq75Wjc/5bDsIsNRHC61+Rz2pvaxpJzrfh113jsc3QKAZ6fL78ztdC9pVybrro2lXKb9ry6+NDueIUFgA9nAJvlennvlKuJ0IRRe/rNv/+72PfXv9pPKd0HH1NwykEE7T09s2JLfdBnfOxjglY90Jm85kO78OgCK5Y3NLQpr3o6W7n0S86e8of92q9Vsk9VV0r11sdTCWY67wUfM9Ftkw+8d61fP2Nk52ZZ+6FBIToT+JhEl1pcqBWGnmcDcig7LfdlT9Sl8LKPfMRacopW39eVvOZDu/Bw/0Y07xdVpQBG5szJMRGTqxa4SbQOlT25baKz3+Nmn+Pl+N3c40Ue9of986JME8rgeDl+E3wiH9gf9s8rv2jxUFqskn5R2xP16/w3rWJtW9/Qfl3VPsfL8auyW6kd9of9q9ResfsnDh0SNy5dKq6TCxjffOyx4j/lSLbvrl0r9snXVNjT0tNPF6/98pftp5Tuc7wcv1LjDsa0C49DmUpOEWH25HZZlvx8cTmjGwkI1BMCtPL0u+UQ9zkLcxey3SZrP3e84Q2CJpIieYdAwt4/nU5ba0h+Xf4w2Pm73+U48ZK3v13QihS1kLQLT0t4crY0LZypMuXXVJpcVkPz88WHh1W6lbXF8XL82Qs+77A/7J/P7nhWPMfL8XtWcJGC2B/2r0j2ii+f+J73iLfLF4zZ54iQ0Y3//d/idvmSOFq3zYvE8XL8XpTppgz2h/1zc4+OPCm5ruRPL700p+mN3mO1Wr5PTEfieDl+HWXYbWoXHnthKvdH8sa0F+qgs5ebn4/WsEICAvWAAK2h98b/+i+R369JaxzeJUdO6XrbZT1gqyNGehnf9g0bckzTkOtaSNqFh9sMaU6LyrRXvtzKnuauWGE/nHU/Px+98ldH4ng5fh1llGOT/WH/yrFRjfdwvBy/KTGwP+yfDr9ohenz5dtx6Q299pSRzTq/+uhHxb1y1JTuPh17ubTP8XL8+df9OmZ/2D/VftAgKJoz1Zg3HWS2cvKfT+2yP0hH4ng5fh1l2G1qFx4qjIPh6pzdgXL38xczXCLfJy9kVbRQIrIXHHNMNgstQ/HiY49lj+tlRwcf9YKdjji18iFXYX/jt78t6BUi9kSrUP9QTlz8k3w/D1IuAjr4eOUnPymukSPXrpYTrD8gnzknf/CDuYXOcuRV18AsxWs7XfhJrahYJlKROcvM/ueeE2P792dNEkH567dlL07trJBLuNiXBKF123S0afdecolVYkdkctmcfD/8PtbBh98xFSq/nvmgt1eeMPV9ZIzoDaS3vPKVYvPPfsanPN3WIx8hOZrWPumdVisomuSPhkV5a1LShFLVyQ8+PBGeuVMP4G75PndVKSNrK3+Tr5G1J1rjaNYkSXy5fNmVPW2RE+d0JB6a6FVHXakx6OCjVB+8zF+vfNDD7TTZlGZPtKbhd848U/T5tFI4+VKPfOQ/axafeqpYItczLJRoCaMFee9D2vWHPxS6paxrfvDhifDwA1hlUxsh/PQdd+QAfZT8R1vjNPFNNsG9Qb590V4jSsbj4hFN4+I7162z/OK4c5w04ID9Us2HAaE5ulCPfETkxEP6ztsTjeCk18IflGt/+ZnqkY/df/yjiNumgNCLKN9y++0iKufvOCUSpfyFQun1Fn1PPumUvaJzfvDhyVpt1LTTTMOq5QADetipWj5nu5x38Lx8z8XhtprUWbItleYn0NtGqSmNxOY0+brfo9785hxynpSdrTrWP+qS/9iUKF5Tm7R08ZEDsCEH9crHqZdfPmOxSZoF/za5ynEpaf2nPlXy6xUK2a9XPui9RvfJFpfX33xzFh56Odxlzzwj7r3qKvHcr34laIrI/COOEPSCytPl20lp+DQn6o/+sZzHQy09KpNffHgiPAQUNe+MyTeRUnObKuEhu7+Sy0m895FHRJPtl8NL3/teQZ/ZEi1NQV8CHalDTvyixM1ZOspQYVMXHyp8U2mjXvl4yUUXOcLYPfX9dLzocJIWEFWZ6pUPwvCxr39d9L7iFYImgnKas2iReMtUyw29DptqQk6JfgC8IJ9zqpNffExLquqI8uzZm3e4TTEvS1mHB+Qgg2+efLKgt4u6SUO7dlkT5Yq9BtiNLac8flRbnfwodk4XH8XK9fp6PfIRlG/mPWz1aq+hdlVePfJhB4bePPr0D35gP5XddxKdcbkU2M/e9z7xu899LptP5Y5ffHgmPNy8Q+PFeRSFKgAHZdvnf8m1jP4ih40SUU6Jho/Swoc3yeHUw1J8dKQjpgY30Gg2U5vZOG6dfHAZ+VviwJ7yV5+wX1OxX6985K9KUAmWKjmqVz7s+NPyOD+RNR5aj21ANrPNlmgVferD/pocXPC4nPSrY56Vn3wE9my8ZTAQ29Y+GwAqz9NKzZuHX2a9nXPTddcpbXKz+9khJ5MuOukk0d7bK+jd8/s3bxb75Outc9ZEst+gYJ9qcafIzkJKy1qfEC1h81dE8IoPBfCWbAJ8lAyZ1hvAhzO89LpxWqh1vhQYEhtaO5K6AmgASCZvJX1nC+Wd9YuPTHT50MJjLu3wrI+H4KFf2VQbGJS1HtV9PXb4qQZEHy/T6qk+I4qvGkSHsPGKDy954LLAByNhxhZ8OPMwJl8Vv+Ohh6yPcw49Z/3mw7OmNoavM7rd2qW2xVoZzktxcCwcH8dr+pb9BR9mMAU+zOCBvQAfjITarefCQ7+yO6M7rChU9/Wohca9NY6D4qL4qimBD7PYAh/gQzcCJjyvPBceArUj0mc9oKmWwB1cusHWZf84ubIvxUEPjAVTtTldZemyCz50IVueXfBRHm667gIf6pH1RXjoIb28dXIGLjXxsAKrD0+vRZp8xU1si5v/prcwjdbBh0ZwyzANPsoATeMt4EM9uL4ID4VBZNLoL0pdclIpz6C1TlTBHxIc7qCrllFshWAFH4XQ8f4a+PAe80Ilgo9C6JR+zTfhIVdp9Bf1izR2dlq1HhriVw2JRIea2Cgtbt5UNaPYimELPooh5O118OEt3sVKAx/FEHJ/PXTV5ef/UyA5GHV/i9qcNIM+kW4SyaYuMV+umpuUE6xGfV7EsFCEdtGh9dgWNvm74GIhX8u5Bj7KQU3fPeBDH7blWAYf5aBmuyc8N37DTf/7Od+Fh1xqCo2IVKbBEp/WVatEuLVV2+RSGwQl71Jz4NFTq1+T6HA/VcmGDL8BfJhFEPgAH+UgYOTzakp4PF25oBh4e2PLxECs18o2IN+VQ6sbmJJ49Br5Q82D1TqCrRQ8wUcpaOnPCz70Y1xKCeCjFLQm8/LKBUYJD7k2mmwX20cmV3imVax33Hqrr7UfalqjUXe0pVQLAwmsQFz+AR8ugfIoG/jwCGiXxYAPl0BNZTNWeMg/WkNs28jx1paOqfbTJ9+7o/J1CmS3UKKBDiQ4vHorNa3RLGbqYKy3ZCQfIclHE/ig76IR/x/gw6znlaF8GC089M9ED7vBie5s01u8v98SHqoBxeQ743UlEhxqG+25+OJsEfXStJYN2GEHfDiA4uMp8OEj+A5Fgw8HUBxOGS887DMROiD7fgYnuqxTLECqa0AkNvRSJK7hUGG04Gc1TwxlDFVuwYdKNCu3BT4qx1ClBfBRGM2qER4OgwjdPXaE9RZTPmcXITpXSlMc1Wyo34YEh/tv2C41qy1p3lR1666x/15swYcXKLsvA3y4x8qLnODDGeWqEx4Ogwgdla/QPihrQPQq7fxEYkSJRYib5VhceJt/H4lNq+y/qYfRavmxV3IMPipBT/294EM9ppVYBB+56FWt8NjDsJNK+/Rxm2gJDBooQBPCaBFApMoRAB+VY6jSAvhQiWbltsCHfJGqHy+Cq5y6XAskHiQaduFg8aFaESU+bg4ftI7rcVSaFbgHf8CHByCXUAT4KAEsD7KCj2mQPX0D6XSx+vaIXEp2MdJXGiwXQwB8FEPI2+vgw1u8i5VWr3z4ukhoMVJwHQgAASAABGoPAQhP7XGKiIAAEAACRiMA4TGaHjgHBIAAEKg9BCA8tccpIgICQAAIGI0AhMdoeuAcEAACQKD2EIDw1B6niAgIAAEgYDQCEB6j6YFzQAAIAIHaQwDCU3ucIiIgAASAgNEIQHiMpgfOAQEgAARqDwEIT+1xioiAABAAAkYjAOExmh44BwSAABCoPQQgPLXHKSICAkAACBiNAITHaHrgHBAAAkCg9hCA8NQep4gICAABIGA0AhAeo+mBc0AACACB2kMAwlN7nCIiIAAEgIDRCEB4jKYHzgEBIAAEag8BCE/tcYqIgAAQAAJGIwDhMZoeOAcEgAAQqD0EIDy1xykiAgJAAAgYjQCEx2h64BwQAAJAoPYQgPDUHqeICAgAASBgNAIQHqPpgXNAAAgAgdpDAMJTe5wiIiAABICA0QhAeIymB84BASAABGoPAQhP7XGKiIAAEAACRiMA4TGaHjgHBIAAEKg9BCA8tccpIgICQAAIGI0AhMdoeuAcEAACQKD2EIDw1B6niAgIAAEgYDQCEB6j6YFzQAAIAIHaQwDCU3ucIiIgAASAgNEIQHiMpgfOAQEgAARqDwEIT+1xioiAABAAAkYjEDbauzKcS6Sj1l2jyQ5rS8cNwZj8jFvHkWDcOi7DNG4pAwHwUQZoGm8BHxrBLcN0vfJR1cJDpJHA0Gdwoqsk2kmMWsJDoiOyx9qWdDMyOyIAPhxh8e0k+PANeseCwcc0LFUnPEzeQSk0Y1O1mulwhIj391uHQ08+aW1jfX0i2t0tGrsmhYn3yc7gBH26RCg9JhojE4JqQxAiO5rF98FHcYy8zAE+vES7eFngwxmjqhGe0WS7FImFM2o2A/feK0hcdtx6q3OEs5wlAWo//njRde651nYs2SzGZF4Soo5IPwRoFtz4NPhgJMzYgg8zeGAvwAcj4bwN7Nl4y2Agtq3d+bL/Z+kXw0BsWY7gkNgMPvGE6L/nHiUO5osQGaVa0JzoIdEZ3Y4+IRvK4MMGhgG74MMAEmwugA8bGA67mejyoYXHXNphtPDslYIzEOvNuk+Cs+m667LHOnZIhKgW1HPxxZb5sBgXrZFhsbj5bzqKqyqb4MMsusAH+Ki255XRwkPV1BfGjhT064ES9ddsvv56q0nNq68aEdp7ySWic906q0gajEDiQwMS6i2BD7MYBx/gIx+BanleGSs89E+1feQEC1cSHOq74YEC+WB7cUyErr76aqsfiGo/Xc07Zf9PnxdFG1EG+DCChqwT4CMLhRE74KM0Glh4Qlddfv4/BZKDk1WL0mwozz040S12jR5r2SWxeerKK7Oj1JQX5tJgcmTEEr6GOXNE08ojxVisSWSCEVnzGXRpoXqzgQ+zuAMf4KMYAsY/r8Jz4zfc9L+fM6aPZ9vI8dnh0dSspmrgQDGiSrlOTW/c90Mj32q53wd8lPLN0J8XfOjHuJQSwEcpaE3n5RqPEcJjJ5FqOX42rU1D5LxHQ7CPu/FG62Ktig/4cOber7Pgwy/kncsFH864uDnLwuP7Wm00MocngpouOgQsieKfL7rIwpjm/JD/tZTAh1lsgg/wUQkCpj6vfBUe6pjj4dLVIDr8BaAJq+Qvpf2j8+Uco26+VNVb8GEWfeADfKhAwMTnlW/CYx8NQn06JjevOZFP/u687TaRCrWI/rEeuV6csXNwndyfcQ58zIDE1xPgw1f4ZxQOPmZAUtEJ34RnYHyZ5Tg9wE0cSOAGVRrqTZNak6LJmnfk5h5T84APs5gBH+BDNQImPa98ER6r3TrVYdVyuMlKNche2eN5RjTZlSa9VmMCH2axBj7Ahy4ETHle+SI83K9DIFR7ovZTaiqkNDLRll1toZriAh9msQU+wIcuBEx5XnkuPFwroCaqauvXme3LQGRykxstaFpNCXyYxRb4AB+6ETDheeXpaxGoOYpf2OZlbWfdDTeIZWvWWHwO794tfvh3f6ecW4qH1nU7FJsjRiPtVbGmmy4+lr785WLhSSeVjPGLjz4qdv/hDyXf53QD+HBAJRgUS047TSw6+WSxSPJD28b2dnFwyxaxb9MmsUti/9T3vicyqZTDzZWdqnc+Oo87Tqw455zKQJR3Dzz9tNh6330V2/GbD0+FZ/fYERZgNBqMVNeLdOSb3yxOnxr6TOW1906vdq2yfIqH4qKVDei9QdWwmKguPk674gpx9FvfWjK8T0r8VAkP+MiFPzp3rnjz7beLVa99be4FedS2eLHofeUrxUnve5/1v/Krj3xE7NiwYUa+Sk7UOx9HyefQmn/910ogtO597u67lQiP33x42tTGE0W9GsXWumiReMM3v1kx2W4NcFxUq6uG4dW6+Og+YXKRV7e46coHPiaR7ZJ8vP+xxxxFJx/7rpe8RFwsf1EvPfPM/EsVH4OPiiFUasBPPjwTHhqpQ4n6QkhttadAQJx/yy2i+bDDtBfFBVBc3G9FtR6Tky4+InIx1bkrVxoROvgQYv7RR4v3yCa0ucuX53Cy5/HHxcNf+pJ4TP4w2/vXv+ZcC4bD4m0/+pFo7uzMOV/pAfioFEEhkvF45UamLPjJh2dNbSNTEyzpzaFepJfJ5oKVU+/S8aI8LoN+RdB6bhPpRj5l5FYXH10y9oAUfU79Tz0lfv/5z/NhwS21X6tOdc2H5OH1N98sGpqasrCmk0nxs/e+VzxpG1EaCIXEKz7xCbHm058WAdkPRGmObC2gJtMH5XmVqV75oGbkA88/7xrKoOTk/O9+Nyd/fHhYPFAjfHgmPLqadXKYmTpYcMwx4pzPfc7pkvZzXOOJT0S0l1VJAbr4yG9m2yKbbZ7+/vcrcbWie+uZj9VveIPVd8MAZjIZcdc//IP461138SlrS4MJfvPv/y5aurrEqZdfnr226rzzlAtPvfIxuHWroI/btObaa3OyEnc/eec7xf6/qX0Tsl98eNLUxmuZcZA5iCo+CEYiVidqOBpVbNmdOa6+poLNxvbz6OQjX3j2yL4FP1M983HcO96RA/0zP/zhDNGxZ/jdZz8r6AHHqVvWXkmMVKZ65sMtjitf8xrxyn/5l5zsD/3bv4nNP/tZzjkVB37x4YnwjCY7LIy4M0sFYLPZOPs//kPQPwynZ/N+3fF5nVuO09R+Hp18LDzxxBxoaYi036ke+aC+ttWvf30W+rSs1RRrpjn0wgtWn8+zP/6xePQb3xAPyV/d4wcPZm2o2qlHPtxiR7z93Xe+k9NcvfuRR8RDskaqK/nBhydNbTzCS3eNZ9mrXiVO/9jHsvwMy3+kX152WVlDe7NGytjhODnuMkxovYX9Yj9VFRaQndLUzMmJ2qRLadfm+1RvOU6OW7X9Su2xX+xnpfbofpqjY+/boZrn0PbtRU3/8oMfLJqn0gwcJ8ddqT3V97Nf7Kdq+4XsUT/bnIXTA5PoB8MvPvABIdLpQrdVdI3j5LgrMubyZk+EhyYqUqJqna5E8xTeJDtMuWObmgx++q53afnFViwGjpPjLpbf6+vsF/upqvwFRx0lwo3Tgyr2/OUvQhIiel7xCtF57LHCui6bQAc2bhR9cpAJfeKD+l8hznFy3KriVWWH/WI/VdglvO1p6wMP2A+tiaPtPT2isa3Nmjw6vm9fznWdBxwnx62zrHJss1/sZzk2yrmHfrTRoCh7opGH/XIhZZ2J4+S4dZbFtj0RHi5M5/Z1cvRO25Il2SL+9NWvim333y/oV7gfKd7fLxpl+ziR2RCM+eGC52Xm9+90yCG8H5Kj2jpttSC7UzTC6jef+Yz4jWwezch9nane+OiU83HsaffDD1s/Aqjf5yT5C7pHri5hT0M7dwrK88A//7M4WMLoK7uNUvbrjQ832Jz3//6foKHsnIZ27RIbFEw6ZXuFtl7zob2Ph6tvXJ0rFHy5114i/5mOvfDC7O375MiP+//pn7LHfuzwrwjThlXr5KM7r3+nQ64SMZvoECf0T0ZNC++TbdiHHXmkVprqjQ/7jzAClloCLvrVr8SbaHWNPNGh61T7OeaCC8QH5fyeE979bjqlNdUbH8XAXH722dllvTjvg/JHQGJ0lA+1br3mQ7vwaEVLGm9ftky87mtfyxaTSiTET6QQJcfHs+ew4w0C+TUet6UufOlLxdt/8QsRts03cXsv8jkj0Cg7qe3pfNkMffi559pPOe5HWlvF333722KNHEWF5B0CL7/66pzCDsj1856+446cc7V0oF14xpJzLby01HjkZDf6BUft1JxoJI7fQ3jJF6q6UkqkpyfvWSd8/qOTDyfhoVFtv5YTEW+WIw0/I4Xl63L5FmrOScZymx/nydUO1mocuVNvfNDoKHuKysVAOY3I7+ajX/+6xctv//M/BY2ayk9nfvzjOQNF8q9XelxvfBTCi5Y0yp/sbg1t17BY62x+eM3HdIPibB4ZfP7Ma64RvbLjmhO1URNhJiSuunrZYedn3K1yJE6THOBhT5tlLebOt71NpGwiQx2l9PnrT35i1XJIcDjRTHlaHVlHZ2q98UE1F6f0t5/+VPxMLgaaM5hAzhk57R//UZwj/3dCch4cpVBDg3i9FKdb5OKhcnKPk6mKztUbH4XAyq/tUH8brXTgZfKaD+3Cwx3r0e5upTjSsvv25oAJ2RZKM3t1LOlejuMcL8dfjg0d97A/7J+qMsbkqKhvn3GGoAEFtC4YjSr8vXxB3myDBmgGNg0TvVgOAOFEy4RQW7cO4eF4OX4u0+8t+8P+KfPHQSzoh9mP3vKWmUNzZd6Hb7xRRFpaxFrbjPkeuVAoDVIYkANEVCeOl+NXbb9ce+wP+1euHbf3NS9YYPWt2fPTElNp2WXgZeJ4OX7dZWsXHh0BhJubrdUJ6FcZp3vl/B0vRuNwedjmIkD/KLv/+Efrk3tl9qNtcojvpp//XBwhl3bhlD8MmM9jWxoCEyMjOTdk5DyQn7///TNFx5aLHngnvuc9ggaFcFogFxnVITxsv963R77pTYJ+cHGiRUCp1l/rSbvwtIQn52nQwpmq0quvu07MP+KIrDmqmtJLrBbkzV2gDPbhiXRMna72fDRbO6ZhdjbHy/FT2SYk9of989sn+hVuFx5all9H4ng5fh1llGOT/WH/yrHhdE/80KGc0zSRt9girNQkukWuHk/v5eFEoxI38oHCLcfL8Ss0XZEp9of9q8iYi5vz31tF79uJDw25uFNtFo6X41drfaY17cIzs8jKz9BLq+yJhoLSfBE3idqwL7OtgvxnOf/nbrm6AZI/CBzMWzgxfxiwP15Vf6mxvIm5Y/v3uwrqwHPP5eQ7bPXqnGMcqEOgSb6yZfnatTkGa3kkmz1Q7aPauM2QJlOamHgZeNW+cbwcv2r75dpjf9i/cu0UvI+W1p9aXr9gPnkxvxOcljnSkThejl9HGeXYZH/Yv3JsON2zL+8dO/Zmaaf8fI6mI9gTLdmiI3G8HL+OMsqxyf6wf+XYcHvPEW98Y06LDC0xRQNy/EgcL8ev2wftwkMBcDBcndMdFOwXRkAHH6dfdZX40DPPiKvkUN1PTkyIs+UwXTfJ3mRK+Wnyb70lHXz022r1hCcNEqCV24sl+yhDyju8e3exW2ruug4+nEDKb7kh0bGPAHW6p1bOedLURkSqHFb8O9nHM3fFClccWLPj85adePCTn8zeu/O3v83uq9rpveQSy1RHZHIujyq7quyo5oP8ooUN7asU0LtcHiiyegS9gOzw1742JywdwlOPfFDfmT3RGno0UfeFvPP2PLS/5LTTck4NbtuWc6zioB75cMJt8ctelnP6RZ9eIeIHH54Iz1z5AKYXj3XL90yomEj6TAkzemmttjU24aG27t/K9cF0Jh6a6FVHXamxqBpm4qkAAB7USURBVOaDyqcXvp1+5ZVZV2iQQI/si9v5m99kz+XvnCL71uxiRdepc1t1qkc+aITnC3/+s1h8yilZOF/75S+L765ZM+uqHke99a3WqtZ8A42Eo1GHqlM98pGPYWNHh5ift0zUXrl4rh/JDz48aWrjB3C9NLV1Tr1ym+P248tUqEz2SyUfO6TA5L8P/s3yzaM0T8EpLT/nnBkrFdB7YF7805+csld0rh75IMAel+91safFp55qrfRBK4bnp3mrVolzb7gh5/T2DRvEIQ1NbfXKhx1c4oJX0ufzA7Kp2o/kBx+eCA817TTLYdXUgaXyYecHScXK7JpaD4vi5bbiYvd4fV0HH8mxMev1yfZY2pcuFZfJf6bj3/UuQSN4qPbZJYfVnyMnlr5T1mzsy7hQp7aOhV3rlQ/i4S/f+pbIb76h4bsXyJcjdstmNxKgFjmxmxYFfb9c2ohGh3KiQQX3y2VzVKd65sOO5bzDD7cfChqFSFM7vE5+8eFJUxuBqaN5x2uS3JTXIdddokTxmpx08EHrfi2VKx+vsvXbtHR2ivNvuaUoFPfIZjodE4DrmQ9axeN/Lr5YvEOuSm0XlaPe/GZBH2pKm21U5+9lP6qO2mc982H/J7C/7I3O+1Xb8YsPT2o8BKy9eYfbFOl8rSU/qq3lYKiFD7n0Cq0MXsqQUGqe++Xll4s/y3eR6Eh1zYcEdN+zz4pvyNrNc1J88tNsokOvWX5Qrt+mI9U7H4wprW1oT34Jj198eCY89uYdHkVhB17bvnwYJmQzEKf8pUT4vIrtEXLRUko0ms3UZjaOUxcfsQMHxA/kEjjflwNJ9sqH3myJVqemhUJvPu448ehNN82WraLz4GMSvnE5oOaO173OasqkUYNU03FK29avt3jb8KlPaVkYFHxMo56/piS9ldfr5CcfgT0bbxkMxLZNr5muMXoaUr15+GXWKwM2yaq8ihFuGt0tyTTV4k65/XbrnmWtT8ganvfLXpTksMzsBR/Ut3OYXN6IRvA0zZsnaDHRQy++aC1xlMhbT6xU/wvlBx+zo0OvTKCh1dTfRg/Awe3bxV454XQwbxWJ2S2UfgV8lI6Zzjv84iMTXT608JhLOzzr4yEQ6Vc21QYG5SADVUOrdZJTiu3VUy9yoviqQXS84oN+be+W6+jRx8sEPmZHe0Ku47bjoYesz+y51F4BH2rxrNSa33x41tTGQHVGt1u71LZYKyPcKA6OhePjeE3fsr/gwwymwIcZPLAX4IORULv1XHio1tMZ3WFF4Wlfj1rccqxxHBSX6X07OY7LA/CRj4i/x+DDX/zzSwcf+YioOfZceMjtjkif9cCjWgJ3cKkJx3srx8kXaFEc9AVdMFWb896LykoEH5Xhp/pu8KEa0crsgY/K8HO62xfhoYf08tYnLX+oiYdrDE4OmnyOJl9xE9vi5upd3BJ8mPUtAx/gQwcCJj2vfBEeApX+uWj0F6UuOfSWZ9BaJ6rgDwkOd9BVyyi2QrCCj0LoeH8NfHiPeaESwUchdEq/FgxkgpnSb1NzB43+on6RRjm7nWo9NMSvGhKJDjWxUVrcvKlqRrEVwxZ8FEPI2+vgw1u8i5UGPoohVPw6603oY5e/7epAcn9T8Vv05KAZ9Il0k0g2dYn5Z54pknJux+iWLXoKU2DVLjq0HtvCJnN9LSdc8FEOavruAR/6sC3HMvgoB7XpezINnWM33PST60NX/Z8LpfDsbZ6+5P1eU2hEpDINlvi0ylVyw62tRk4upebAo6+91gKIRIf7qbxHTG+J4EMvvqVaBx+lIqY3P/ioAN+G7rEbvnbX9YE9f71rIDD2lPPa9RXYL+fWvbFlYiDWa906IFcvptUNTEk8eo38oebBah3BVgqe4KMUtPTnBR/6MS6lBPBRClqTeTPNx+1deNRbOwN9m+9+URx6OHfFutLtKbtjNNkuto9MrvBMS+rsuPVWX2s/1LRG/U+0pVQLAwlKIQt8lIKW/rzgQz/GpZQAPkpBS+adc9qe7tXnLQrsee6hnYHhB5aWeLvW7LSG2LaR47Ovy6baT9+vf+2pANFABxIcXr21OTQoOpu218xAglIIBB+loKU/L/jQj3EpJYAP92hl2s7etXDVWT2BPVv+sD04vKE3k465v9uDnETm4ER3tukt3t9vCQ/VgGJ9fdo8IMGhvpwe+R4TTvXStMbxOm3BhxMq/p0DH/5h71Qy+HBCJfdcIBgV6bY1OxauPGOZJTzh0b/0phIDubkMOSJCB2Tfz+BEl+URC5DqGhCJDb0UiWs4VBgt+FnNE0N1UAg+dKBavk3wUT52Ou4EH7OjGmroFMmWl04LTzS2uzce8+d937O7mXuFCN09doQYS3ZkL9hFiE6W8poFqtlQvw0JDvffsGEasbakeZM1yZXPYZuLAPjIxcPvI/DhNwO55YOPXDzoqDF6rIhFl0wLT0tyonds5MGZOQ08Q4SOSvE5KGtAdhFiV0mMKLEIcbMciwtvOT9vSWxa5YTWehitxjGr2IIPFSiqswE+1GGpwhL4mEaxufVVYjQcmRaetkxz76Hhn8u3Diamc1XBnp1U2qeP20RLYNBMZJoQRosAIlWOAPioHEOVFsCHSjQrt1XXfAQaxJy2N4jhwJglPJMvggsERENkiUjEt1WOrocWSDxINOzCweJDtSJKfNwcPmgdk9gg6UEAfOjBtVyr4KNc5PTcV898kL4IqTOcsm8gDTf0VJ3wcBD2LZFLyS5G9uvY9xYB8OEt3sVKAx/FEPL2er3wQfpiT9nVqcPh+SIY9HXlHLtf2AcCQAAIAIEaQIB0hfTFnrLCQycbGg+3X8M+EAACQAAIAIGKEHDSlVzhiayQzXCRigrBzUAACAABIAAECAHSkwapK/kpR3gCgZCINK7Kz4NjIAAEgAAQAAIlI0B6QrqSn3KEhy42RA+XGX17PU++fzgGAkAACACBKkSAdIT0xCnNEJ6ACIvGpuOc8uIcEAACQAAIAAFXCJCOkJ44pRnCQ5lozHWoYXJtNKebcA4IAAEgAASAwGwIkH5Yc3dmyeAoPJQ32nySbHJrnOU2nAYCQAAIAAEgMBMB0g3Sj0JpVuEJyva5aPPJ8t7p2aaFDOEaEAACQAAI1DsCAUs3SD8KpVmFh24KN3SLSHR1oftxDQgAASAABICAhQDpBelGsVRQeOhmWso6HDHqBaXFYsJ1IAAEgAAQ8BgB0gnSCzepqPCQkSbZ5IbBBm7gRB4gAASAQP0hQPpAOuE2uRIeIYLS6GkQH7eoIh8QAAJAoE4QmBSd02S0LuWklJyBQFg0t5yBZrc6+TIhTCAABIBAMQSoeY10gfShlOReoiyrVPM5VQ44OEIeYbRbKUAjLxAAAkCgdhAIWDpAelBKTYfjL02mpu6iDqRQaL6IjT0qMpk428IWCAABIAAEahyByXk6J7savTYbFCXWeKbN0JC55raz0e8zDQn2gAAQAAI1jQD159Bz382Q6UJAlFXjYYM0Sai55UyRmNgt4uNPydrPOF/CFggAASAABGoEAVrwk9ZeK7QMTimhViQ8XBA5E450i0TseTERf04K0ARfwhYIAAEgAASqFAF6nw692sB6a8EsC36WE5oS4aGCaRXSSPRI+RbTVbIGtFUk4s+LdHqsHJ9wDxAAAkAACPiIAL2umt4cSi9xc3qfTqWuKRMedoRfJkcqmUzuE8nETqspTmQSnAVbIAAEgAAQMA2BQIPVlBZu6BHh8Hyt3ikXHru35Dx9otETRSo1KFLJAZFMDYh0alhk0jF7VuwDASAABICAhwgEglERDLWJcKhThMLyE+qgd1V74oFW4clGIIMJhedan4igOUAyZZIilT4kRWhUHiRlv1DSOpcRaesy/gABIAAEgEDlCARoRQE5wXNykmdYik2LCAXnWOcqt16eBW+Ex8k3CUQoJMVIfpCAABAAAkCgfhAoex5P/UCESIEAEAACQEAlAhAelWjCFhAAAkAACBRFAMJTFCJkAAJAAAgAAZUIQHhUoglbQAAIAAEgUBQBCE9RiJABCAABIAAEVCIA4VGJJmwBASAABIBAUQQgPEUhQgYgAASAABBQiQCERyWasAUEgAAQAAJFEYDwFIUIGYAAEAACQEAlAhAelWjCFhAAAkAACBRFwL8lc4q6Vl6GeHJyrbfh2OQ7gei4MRyUn5BlkLZ0jOQNAuDDG5zdlgI+3CLlTb565aOqhYdII4EZjiXF3pHSVrsm8WmLRsSC1ka5bfDmW1bjpYAPswgGH+DDLASmvak64eF/pr0jcSk4M9/xE+/vt6IbevJJaxvr6xPR7m7R2NVlHfM+2SGxok+DXBG7Kdpo1YogRNNfDjd74MMNSt7lAR/eYe2mJPDhjFLVCA+JDIlNfs1m4N57BYnLjltvdY5wlrMkQO3HHy+6zj3X2iYsEaMyYrIWFEVNaBbc+DT4YCTM2IIPM3hgL8AHI+G8DezZ8oftbaKl1/my/2fpF8PuwbEcwSGxGXziCdF/zz1KHMwXITLaIDKio7VJLOloRp+QDWXwYQPDgF3wYQAJNhfAhw0Mh91hMbpj4cozlhktPCQ49OFEgrPpuuv4UMuWRIhqQT0XX2zZj8hxCO3NUbFyfquW8qrJKPgwiy3wAT6q7XlltPBQNXXLvkOCfj1Qov6azddfbzWpefVVI0J7L7lEdK5bZxVJgxFWzp9TlwMRwIdX3zp35YAPdzh5lQt8uEfaWOEhEp/tG7IiIcGhvhseKOA+PHU5SYBWX3211Q8UCQbE0nktVh+QuhLMtgQ+zOIHfICPQgiY/rxi4Qld9dH3XNEoIh2FgvHqGnXsbx44ZBVHYvPUlVcKHqXmlQ/55SRHRizha5gzR0RXrBSHRsZFOkBDsWt/CDb4yP82+HsMPvzFP7908JGPSPHjuEgM3fCVb3/JmD4equXQrzlK1KymauBAcSjc56CmN+77oZFvtdzvAz7cfy+8yAk+vEDZfRngwz1W9pxc4zFCeOwkUi3Hz6Y1O0hO+zQE+7gbb7Qu1ar4gA8n5v07Bz78w96pZPDhhIq7cyw8vq8dQyNzuKZjuugQtCSKf77oIgtlqmrbR925g97sXODDLH7AB/ioBAFTn1e+Cg8JDj+4q0F0+AtAE1bJX0p9Bw7lzDHiPNW4BR9msQY+wIcKBEx8XvkmPPRPRVVWStSnY3LzmhP55O/O224TyWBI7Dowmq21OeWthnPgwyyWwAf4UImAac8r34SHazoEiIkDCdyQTkO9aVLrRDpjzTtyc4+pecCHWcyAD/ChGgGTnle+CA/9U9EvOhIdbrJSDbJX9nieEU123bJvxKtilZYDPpTCWbEx8FExhEoNgA+lcFrGfBMeKp0e2tWeqP2UmgopDY3FsqstVFNc9I9FCXyYwRr4MIMH9gJ8MBLqtp4LD9cKqImKajy1kEh8JpvcRHawRLXEBT7MYgp8gA/dCJjwvPJUeKg5ioYgU6qFX9f2LwjHMyhXNqBmxGpI4MMslsAH+PAKAb+fV3L1sUDGq2Bp4U9KNBqMVLeWEsVDcSVEQIprvCpCAx9m0QQ+wIdXCPj1vGK9CWZEJuVVsFwTqNZRbMVw4rioVsexFrvHz+vsI/vtpy86yua4wIcOdEu3CT5Kx0znHX7wwXoTlO87m9AZHNvmDjrqC6m12g7HSHFxv5XptR7wwayZsQUfZvDAXoAPRkLxdkpvgplgxhPh4V/X9ObQWk78KyKe9KwiWRac4KMs2LTdBD60QVuWYfBRFmxFb2K9kX08mfGiuRVkYCL5wazApJEmuMYzHjO7nwd8mPX1AR/gww8EvH5esd4E0yI1oDtgHsnGQeouz0/73NyWEEFj+3nAh5/fkJllg4+ZmPh5BnzoQz8pEv1kPZgOpnboK2bS8nAsae3Uem2HceQ4Te3nAR/MlBlb8GEGD+wF+GAkNGyDmZ1kNZgOiOc1mM8xORyb7EaqhxoPBc5xctw5YBhwwH6xnwa4pNUFjpPj1lpYGcbZL/azDBNVdQvHyXGb5jz7xX6a5p9qfzhOjlu1fbu9dDrxHB0Hk8HUevsFHfs0MY5SrY5my8eM4+S486/7fcx+sZ9++6O7fI6T49ZdXqn22S/2s9T7qy0/x8lxm+Y/+8V+muafan84To5btX27vWRDcAMdB1cuffXTcnFlJMUIxPutpsyqXLtNMRRGmAMfRtCQdQJ8ZKEwYscLPkhnSG8oYGvJnFRGTFZJNEDAo3W4OqehCCNNTv+KMGtYNfgAHyb8w+D/wwQWpn3wgg+7zljCkxAJs8f+TuODPSAABIAAEKhCBOw6M1njCSa0LZxWr7+wp6uu+IVtwv8I+DCBhWkfwMc0FibsecFHyqYzlvAkgxOPmxB8LfkwXXXV1opZS3BpjwV8aIe4pALAR0lwac/sBR92nbGEJy2Sd+mKrDFsFSGi3d26ijDSLsfL8ZviJPvD/pnil24/OF6OX3d5bu2zP+yf2/uqPR/Hy/GbEg/7w/6Z4pduPzhejl9HeelQ4k62a6lCz/KzfyA7fpCAABAAAkAACChHgPSlp+ecH7HhyeqIPIpnEpNvaOMrirZt0Yhlqf344xVZrA4zHC/Hb4rX7A/7Z4pfuv3geDl+3eW5tc/+sH9u76v2fBwvx29KPOwP+2eKX7r94Hg5ftXl5etLVniSwdhW1YXBHhAAAkAACACBfH3JCs9EcPT7OuDhNsPGri4d5o21yfFy/KY4yv6wf6b4pdsPjpfj112eW/vsD/vn9r5qz8fxcvymxMP+sH+m+KXbD46X41ddXr6+ZIWnd/m5n01pWsKAg+HqnOqgYK80BMBHaXjpzg0+dCNcmn3wURpexXKTrpC+2PNlhYdOxgMTh+wXVe03hkOqTFWFnd5LLrH8XNAaNdJf8GEWLeADfPiJgO7nlZOu5AjPRHB8vQ4AFrQ2Wma7X/MaHeaNs8lDE9uiYeN8I4fAh1m0gA/w4ScCup9XTrqSIzypcPxDOkZV80iJemlq61y3zvoecdx+fqmcyma/wIcTOt6fAx/eY16oRPBRCJ3SrpGekK7k35UjPD09614cTydG8zNVekxtpm3RBkEdWLX+sOs691wLLiveqcmzleKn+n7woRrRyuyBj8rwU303+FCHKOkJ6Uq+xRzhoYvxhpG78zOpOK6X5oSOE06w4OJ4VWCnwwb7V+vNn+BDx7enfJvgo3zsdNypm4+J8OgvnPyeITxDowPvTmlYXsxefeU2RSeHqv2c6c1sjC/4YCTM2IIPM3hgL8AHI1H+lnRkcKz/vU4WZgjPMcdcMDIeGN/tlLmSc/bqK4+iqMSeifcecc01lls0mo3iNTmBD7PYAR/gw2sEdD+vSEdIT5zicnw6xiMjVzllrvTcyvlzLBPUz1NrfT1Ui+PaDjdjVYqX7vvBh26ES7MPPkrDS3du8FEZwoV0xFF4aDG3sbT6tdvoV51VG5CDDGqtb2H11VdbLFF8NLCgGhL4MIsl8AE+vEJA9/OK9MO+KGh+XI7CQ5nGQsNfzc+s4nhJR7NlhmoHtVLrsdfgOD4VWHlhg/0FH16gXbwM8FEcIy9zgI/y0C6mH7MKT++KV10dz6SUvz6TftUxmbXS18NxUFwUXzUl8GEWW+ADfOhGQPfzinSD9KNQHAWfkqPBoVsK3VzuNe58p5oCd3CVa8vv+4678Uar5mZ/YPjtU6nlg49SEdObH3zoxbdU6+CjNMTc6EZB4Vm6Yu374ulUsrRii+emh/TR3R1WRmriYQUufqdZOWiyKDcXckekWR668wZ8uMPJq1zgwyuk3ZUDPtzhRLlIL0g3it1RUHjo5rEGPX09k2S2W/51yTXceMZ/MYdNuU6Cwx10R3e3V82AgtnwAx+zIePPefDhD+6zlQo+ZkMm97xbvSgqPEuWrblyLJMYzzWv5ohGf1n9Ip2dVq2nWiaWkuhQExullfNbq150mE3wwUiYsQUfZvDAXoAPRsJ5SzpBeuF8Nfesq/cVfPiqC55vSre8NZB7r5IjIjOeTIt4JCrmn3mmSI6MiNEtW5TY1mHELjrk+7J5rTqK8c0m+PANeseCwYcjLL6dBB/O0NNioIciB975xS/ettE5R+5ZV8JDxj7y0Uve0ygaJtvGcm1UfNQSCQt6WRCJT+uqVSLc2iqGnnyyYruqDVBz4NHXXmuZpS8gNbHVYgIfZrEKPsBHOQh4+bwaEWO7Fi8/y3F5HCffXVdi9uy5e0HzyKL+cDDg+h6nAgud2z04JuhDaeDee8Wm664rlN3Tazx6jQql5kEeEu6pEx4XBj48BrxIceCjCEAeXwYfk4AnMyIz1vJC18KF5+11S0FJIvLijoe+1J7s+Khb4+XkG44lxLN9Q9atVOvZceutvtZ+qGmNRt3RllItDCSwAnH5B3y4BMqjbODDI6BdFgM+hBgKD355Ue9ZV7iEzMpWkvDQHf3P/Wlfa7DxsFIKKTUv9fk82zdo9f3QvVT76fv1rz0VIBroQILD669R0xrVcmhbbwl8mMU4+AAf+Qj49bwaScf3d606dX6+P8WOSxaekf6Hu5KHonsaAvqa3Mhp+ufaOxLLNr3F+/st4aEaUKyvr1hcZV8nAqlttOfii7M26qVpLRuwww74cADFx1Pgw0fwHYquRz4SmUwmPCe2sLXrtH4HSAqeKll4yNr27es/Nj817wtl3VzQnZkXiVBqSyURosQCpLoGRGJDL0XiGg6VRTOWabg00jQC4GMaCxP2wIcJLEz7UC980Ci2faEDVy1btvaG6ejd75WtHS9u+d3D7WLOy9wXVVlOInTLvkOC2lQ52UWIzpUyEo5qNtRvQ4LD/Tdsl5rTaCUCmjSG5IwA+HDGxa+z4MMv5J3LrXU+hsShRxatPPM05+iLny1beMj03ucfHWwO6BliPZvrROhwbELWgOI5IsT5SYwosQhxsxyLC285P29JbLgfh89hWxwB8FEcIy9zgA8v0S5eVi3yISeKDi04/OTJNc+KQ+CYoyLhof6eieHGFxuDQV+qBnZS48lUdjCCY6R5J6k2Q6+3bYuGrSa1vMs4LAMB8FEGaBpvAR8awS3DdC3wEU+n0/HWPd2lDJ12gqoi4SGD27bdfdZhqcXrQwFRsS0nB0s9R+RSoloRJT7m0Wi8tS7ij3YEGH/woR1qVwWAD1cweZapmvhIyfk6+0MvrF2+/LyHKgVIiVjs3rn+g+0T824OKrFWaUi4HwgAASAABFQiIBeWEUORAx9a0rP26yrsKmkiI2eGw/u+MFnXUOEWbAABIAAEgIAJCNBznZ7vqkSHYlJaR9m1dcM35mbmvl+pUROQhw9AAAgAgTpEgIZNHwwc/ObSFWs+oDJ85Rrxwvbf3t6eanu7csMqo4YtIAAEgAAQKIgAic5QaPiOxctecVHBjGVcVNLUZi+XnCSFRLObHRXsAwEgAASqBwF6ftNzXIfoEArKhYeMUrVsOCT7fEgykYAAEAACQKBqEKDnNj2/VTev2QHQ2iJGo93aJubdZMpQa3vg2AcCQAAIAIFcBGjI9HDkwGUqBxLkljB5pFV4qAia59OeXPigX5NMnYLGOSAABIAAEMhFgCaHDoX3vErFPJ1cyzOPtAsPFUkvkQuPdj7n9fI6M8PFGSAABIAAEMhHgJbBSbYMrKp0RYJ8u7MdeyI8XDgtLNomFxb1tFAuHFsgAASAABDIQYC64YcrXPAzx6DLAy2DC2Yrm1YzpaW06T0Os+XBeSAABIAAENCPAD2H6XlcySrT5XrpS+WDFhcdHQ5u1P0m03JBwX1AAAgAgVpGgN4c2tKWPqacl7ipwMUX4WHHX9zx0JdaJto/Eg7qfZspl4ctEAACQKCeEUimM5nRyNBXFvWedYWfOPgqPBQ4DTwIjM19rFU0L/XdGT+ZQNlAAAgAAU0IUN/GiBjblWk+eJJXAwgKhWLMs37nzvsvbJrouEWOfGsq5DCuAQEgAASAgHsE5Ii18fHI4KU9Pef8yP1denMaIzwc5u7tG25sTrR9uDEYCvM5bIEAEAACQKA0BOLpVHKsYfirS5atubK0O/XnNk54OORdW9d/qyXdfmljIBTic9gCASAABIBAYQTimVRqNDh0y9IVa99XOKd/V40VHoZkx9YHr29OtX24OdgQ5XPYAgEgAASAQC4CY+lEbCw0/NXeFa+6OveKeUfGCw9DRn1AjROtX2jKNC0JeTr7iD3AFggAASBgFgIpuYz0eGB8dzwycpVJfTjFUKoa4eFANm68s7W9pfM7kWTL65oDkeaqC4ADwRYIAAEgUAYCNEJtLDMxNhEe/eXQ6MC7jznmgpEyzPh6S1U/t3fuvHdRKNl4cyTdtLYxE5kTClZ1OL5+EVA4EAAC5iKQku8qiAcmDk0Ex9enwvEP9fSse9Fcb4t7VlNP6h3b7vl4JN3yjnA6uqIx0BCVr2NAAgJAAAhUHQLy9QQinknEksHY1ong6Pd7l5/72aoLooDDNf1o3rntgX8IivBbw+nIiaF0Q3eDaGiUYhRExajANwKXgAAQ8AwBeumaFJl0QiTiqWCiLxmceDwdStxZTf015YD1/wGfXxpkT8Z3ZwAAAABJRU5ErkJggg==;fontFamily=Times New Roman;" parent="1" vertex="1">
          <mxGeometry x="580" y="370" width="414" height="412" as="geometry" />
        </mxCell>
        <mxCell id="hdJvPOuQKjUCLLla7TbE-3" value="" style="shape=image;verticalLabelPosition=bottom;labelBackgroundColor=default;verticalAlign=top;aspect=fixed;imageAspect=0;image=data:image/png,iVBORw0KGgoAAAANSUhEUgAAAZ4AAAGcCAYAAADptMYEAAAAAXNSR0IArs4c6QAAAHhlWElmTU0AKgAAAAgABAEaAAUAAAABAAAAPgEbAAUAAAABAAAARgEoAAMAAAABAAIAAIdpAAQAAAABAAAATgAAAAAAAACWAAAAAQAAAJYAAAABAAOgAQADAAAAAQABAACgAgAEAAAAAQAAAZ6gAwAEAAAAAQAAAZwAAAAALQZVhQAAAAlwSFlzAAAXEgAAFxIBZ5/SUgAAQABJREFUeAHsfQmcXFWV/qmlq6v3Tki6O2tnIRu7EJRFMRFkU1Fwm5ER3Nf/qKMMOm7jNuOgI4POCI4OIi64jo6gICAEXNmRJZgEsodO0kk6va/VVf/7vepT/aq6uvtV1b1vqTrn9+t+23333fN99c55995z7w1RBcr2vXefGB1LbgiHq1ZRMrQ0SlWtKQrVhJKhGIUoFqJQJEWpUCVBMzQWCu3vi1R1DYSiw+Oh0MgYhYcT4dB4UiEiIggUgEAkTKl4NJmqrqJkPJJKza1LJRY0jI/VVKVSBWQT+KTKjiiFU+OUotFUODUaotRQgsYOUji1J5kcezZRFb5v5ZKXPxV4RYtQoKyNyp49v31jeLzqDdFk7AWRZFVbFVVVR0IUDpe11rP/CpLq9d/VTfTMoRD99XCI9vWGqGekwkGZHTZJUSICTdUpWtyYonXzUnTc/BQtayaSd5FoPEXJMRobGQ+PHUiERx9PRsZ+snTpeT8uEW5f315W1mb3zjv/KZas+7toMr6iOlQVV05GZAIBfGtuO0L0x71heqQjRIMJAUd+HN4iUBtN0fqFKTp7SZJWH0MUkp9khhDljGgkNaYaHYZ3jIYHvt++/IIvZi6WwU6gqd6z566FkUT1DbFkzcbqVKwhUumfT3l+kCMJovt2hejuHWE6PBRouvNoJ6fKBYF5NSl6+YokbViWoupouWilT49x1UwxEhrtGw0PbRqPjrx36dLzO/Tl7n5OgbNEmzf/pL6pruXb1WP1F9eEq+oCp4BLHA8rh3P3jhDduT1M/ap1WUQQCAIC9bEUXbAyqZxQiuLigPJSho6yoeTYwEhV/+09A51vO/74N/TnTejjk4GxSOivqR6t//eaVM1i1XkpMgMCDz8folueDtPR4cDQO4M2cqkSEZgTT9GbTkjS6YtgZkWmQ0AF/9BQaGjfSKz/qiD1C/neMu3duemL8UTDh2rDVfHpwJfzaQS6hoi+/ZcwPd0pnll+E+WBwAktSXrbKUmaW1Me+pjUYjA5NjwY6f3P9hUvu9rkc3Tk7VvHs3fHpm/VJZveWh2KRHQoWu55PHEwRN98NEwDY76ltNwpEP0MIVBXlaJ3nZakk9WgB5HZERhJjY8PhHtuWrJi4ztnT+1NCt9ZqX277ru2dqzx76vDEWnhdfCbQLTaz/4apl8/Cyp9R6cDDSSJIOAEgRS9YlWKXrdODSyTn7kTwGgkOZ4YrOr9z8XLNnzY0Q0uJvINhejDqRltvqk2VCWVaoc/gIRq3/2fx8L0wPPStOYQMkkWcATOWJSkd5yapKj85B0zOZgaGxqKdb/VT31Anjue/ftvnx8anPNoPdUu8bwwjqn0PiHCpP/zYenP8Z4JKYHbCKDf5+9PT0rYdQHAo5Gynwb3pmqPnrZgwcWHCrjVSFJPvxs6dt9/XW3/woMN4nQKIhc1HXE6BUEmicsIAQTP4PeP90DEGQL4qIedhb2F3XV2l7lUnlQy+g8+0DrQG95cH65W45VFCkEAfTr/rYIIpHmtENQkbTkigGa3d6ugA+nzKZzd/uTIkbrG5PH1rWccLPzu0u9wvcaza9emjyT64vvF6RRHHgIJxOkUh53cVV4I4D3A+yBSOAKwv7DDsMeF3136Ha7WeDq2/+GBRmp4kasPLR0j3+SAkOn/eAAvmiDoG1KkIB4jkKJ/OENCrYslAX0/vdT34MKVLz6j2DyKuc8VC4YAguhAy7MqYq2pmELKPUQYHPqpTREZpyM/BkEgBwGM8/n8xnEZZJqDSyGHKvKtJ1HXucqtwAPj9dSdO29/aXX/ggPidAr5GUxNixkJZHDoVFzkjCCA9wLvh0jxCMA+w07DXhefi/M7jbK1b8+m9xwzvmhTdThs9DnO1Q1mSsy9JtPgBJM7KbU7COD9wHsiUjwCsNOw17Dbxefi7E5jDuH5Xfd8uWl07g1qTRz5NTjjIm8qzDKNCT9FBAFBYGYE8J7gfREpHgHYa9ht2O/ic5n9TiMWbe+O+/67cXzeVbI8zuwEzJbiru0hmWV6NpDkuiCgEMBs7FgKRKQ0BGC3Yb9hx0vLafq7tTue53f9/gdzUnPepT3j6XUo2yuYneAutYCbiCAgCDhDAOtP4b0RKQ0BWB3Ycdjz0nLKf7dWqwYP2TTe+Cb55sgPdqFnsXKoLOJWKGqSvpIRwPuC90akdASAIuy5iZqPNseDNsFm5SGF8tIJRw6YoQDLVYsIAoJAYQjgvcH7I1I6ArDnsOu6+3y0WDZEQTQmVJ9O6XpKDhMIbDtCdHhI3Lj8IASBQhHAe4P3R0QPArDrsO86o91KXvMGcd+No3Ov90sgwcjEzIG9w6MW6jiuVnOoV0fT68lhi2O/yx/3+r+MTjBsiI1byRbWp/nAcd9ohPpG0nz0jal9dSziDgKVwgfenzXz/D+LaFDslRVwoOy8svd/Xb784vtL/bWW9EmNGQkw6MircTogDQ6mV8VQHuofLggLOJ/GeIzm11erbVVB95pOnFTNBP/v9ggNJkqix3Qxp+QPowYHs0j9rZ6jplooQOB89g/EaMuRGupQW5HSEahkPmqjKfqvi8fJLx/EYLMc7NVIMpkcqd/fVuoMByXVeDANjttOh8k71D+iHM7YlLdz5GB6stWeJ56wrg0fOEDxtjaqbm21jnkf+cBZ4a+KklQTr7ZqRX5wRLu6KTBOh43bGuVouFZjJ8UpH8inITZkOaz+oRT1jldTv6oNiSOyozn7vvCRxggfbXiPVsyZHTOTKcrNXsHejyu7rzBrLgW3oj+pMeFnk5rws5SHF3IvnAycTW7NpvOuuwjOZffNNxeSneWMmk4+mVovuICwtcv8+rinNaFfbQupWXf93fy0sG6U1h6TdhR27Ezwse1ojTggO8h59oWPqaC8bt04vXK1N1EG5W6vekqcWLQox4OptOeNz/33om6e+vuY8Qy+GPZ1D2Y5HBi37r/8hQ7eeeeM9zq9iFpQrhOqohQ119fQ4uZa1/uEvvynMG0+5M8+HnxRn97Wn9WU5gYf/cMp6hiqpYcP1EufkO2HLXzYwMjZPX5+kv7xLHf7eSrFXsGdH450XbVs2cav5MDu6LBg34FF3LCOQ1XI/PJLcDj4Y4GB23rNNXxoZAsnhFrQ0iuusPKPKfvfVBunlfPqjTwvX6Yf/E2EekYKpiZfVlrPrVcOZ31rfyZPL/joV7h0DMbp3j0y0bnwkfkp5t1pqk7RVy9MB7fkTaD5ZKXZq7FUKhVtGF5QzGJyBVu3g88+dNj0Im6opm4/3Gd1xuG3gf6abV/6ktWkpvm3Mm12cEDtV15JLeefb6VBMMLKeQ3GAxGGVLfVe28vqettWp2KvYBmnI1Le1QfTPol9gMfCEbYpJxPJQYiCB/Of8k3XJygGsOxQ5Vsr7CSaeuqF85zzkg6ZUGOB2t1NyWaP1joQwpJDxKfOdBj3QIDh74bDhQoJB9daeGAVl99tdUUF1MhMkvm1qn+n7iu7Kfks+Mo0ed+5x/HAyN3ybFdVjn9xgdqPw93NtLWrpopOJbrCeGjMGY/fU7CaIBBpdsrsNET7f7qwvaXfqgQZhz3YCN0um5o/s/CBpvYEDiwrbPPKj+M3JMf/jBxVFQhSulMm+jvtxxfVUMDxVespL7+IUqGEIpt5jPquS5lTDv80b+zZu4QXbhchQYp8SMfc9aspPmxQYpVhamjv/xDsIWPwt/sE+anaFFj4fc5uUPsVRqlaKL6RR/8+CXXf+UrP5jsF5kFQMeO5x/f9/+21IRixhrWUcs50Jsei4NmtR3XXz9L0d27DOdz5I9/JPjchlNeYIVxoxNxbq1+Y7f9aIgeP+C947lkZRedND/9O/IzH/PXv8AK426sHqedPeZqou792vI/SfjIj8tsZ09qSVF7SYG/+Z8g9moSF1RGRseif/PvX7vxPybPzrznqKltz57fvnHu2PwfOUo88/PyXgWJqLJCUMvxsmktbwFtJxH9dtK111pn0OSmO+gAyyDc8rTj7wFbyfTtwsjxmJwg8YGw63IMOhA+iv9tv+mEcTp/pd6QarFXU/kAwl1Vh/5m6dLzfjz16tQzjj6ta0abbzLldBAJEhSnA/jgFB++/HILSVS17VF3U+Et/IzXC1khUiooTgfo2vnAbAkofzmJ8FEam7rfJ7FX+fmAf4CfyH916tlZHc++Xfddq9bjNtJ7C4fDhtvvX9Z26DBgFeWFHOjqyxpjZE9XzP54ypSLn7006LjmcOmg8rG2sYfQF1IOInyUzqLO90ns1cx8wE/AX8ycKn11VsdTO9b4904yKjQNSESVFYI+BD83r+XTDeXd893vUiIcob1dA5laW760QThnj5YKMh/1NRE6vaWXoE+QRfjwF3tir5zx4dRfzOh49u7Y9K3qcMRIbC/XdGDAdc1A4AwafakQ6o1BlKNqVk+MOwqyrG+bjCYMOh/1auAgxh0FWYQPf7En9soZH/AX8BuzpZ7R8dQlm946WwbFXOd2UjgdbrIqJh8/3MPjjBDltv1wMPsX0v0IY1ats1z4wGDXlwXU+QgffnizJ8sg9moSCyd7TvzGtI5n9457v1QdihgJr+Kvh0In9nSitNtp0N+DpilIz+BwZrYFt8tRyvO4X6fc+FhYO5yZbaEUfNy+V/hwG/GZnyf2amZ8cq/Cb8B/5J63H0/reGrHzfTtcK0ATVRB69exA2ffh/NJN7lRJljCft3P+1wrKEc+0OSGCU2DJMKHv9gSe1UcH7P5j7yOB+N2asNV2kfjoTmKlzUoh69rOyWsT7ea2QAdkUEQNEfxgm1cfp3ljs+dSy/55Cfp9T/9Kb1HNat+RDno923eTJf/5jf0og9+kGrnz9f5uKy8WJ+FNYOBCTQwzUcWQBMHL//yl+kqtYYV/k5WcxOakiDyIfaq+F8D/Af8yHQ55HU81aP1/z7dDaWc5w54RIOhllBOAn2g1xiFlHMdCYRqG5ekO+BN8HHmVVfRB7dvp5d9/vN03OteR60nnUT1ajG++ccdR8eq2b8vvO46+n9bt9LiM880ghXzUR8PWesGGXmI5kxN8pGvqEte/GI6Uw0LqGtpyfzlS6fjXBD5EHtVGvMz+ZEpjmfz5p/U16RqFpf2yPx3c00gqFFT+bWaPMt6oVbHuk5e9d8eDxTlcusq4YbPfpbOV1/S8eaZ5yqpmTOH3nz33bRiYgZwXc/nfFgv1OqCEF5tig/Gw76dt24dvfHnP6dQeIoJsCfTuh80Pvgd5nJrBcMHmbFepuwV/Aj8ST5Vp/zqmupavh2ZcjbfrYWd4w469CWUW22HkYBe3G/l91oPj/DXzcdJb34zvfTTn2ZIrO3Y0BDtuOceevzb36YDagE/tYxH5nqsro7edNtt1L5hQ+acrh07H1gt1c9iio98Os9Ttc4rFB91Bps68z03SHyIvcrHYGHn4EfgT/LdNcXFxBJ1r8iXsNRz/PWAlUPLWfgrYiTh3gJUxeDJNQCdfIRjMTr3i1/MKk73rl30jVNOoe+ddx7d+va303+/4AX0vZe/nEYHBjLpIuq+l3z845ljnTvMR31V5fGRi2MoGqWzP/Yxevejj1LDggW5l105DgofYq/0/Bym8ydZjmfPnrsW1oZitXoemZ0LE8k/vOyr5XPENZ6hYX/385ho1jlZ1XYaFy3KkDl09CjdePbZ1LVtW+Ycdnaqr+3vKkeUGE7PRo5zK9Tx3NWrsatVmI/GSOXxYQeyVU1u+84HH6Tz1IdBNK49bsj+qBn3g8KH2KsZaXR8Ef4EfiX3hizHE0lU32BipjCOZOMfXW4hyumYmxPGKOzbfh6ey0w3H6e9611ZVP5ZzeLd39GRdY4Pnn/gAXr0m9/kQ2vJidPf+97Msa4d5qO+JuTbfh5TfADDcFUVbfzCF+hdjzxCC049VResRecTBD7EXhVN75Qb4U/gV3IvZDmeWLJmY24CHce9E1PElntth7FiPf3az7OoftQqKpeTy13KNqK+ottUM5pdnvze9+yHU/bR52OXU97yFkJzkG5hPf3az2OCD8Zw7rHH0jmf+ASFc3A9omqhf1XBBV6I3/kQe6X3V5HPr2Q5nupUrEHvI9O59Q6nDZ3uL2wTZdWRJ+vJeuvIU2ceCyYm0ORy6sgbX9MR9XXN0vXcc9Szezcf5t0efPJJGurqylxDFBwMpW5hPVlv3fmXmh+Xi8tZan6z3f+X73yH/lvxtf+xx2ZLauQ668l6G3lICZnye8vlLCGrQNzKerLeugudz69kHM/unXf+UyRsoqGNMtPIoJpdCcJ6YgCaHwUDFSFcTh1lXHT66VnZIHptVlHRbQefeiorGcb56BbWk/XWnX+p+XG5uJyl5jfd/Tt++1u66Zxz6JdvfSuN2YI7pktv6jzryXqbek6x+fJ7y+UsNp+g3Md6st66yw2/Av9izzfjeGLJur+zX5D90hAYUSPBIabILK10+u+uU4ND7YJoNifSs2dPVjITNR48gPnwq7HLAkHjwcChQ/T4TTfRjWedZUUT7vn97zXmXnxWlcpH8YiZvZP5MGWvcv1LxvFEk/EVJlTj6BCuzpl4hh/znPyK8FcYL4dR6+ajurExi4Zch5J10XbQu2+f7YgoVp93vFlWmmIOmI8Gn4VVm+KDMRo6fJhufdvbaN+f/8ynfLH1Kx9ir8zYq1z/knE81SH9c7P54hcuhXAFgXhTU9ZzRvudTc6Z2+SDAaUigoAgUF4I5PoXy/Hs2XnP30bMdO9kQop1f2H7nZbJqquZL4hi9V/YYCbQI7fGYx+jM1NZc9NVGXI8zEdDdWXwMRPmfrjmVz4qtcbDfJga+A7/Yp801HI8YYq+zg8/xnIqAzclmGoz9RtWw93dWUWqOeaYrOPpDpLj2Y4gN+x3uvsKPc98VFofT6E4uZVe+HALaWfPYT5M2qvweNUbuDSW44kmY9kDMPiqhm11NN2aF29r05BbcLJgfVl/v5S8bzS9th+XT1e5Yg3ZkfjDatYCJxKtrs5K5rSJLusmBwesL+vv4BZXknB5uHyuPNQHD2F9WX8fFMkqAr+vXD6/lMt0OVhf1t/E8+x+xvIKkWRVZXkFE6hWeJ6jfX1ZCDidliU33UhPeqmGrMzkQBAQBAKPgN3PWI6niqqyPzs1qtgYj1m5Nam5oipJWF/W3y+6d/Sb4SO3plKjFoFzIrnpRnp7ndxWcBrmg/UvOANDN3B5uHyGHuO7bFlf1t8vBeT3lcvnl3KZLgfry/qbeJ7dz6RrPCE1sZiIIFACAv0T45Y4i6alS3l3xm1uumGp8cyIl1wUBIKKgAowyPiZ8Pa9d59oaMICCx9uM6zOGWAYVPCclpv1Zf2d3mc6Hbepc/l0Pe/QM89kZTVnxYqs4+kOctMdUauSmhDWl/U38Yxi8uTycPmKySOI97C+rL9fdOD3lcvnl3KZLgfry/qbeB78DPwN8g5Hk5GNJh5iz5OV4eqc/Zrsu48Av+w6+Ti0eXOWIovPOEP9ujIfOFnX+KBajf2Zf/zxfEjJRII61FoxlSYm+Kg0DHXqK/ZKJ5rZebG/CYdTpH9WxuxnUXU0HUmVc7psD9uvvNLSbX69d+uezAQuG7qZ0hR67cizz9LgkSOZ29B3kzt/W+bixM4KtSBcODL528C8bYnBwdxkJR8zH9uO1pScl4kMTPBhopy68vQ7H2KvdDE9NR/2N+FwMtI+9bLeM/Pr07ELbRdeqDdjn+bGoYmNcf1T/OtQeeuEAdbJR0rVVrb84hdZxTv7ox/NOs46CIXo7Kuvzjq1XS2LbkKYj+cnAitMPKOUPE3wUUp5TN/rdz7EXpn7BbC/UY0hkRZzj0nnzJESOpt2TJe5lPxbzj/fup31LiUvE/dyJJFuPp665Zas4q679FLa8LnPZZ2zDtSv7lXf+lZWjSgxMkIPfvWrU9NqOMN8sN4astSaBZdLNx9aC6kxM7/zwe9tpfHBemukekpW7G9UzSdkvP0BbaaN8SpCB1a5k9l6wQUW2Ja+E4Nnp6Dv8Qk07cDY6eZj16ZN9NxvfpOl3Us/9SnLySxUyyZgsbilL3kJveGnP6VT3/72rHRPfPe71L9/f9Y5HQfMB/T1a5OWKT504Kc7jyDwIfZKN+uT+bG/CYeSofTAjslrRvYqpfrafMopFn6srxEwNWRqqnnnjg98gIZyZi049R3voHc+9BB9cmiI3vq739G6yy7L0qBTBSbcndPslpWghAPmg/UtISujt3L5dDZ/Gi1wkZkHhQ9+fyuFD9a3SFod38b+JkwhcsXxcDUONR5u43Vc2gAl5GYE1tevRefmnUbNfHSpIINvrl9PWF3UifTs3Us/uOgiGsmZ683JvU7SMB+sr5N7vEjD5dPNhxe6zPTMoPDB76/Yq5nYLOLahL9RodWhybCiIvJxeou9+spRLU7vDUq6NROd6Yhmg75+Fm7eiavmT918dO/YQf9z5pn02I03Tqn9MCajagXM+1X/z/UqnLpXOR8Twnwgms2vzWyst0k++Bm5W3Bgl9zZJ+zXdOwHiQ+xVzoYn5oH+5toilKGFkSY+tCV8xro8X1dVj8PviTKaakE1OL4a86tautUhAs7s2lvE12+7hDhK1s3HwiLvk01seGvWQ0mXXjaadTU3k59HR10ZNs2OrxlC405XLOnMK3Sqe18bDlivBuzmCJOucckH1Mepk48eN111l++a7rPBZEPsVe6fwVE7G9cjffFVwRqA4eoldB2Wk6OZ/VEHwX0Q2BBEARf2agNrFa1HpN8oAaEPzeF+YB+HQOutCaXrJ5bfJRc0CIyCCIfYq+KINrhLa63By1urrWKhtoBvrLLQaAH68L6BUWvhw+kl5ouVz5YP+HDOwTs70fQ+OD3uVzfD9bP7V+H644HXxGsrO6+BbfB4+exHtAL+gVJ8JX9yMG082E9glT+fGVlPaAX9AuSCB/+YkvslRk+PLGS3PmOLyHucDSjnvlcT7r2Wqu2Y/+Bmn+q3ids7Up3vpcTH5YBn6jN6UXLfG7Ch3mMC3mC2KtC0HKW1hPHAyN9XFuzVUJUYfkL1VmR/ZMKg+G4iQ0dkUEVGOlbt6fXzykXPjbtaQoqHVYtTfjwD31ir/Rz4YnjgRppMtPGoVUFGvCIZv0qmskRDoc7TI9rawpMQMF0aFjO57kJ5xNwPm5VegQloED4mA4Bf50Xe6WXD88cD9RA9JfVL9LSYtV6gjKwFE4HTWyQlfPqA+90LEXUPxhr9IvEFR9L1QzbQeQDIclBdzrCByPgr63YK318eOp4oAYcj9WGqkJ6Ycz9XvOxOx38EFH2cpJHVL8IQpAxsPTEgPGB0f/oHyknET78xabYKz18RK764Ns/VE2xdIeLnjwLzqUuFqXxZIpGYnGqX7WKovX1vhzjA6d43MRsy3A6aGLTLVsOh2jrEdfG9OYt/uGhKoqrocWt86qpTvFRFQA+4HS4XySvUgE+KXwUT97aeSlap/50itir4tEcobGer3ztxutcHUA6XXHRfoomK2z3kWrmueIKq5ln6zXXTHeL6+c5eg0PxlcP/spV0N9zr+qc71Xb9a3kez7QPIiaQbmK8OEvZsVelc6HLxwPqwFjjprEMwd6rOlnMG3/7ptv9rT2g6Y1RN1hCymHQALGe7YtjHlHX4wuObbLt3yUQyDBbDzwdeGDkfDHVuxV8TyE9m//065GqjO+CmkhRRxJJJXz6SZsIZ1qZcoDap0XN6fYQcc6HA7CiyHcsYitSfnFljD9cqvnXW9ZKjbExumSlV2ELcQPfHT0V6laTkPZBBJkAT7LgfAxC0C2y69ek6RL16btiO201t1KtleFAtlLA7sXrDxrmS8dD5QBmYf6h2lf96Cl28jBg5bjQQ1o+MCBQvV1nB4OB305aO5jcbNpzY+OBzjA2K2ZO6Sa3votWIYVH71PPGHVSN3mo9yb1vh3N9NW+JgJnclrbjgePK1S7dUk0s72fO94WA0QCucDJwRhB6S7BgRng0WquIaDZyFiDX1PbopfHQ9jAIN3els/rZ4zZJ1iB+QGH4i2Q9+TyCQCwsckFvn23HI8/OxKs1est9NtYBwPKwRCtx/uo97hMT6V5YRwspCmONRs0G8Dh8P9N5wxmtMwEwE6Ed0WvzsexgMGb+OSHlpYP8qnjPGBiDWMz0Enu0h+BISP/Li47Xi4FJVir1hfp9vAOR5WDIT2Do+qGtBIlhPKXFdNQBB2QtwMxM6Ft5yet3A23I/D57zYBsXxMDYweHA+a1QNyO6E+DpqqJBC+YCzsQa0lnG0GmOkcyt8ZKPplePhUpS7vWI9nW4D63jsCtpJHUmMZ4IR7Gmm20dtBsvbNsajvhoEGjTHY8fXbvSwjz+ngtrMfjVzwvNlOAjUKQa60wkfRF47Hjun5Wiv7Po52WfH46twaicFt6eB80A/jH32AJALQa0IwsccjcZb66L804oAnAdmDsAfCzsfrg3xMcK0IeUyvQ3r66et8OEnNtLzU4q9SnMSaMeT72fF/TJ2Z5QvnZxzBwHul7E7I3eeLE/Jh4DwkQ8V785Vqr1yv/fcO47lyYKAICAICAI+QEAcjw9IkCIIAoKAIFBJCIjjqSS2RVdBQBAQBHyAgDgeH5AgRRAEBAFBoJIQEMdTSWyLroKAICAI+AABcTw+IEGKIAgIAoJAJSEgjqeS2BZdBQFBQBDwAQLieHxAghRBEBAEBIFKQkAcTyWxLboKAoKAIOADBMTx+IAEKYIgIAgIApWEgHdT5qQSNJ7so+T4gMI7QSl1TOovRWZXC/Q7ueOJVlVE/IkIAoJAqQiMJw7RyHB6hvRS8wrq/SFS9YtQlELqjyhK4UgdRcIN1jmvdHLH8aRSND7eTeOJTkqMdypn00upZHphN68U9+tzxxOohIrj8Ss/Uq5gIQDHMzr812AV2qXShsJx5YQaKRppoUhU/UWalTMKufJ0o44nkThMibE9NDa6T9VmJhdwc0UzeYggIAgIAoLAtAjg438cf2Od6TShKqqKLaZo1VKKRudNe5+OC9odTyo1rhzNDhobeY6SyUEdZZQ8BAFBQBAQBEwjoCoHYyM7rb9wuJaqqo9VjmiFqgTpX/lXm+NJqX6aseHnaHTkWdVfM7kcsmmsJH9BQBAQBAQBvQig0jAy9KRqptxCsepVVBU/lkKqf0iXaMkJTWkoZCo1pKtcko8gIAgIAoKAxwigEjEyvFlVKHZQdc1JVlOcjiKV5HiSytEMDz6q2ggrO2pEBxGShyAgCAgCfkUAlYrhwQdpbGwXxWtPo3BocpXhYspc9DiexNgBGuy9R5xOMajLPYKAICAIBBABVDJg92H/S5GiHM/I8NM0NPAn1bQ2Usqz5V5BQBAQBASBgCEAuw/7Dz9QrBTY1JakocFHKDG6t9jnyX2CgCAgCAgCgUcgpQIPtlqRyzW165U2hdVhHKfGzAKDysuJ0wn8L0YUEAQEAUFACwLwB/AL1swzBeTo0PGgpvOA9OcUAKwkFQQEAUGgEhBAvw/8AxUw3Zkjx4PmNYlcq4SfkOgoCAgCgkDhCKSdzyOOb5zV8YwMPS3Na47hlISCgCAgCFQmAmh2cxpwMKPjQcjc6Mi2ykRRtBYEBAFBQBAoCIHR4W2OQq2ndTzpwaGoOqUKerAkFgQEAUFAEKhUBFJqoOkjBP8xk0zreDAjgYzTmQk6uSYICAKCgCCQiwD8BvzHTJLX8WDuNQkmmAk2uSYICAKCgCAwHQLwH9ZyONMkmOJ4MMs0JvwUEQQEAUFAEBAEikXAmjha+ZN8MsXxYGkDmWU6H1RyThAQBAQBQcApAvAj8Cf5JMvxYBE3rKcjIggIAoKAICAIlIpAen228SnZZDkerBwqi7hNwUhOCAKCgCAgCBSBAPwJ/EquZDsetVy1iCAgCAgCgoAgoAuBsTx+JeN4EonD1kyjuh4m+QgCgoAgIAgIAlhGG/7FLpllERJje+znA7s/loxbZR9INFtbHFeFh9VfekBTLDxiHQdWwYAVvCGWbt9dWD9qlRzHfaMR6huJWMd9Y2pfHYu4g4Dw4Q7OTp9SKfYK/iUanZeBJe14UqkZY64zqX22A9LgYPDXPdpaUOngjOqiPdQc229tC7pZEudFAEYNDmaR+ls9Z+aRy7kZwPnsH4jRliM11KG2IqUjIHyUjqHOHCrZXmFMTzz+AqJQGlHL8YyPd6uZccZ0YmwsLybvqHI0gxO1GvvDRg4etA57nnjC2g4fOEDxtjaqbk07Jt5HPt2j+GuliKoKVsdGCbUhcUR2NGffZ+O2RjkartXY73LKB/JpiA1ZDqt/KEW949XUr2pD4ojsaM6+L3zMjpGbKcReTaCt/IvlZ6Lpj8q040l0uslFUc8aSDQpJ7FgSs2m8667CM5l9803F5QvHFDTySdT6wUXWNvBRC0NqhzgiJpjB8UBzYLmwrpRWntM2lHYk+rio57STXOoOW07WiMOyA5ynn3hIw8oHp4SezUV/HH4mehi60Jo//Y/7YoOPNY+PuZP54Mvhs7hZVkOB8at+y9/oYN33jlVuyLO5DohZIFaUEO8j1riu1ztE7p91/F0x+4TitDCnVvwRX16W39WU5obfPQPp6hjqJYePlAvfUI2qoUPGxh5di9qf5ouXrY5zxUzpyrNXhWCYqSqhRJ1p+5esPKsZZbjCffe155KDheShytpDymH0zncnnkWDNzWa67JHJvYgRNCLWjpFVdY2UdpiOpjvbSodouJx03J08+OZ71yOOtb+zNl9oKP/pEQdQzG6d49TZlyVOqO8DE78246nkq0V7MzMJkiFI5TsnHDhON59v49od57lkxe9n4P1dTnB9cSvh4g6K/Z9qUvWU1qbpUODqj9yiup5fzzrUciGAHOBwEJJsWPjgfNOBuX9qg+mHSEmh/4QDDCJuV8KjEQQfhw/ga64Xgq2V45ZyKdMtV47t4Fq166NHRg2+0d1PfAgkIzMJUeJO7qP8XKHgYOfTccKGDqmTPlCwe0+uqrrX4g1H5aa/eo/p8DM91S0jW/OR4YuUuO7bJ08hsfqP083NlIW7tqSsI8SDcLH4WxZdrxVLq9KowNlbrhjP1tqy9eGPnI+y79aGjsYF3BGRi4oXu0jfYOpPs3YOSe/PCHiaOiDDzOUZaJ/n7L8VU1NFDNyrU0OFxDqXBM1XxUJKABeba7hZ7raTGQc+FZrpk7RBcuT+vpRz7mrFlJ82ODFKsKU0d/+YdgCx+F/4ZXNXfSquZDhd/o4A6xVw5AykmSis4d/srXf/LlqAqjzsxekJPG1cOd/SdnwqPRrKYrcECHEoiaQ98Stuj76Ryuo1HVDOhWv48OHQrN45KVXZnwaL/zsb6mnxpVM2A59/sIH4X+gs2mF3tVJL6pccvfhCmVnBjSU2RGGm6zk4hajp+cjl09NPuhfBCEXaMfqhzFbuSCwgfCrl+m+qHKUYQPf7Eq9qoEPlIJy9+EQ6mEpzUeRILwQFAYOS/7c5zAifI9fPnlVlI4H5S/nASRUjwQNGh8wPmg/OUkwoe/2BR7VRof7G/CqZB3NR50zHG4dBCMHEOOJjeUF3JkYJ6q/bTxpUBv0XHN4dJB5WNtYw+hL6QcRPjwF4tir0rng/2NZ7UdezQI+hD8XtPJhRzl3fPd79J4pI4ODi5V88UFe1yJPVoqyHzU10To9JZegj5BFuHDX+yJvdLLh2eOB7MRQGDA/dqnYxVwhn/o88EgygTVBL6/Z31bn6VpOfBRX52yxh3NQJ3vLwkf/qKoc2iZVaByeD/8YK88cTzcTgoSucnKXz8z56XhcUYY7BrUYIN0P8KY9RFQLnxgsGtQgw2ED+fvnxspLXs13lxW74fX9soTx8P9OjDaQRf096BpCtI/2piZbSFIenG/TrnxsbB2ODPbgvDhDQL29yOofIi90v/bcd3xcK0ATVSo8ZSD4OXiJjduQgyKXlwrKEc+0OSGCU2DJMKHv9gSe2WGj8wKpGayz84V1TuEIENMfF3H586l09/3PmpTyx0cs3o11ak1eIaOHKGevXvpuTvuoKduuYUGD5kZxQx9MK9b33ADDcSajM/plo1scUdojuIF20zwseiMM2jVRRfR3FWr6Bj117h4MQ0o/A9v2UJHtm6lPX/8I23/zW+KK/wsdzEfC2sGVaBBMBaXM81H+0tfSmsuuYTmrV1Lx6xZQ9F4nPo6Oujo9u30zM9+Rtt+9SsaHxmZBdniLgeRD9P2yg98eGWvXHU8+wbXWL9aRIOhlqBTzrzqKjrnE5+geHNzVrb1yvnMP+44OlbNOP3Sf/5nuuUVr6B9f/5zVhodB9AHemFmA6wbZHoyUR1l3rgkPeBSNx/Ny5fTeWqmh+Nf//opxazH7N8nnpg5/5xyPLf//d/T0eeey5zTsWPnA+sGBWEyUVN8zFm5ks7/93+nta95zRRoGxctokWnn04n/M3fWE7o1ne8w/pIm5KwxBNB5MOUvfIbH17YK1eb2nigqO4otg2f/Syd/+UvT3E6ue9KzZw59Oa776YVEzNO514v9Zj1Qq0uCOHVPFCUy12q/ri/9ZRT6P3PPJPX6eTL/9gLL6T3Pf00rVQfBrqF9UKtLgjh1Sb4aGpvp3c88EBep5OLd8PChXT57bfTC9WHgAkJGh8m7JUf+fDCXrnmeHiEP/oSdNZ2Tnrzm+mln/501nsyNjREO+65hx7/9rfpgFowLpVKZa7H6uroTbfdRu0bNmTO6dqBXtxvha8IPwuP8NfJR5XC9nU/+pHVhGPXvV/h8sz//i89cN11tPknP7G+rO3Xo9XV9JrvfIdq5s2zny55384Haj1+FhN8RGtq6I2/+AXV5uDapZrWHv3Wt+jP//EftOO3v50CywXqPJqBdEuQ+DBhr/zMh9v2yrWmtv6JAZZYOVSXhGMxOveLX8zKrnvXLvqe+nru2rYtc375uefS3/zylwSnA4mo+17y8Y/T7vvus451/sNXHZbUHk1W68xWe15cA9DJx8tVdN881XfAAof/4Ne+RveqJtCxgQE+TdHaWtrwmc/Q2f/4j5lzaIJ7xfXX08/e8IbMOR07zEd9VXotIR15msjDBB9n/MM/0IIXvCCruL/7l3+h+z/3OUqOTg6wxfvx2h/+kOrmz7fShiMRQivCzQY+zoLChwl75Wc+3LZXrtV4TFRbT1a1HbRRswwdPUo3nn12ltPBtZ2q9vPd886jxPDkKqsr1PFcFYCgW7jGMzLq72n6TTTrrHvta7PgfEx9Vd/5oQ9lOR0kSAwO0m/VGkcPff3rWelXv/KVFFJGT6cwH40RM53muspqgo8T3vjGrOI9rWqjmz75ySyngwR4P25717uy0i5TNZ6mZcuyzuk4CAofJuyVn/lw21654nh4LjP+0en4ASOP03Jelj9fey31qyidfPK8aud+9JvfzFwKhUJ0+nvfmznWtcPNCePhWt/28/BcZjr5OEZFSiGQg2W4p4fu/uhH+TDv9m5V4xm11YSqVNPQvHXr8qYt9iTzUV8T8m0/jyk+Wk86KQMbap93TswvmDlp29n6f/9HPXv22M6QFf2WdULDQRD4MGGv8H74mQ+37ZUrjmcgkY40485FDb9fiqhQ0LacZoQnv/e9GbNGn49dTnnLWygU1d/ayHq63W5q122m/UX16WYWLudMaZ1ewxeyXfY/9hiNdHfbT03ZT6i+uEObN2edt7+cWRdKOGA9/drPY4KPZlVb6X3++QxqBx5/nPr3788c59sZ6OzMOs1Nb1knNRz4nQ8T9ioIfLhpr/Rb3Tw/TI7w0vmFveDUUylSVZV5WpcKx+3ZvTtznG/n4JNP0lBXF9Wo8T4QhF7PPfZYOqLGlegU1pP11pm3jrwWTEygyeXUkSfGgzz94x8TIqPQ/Pn8Qw85yhYBCXZJjo3ZD7Xss56st5ZMNWbC5eJy6sga46P+Q42bwtg2hK/ba5Z58w+Hp9Rw+mZxVHnzcXCS9WS9HdziahJ+b7mcOh4eBD5Ybx36zpaHK44HA7EgqGbrEow9sAui12YV1dxw8KmnyP51jjE+uh0P68l6z1oulxNgoCKEy6nj8dtUpCD+CpFa1ZmNwYx26XjkEfuhln3Wk/XWkqnGTLhcXE6NWdOw+tDaff/9s2Z5pgpEiNXXZ9IlEwnqVO+KCWE9WW8TzyglT35vuZyl5JV7r5/5YL1zy2zi2JWmNhMFx6wEdkE0mxPJbcdGjceEjBw8aGXrJpkm9DCZJyKnEEHFMnj4MHXv3MmHWrfMh1+NnVZlC8gMEYZnq764l6txcHZB7XVg4jdsP69rX/jIj6TXfLhlr4zXeLj6prPaCsqqGxuzmMt1KFkXbQe9+/bZjijrKy/rQokH+FqqVs4RYYpV4clouhKzLfl2DtvVzUehBWtTTaW5wSE777230Gwcp2c+GlRYdd/opLNznIGhhF7wsfbSS62aJkbQYzaD2mOOydIO43wQ+GFS/MqHKXs1E5Z+4sMte2Xc8cwEeCnX4k3ZC6+N9jubDNI+ngTP57E9pZRF7i0MAUypc/mvf51V20mOj9N9n/lMYRlJ6qIQQO1mrnI6+WSfiv78qQrDni0QId+9cq44BCqRD+NNbYOJORYbur+wc2s89jE6M9Gfmy63c3umewu5xk0JY8maQm4znnZhQzqiTTcfTgte29JCb1azV2DAqF1+9/nP0+G//tV+Sus+89FQ7a+BpK7zoYIImpYunRZb9Hme9ZGPEEbZmxS/8mHKXk2Lpc/4cMteGXc80wJe4oXhnFDdmpzmgumyx5e1XcIGwqmRP3dMutVmatfJr/uNyuC9ZdMmK5LQXsZtqvaD0fQmhfmo9D4e1PBR68f706lC2TG9lF3wQfeiD3yArlCDShERZ0qEjzSyfuPDLXtl3PFw/0Y85wu31B90rKEhK4thNWuBE8G8YHZx2kRnv8fJPuvL+ju5x4003L/B5XPjmXgGJg/FZJX4orYL+nV+ilmsbfPp2a/r2md9WX9d+ZaaD5eHy1dqfrPdP9rXR9cuWULXqAlzbzjhBPpXFcn2nY0b6bBapsIuS848ky766lftp7Tus76sv9bMS8iM31cuXwlZObrVb3yw/o4KX0Ii446nhLLNeCsIswvWFnEiuelG1Ah7EbMIYObpt/3+99SwIHvi1J2q9nPLq15FGEgq4h4CY/b+0GTSmrPwG+rDYM8f/pBViBPf9CbCiHsRswhUIh/GHU9dND16HRNn6pTcmgoPCp3tGbnpRnp7Z7ulqOusL+tfVCYGburoT88hx+Uz8IisLF/w9rfTm9QCY/YxIkiw+ac/pR+oReIwb5sbwvqy/m4808kzuDxcPif3mEgzruYx/L+3vjWr6S2k+h9Wq/WrTAjry/qbeEYxefL7yuUrJg8d93jFB+uvQ4eZ8jDueGZ6eCnX+nPGGMzUYWp/Tm46zCkmYgaBjV/4Al3yP/9Duf1omFPvZypyytRql2a0Kf9csRjfrvvuy1IUIdci3iBQznwYdzzcZogxLTrlkFpszC5zVqywH067n5sOSzCbENaX9TfxjGLy5DZ1Ll8xecx2D2aYfo1ajRUrwtolpZp17vjgB+kuFTVluk/H/lzss76sf+51r465PFw+3eVA0A3GTFXnDD+Y7jm570OT6g8yIawv62/iGcXkye8rl6+YPGa6x+98sP4z6aDjmnHHg0KyMjqrr7mTSy4+4wwi1TQwk+Dlm3/88ZkkmBak49FHM8eVssMvu04+MtipWb8vufFGwpIVdsFcYT9SAxcfUuvziGQjYIKPcz71Kfqoily7Ws0G8W71G1//nvdkP3SaI7eaoqd5vC9Om7BXwkc2tTNb6uy0RR8xkUVnkOfGI88+S4NHjmSu4IXJnb8tc3FiZ8XLX541aBHztpnoY2i/8krric2x9LQ5ueXw+pgNnYlyYPXKUyb05/yxAulN55xD2269lU+5umU+th01OzalWKVM8BFR0Zv2QdYYHT+rqI+GhTlzIGJAqW7xOx8m7FUQ+HDTXrnieOZMGOC2Cy/U9htOqdrKFrWsr10w59S0ol6qs9XiY3bZrgYymhAOxXSro65QHbZOGGCdfKAMMG5nqKY0u2AOvW+/+MV0QC2T4JUwH89PBFZ4VY7pnmuCj9zf9qIXvpAWn3XWdEWwzmMKo/k56yHt/dOfZrynmIt+58OEvQoCH27aK1ccDyuku2nnqVtuyfrdr1OGb0O+gYiqCe5VajVMe40oMTJCDxoap9By/vlWuVjvrEL64IAjiXTyEVMDD4GxXRAxiGXIj6q5v7wU5oP19rIs+Z7N5dLJx74//5lGbEMOsPDha3/wA4qr8Tv5BE4pd6LQozt20IEnnsiXvKRzfueD39tK44P1Lolchze7Mlcbqq61CKtWAQYgU9d0LbvUOJDn1Lojx9pqUi9VbdsYL4LVRtGUBmdzhlp+ed1ll2VB8oTq/DYxH1WrMrQQ6Guiyp6lRJEHaNqBsVuokY8Xvv/9UyabxCj416tZjguRTZ/+dMHLK8yUP/MBfU00ac30bKfXTPCBdY3uVjX8V95wQ6YYWIzsfU8/TXdddRU9e8cdhCEJ89asISyIeKZanRTh0yzo//xfNY4HLQs6JQh8mLBXfufDbXvliuPBDxfVV6xjjuYdXY4H+d6hpvd4x4MPUo3tS+7Ud7yD8DedYKoQvJQmpFkNxINwdd3EM3TkieadhWolUl18nHj55XmL1TaBR96LeU5iAlGdwnxwc5bOvHXmpZsPlO3Rb3yD2l/yEsJAUBYs1PfaiZYCLIeNmlA+wQfA8+q90i1B4cOEvfIzH27bq8lPHN2/sJz8uBqHGg+38eYkKeqwSwUZfHP9esLqok6kZ+9ea+DibMsyO8krXxpuRmB986Xxwzlu3mnUwEdYrQR7zOrVflBrShmYD9Z3SgKfnODy6eDDrtJt7343PfXDH9pPZfbzOZ0hNfXUre98J/3h3/4tk07nTlD44PdXt73yKx+sr06uZ8rLNcfD1VfEx3NUy0wFK+Rat2qL/h81t9RjKowXL04+QTgvJqK8XoVT9yrnY0LWTAQ3IDrEr81srDc378Q18JE7KwE/o5ht7owUxeTB9zAfiGbzazMbl1UnH5wntpiO5eeqxoP52DpVM9t0glnb0Wf6dRVc8Lga9GtinFWQ+DBlr/zIhxf2yrWmNvzgF9dupW29L7L6eXT29SBvhEXfpprX8NesBpMuPO00ampvp76ODjqybRsd3rLFegmR1oSgFsdfc82x/SYeoT3PTXub6PJ1hwhf2aXwgQlavxCLaS9fKRna+dhyxJ9h1Ln66eIjN18c777vPrrhxBMJy41jotZ5ysHA2WCuQjQ9IwAklTNze758ij0XRD5M2is/8eGFvXLV8eArAt61W31l6+pbyPcioAaEPzdl9USfEfSriwZjGh58ZaM2sNowH27ywM9iPqBfx4C/nCKXMXfrBh+Dhw7R7vvvt/5yn2/yOIh8uGGvvObDK3vlWlMb/6hb4rusXdQO8JVdDgI9WBfWLyh6PXygvqz5YP2ED+8QsL8fQeOD32exV3p/P647HnxFtMR3W1ro7uvRC43z3FgP6AX9giT4yn7kYNr5sB5BKn++srIe0Av6BUmED3+xJfbKDB+uOx6o0Rw7YBlofAlxh6MZ9cznepKaaRl64Ac6f6I2Z/6pep+wtSvd+V5OfFgGfKI2pxct87kJH+YxLuQJYq8KQctZWk8cD4z08vr0iGhUYfkL1VmR/ZMKg+FgrCGLarf4p2AFlgRG+tbtc627yoWPTXuaCkTBP8mFD/9wgZKIvdLPhyeOh8lcVv8XS6NWNaiURzTrV9FMjnA43GEKPYISUDAdGpaxe27C+QScj1uVHkEJKBA+pkPAX+fhfMRe6ePEM8cDFWCs0S9S3dJi1Xp0DizVB9HUnOB00MQGWaRCxIPudFhDGGv0i8QVH0vVDNNB5AMhyUF3OsIHI+CvrdgrfXx46nigBvpFENKHgaUw5n6v+didDuY3QvtvOckjql8EIcgYWHpiwPjA6H/0j5STCB/+YlPslR4+Ile9/zUfCyW643qyKy6Xmkg/jaeqKFHTSvWrVlG0vl7rfG7FlWrqXXCKx03Mfg2nw/1UU1MWf+bZ7hZ6rqel+Aw03Hl4qIri0RS1zqumOsVHVQD4gNPhfioNEPgqC+GjeDpWNXfSquZDxWeQ506xV3lAcXoqOmfkK9f/8t9cHUA6XdnQforO+Zjadra009IrrrCaebZec810t7h+nqPX8GA0DwY1gs0JcOjvuVd1zveq7Xq1Yrnf+UDzIGoG5SrCh7+YFXtVOh++cDysBox5bfQo7eo/xZp+Bs1vu2++2dPaD5rWEHWHLaQcAgkY79m2MOYdfTG65Ngu3/JRDoEEs/HA14UPRsIfW7FXxfMQ2r/5pu7Q8E5fxZ6OJeO0s/9kwhbSqVYKPaDW3dG5nMJskKFjHQ4H4cUQNK1hFLPpQILbdx1Pd+w+YbbiuXq9ITZOl6zsImwhfuCjo79K1XIayiaQoBBChQ/naF3U/jRdvGyz8xuKSOlLexVR9qrGvL0qFK5UfHnPguPf2uxLxwNlQGb3aBt1Drdbuo0cPGg5HtSAhg+Y69CHw0FfDpqXWNxsWvOj4wEOMHZr5g6pprd+C5ZhxUevWp3SCz7KvWmNf3czbYWPmdCZvOaG48HTKtVeTSLtbM/3jofVAKGdw8uUE1KdDUrYAemuAcHZYJEqruHgWYi2c3tgqF8dD/CAwOCd3tZPq+cMWcfsgNzgA9F26HsSmURA+JjEIt+eW46Hn11p9or1droNjONhhUDovsE11iqmfM7uhHCukKY41GzQbwOHw/03nC+a1TAlOjoR3Ra/Ox7GAwZv45IeaxVTPmeKD0SsYXwOOtlF8iMgfOTHxW3Hw6WoFHvF+jrdBs7xsGIgdEAtoX1U1YCwlHauwPhB2Alxsxw7F97m3gdnU68GtHodrRYUx8P4weBhCe01qgaEba4UywecjTWgtYyj1XKx0nEsfGSj6JXj4VKUu71iPZ1uA+t47AraScU+/pwKajMIFMCSr34aBBo0x2PH2270sI8/p4LazH41c8LzZTgI1CkGutMJH0ReOx47p+Vor+z6Odlnx+OrcGonBbengfOA07A7DnY+qBVB+Bhh2hDTUWnWQyr0H5zHVjVzAP5Y2PlwbYiPEaYNKZfpbVhfP22FDz+xkZ5sVOxVmpNAO558Pyvul7E7o3zp5Jw7CHC/jN0ZufNkeUo+BISPfKh4d65S7ZXnc7V5R7k8WRAQBAQBQcALBMTxeIG6PFMQEAQEgQpGQBxPBZMvqgsCgoAg4AUC4ni8QF2eKQgIAoJABSMgjqeCyRfVBQFBQBDwAgFxPF6gLs8UBAQBQaCCERDHU8Hki+qCgCAgCHiBgDgeL1CXZwoCgoAgUMEIiOOpYPJFdUFAEBAEvEBAHI8XqMszBQFBQBCoYATE8VQw+aK6ICAICAJeICCOxwvU5ZmCgCAgCFQwAuJ4Kph8UV0QEAQEAS8QEMfjBeryTEFAEBAEKhgBcTwVTL6oLggIAoKAFwiI4/ECdXmmICAICAIVjIA4ngomX1QXBAQBQcALBMTxeIG6PFMQEAQEgQpGQBxPBZMvqgsCgoAg4AUC4ni8QF2eKQgIAoJABSMgjqeCyRfVBQFBQBDwAgFxPF6gLs8UBAQBQaCCERDHU8Hki+qCgCAgCHiBgDgeL1CXZwoCgoAgUMEIiOOpYPJFdUFAEBAEvEBAHI8XqMszBQFBQBCoYATE8VQw+aK6ICAICAJeICCOxwvU5ZmCgCAgCFQwAuJ4Kph8UV0QEAQEAS8QEMfjBeryTEFAEBAEKhgBcTwVTL6oLggIAoKAFwiI4/ECdXmmICAICAIVjIA4ngomX1QXBAQBQcALBMTxeIG6PFMQEAQEgQpGIFpuuo8l45ZKA4lma4vjqjUq21sAADtJSURBVPCw+huyjmPhEeu43PT2qz4NsXGraAvrR60tjvtGI9Q3ErGO+8bUvjoWcQcB4cMdnJ0+pVLtVaAdD0iDg8Ff92irU66tdHBGddEeao7tt7YF3SyJ8yIAowYHs0j9rZ6TdvR5E+Y5CeezfyBGW47UUIfaipSOgPBROoY6cxB7NYlm4BwPk3dUOZrBiVrNpDpEIwcPWoc9TzxhbYcPHKB4WxtVt6YdE+8jn+5R/LVSJDlI1bFRQm1IHJEdzdn32bitUY6GazX2u5zygXwaYkOWw+ofSlHveDX1q9qQOCI7mrPvCx+zY+RmCrFX+dEOjOMZSDQpJ7FgSs2m8667CM5l980359dwmrNwQE0nn0ytF1xgbQcTtTSo0sIRNccOigOaBjc+vbBulNYek3YUfA5bXXzUU7ppDjWnbUdrxAHZQc6zL3zkAcXDU2KvZgY/tH/zTd2h4Z1NMyfz7iq+GDqHl2U5HBi37r/8hQ7eeaeWguU6IWSKWlBDvI9a4rtc7RO6fdfxdMfuE7ToZSITfFGf3taf1ZTmBh/9wynqGKqlhw/US5+QjVjhwwZGnt2L2p+mi5dtznPFzKlKs1eFopiKL+9ZcPxbm33teA4ph9M53J7RDQZu6zXXZI5N7MAJoRa09IorrOyjNET1sV5aVLvFxOOm5Olnx7NeOZz1rf2ZMnvBR/9IiDoG43TvHt9+K2XwMb0jfMyOsJuOpxLt1ewMZKfwteNBNfX5wbWErwcI+mu2felLVpNathrmjuCA2q+8klrOP996CIIR4HwQkGBS/Oh40IyzcWmP6oNJR6j5gQ8EI2xSzqcSAxGED+dvoBuOp5LtlXMm0il963hA4q7+U6xSwsCh74YDBQpVUkd6OKDVV19t9QOh9tNau0f1/xzQkXXePPzmeGDkLjm2yyqr3/hA7efhzkba2lWTF8tyPCl8FMaqacdT6faqMDaI2PFErnr/az4WSnSnqxaF5qI5ffdoG+0dSPdvwMg9+eEPZ6LUND/KcXaJ/n7L8VU1NFDNyrU0OFxDqXBM1Xy6HedRSMJnu1vouZ6WQm4xlnbN3CG6cHlaTz/yMWfNSpofG6RYVZg6+ss/BFv4KPynvqq5k1Y1Hyr8Rgd3iL1yAFJukuicka9c/8t/801U287+kzPh0WhW0xU4kKt3MceImkPfErbo++kcrqNR1QzoVr9PMWUu9Z5LVnZlwqP9zsf6mn5qVM2A5dzvI3yU+ovWe7/Yq9Lw9MWUOXYSUcvxk9Oxw4tmP5QPgrBr9EOVo9iNXFD4QNj1y1Q/VDmK8OEvVsVelc6H544HkSA8EBRGzsv+HCdwonwPX365lRTOB+UvJ0GkFA8EDRofcD4ofzmJ8OEvNsVe6eHDU8eDjjkOlw6CkWPI0eSG8kKODMxTtZ82vhToLTquOVw6qHysbewh9IWUgwgf/mJR7JU+PjxzPPZoEPQh+L2mkws5yrvnu9+l8UgdHRxcquaLC/a4Enu0VJD5qK+J0OktvQR9gizCh7/YE3ullw/PHE/n0DJLExhwv/bpzAY1+nwwiDJBNYHv71nf1lc2fNRXp6xxR7Px5+frwoe/2BF7pZcPTxyP1U463mzVcrjJSq9a7uXG44ww2DWowQbpfoSxsuIDg12DGmwgfLj3/jp5ktgrJygVlsYTx8P9OjDaQRf096BpCtI/2piZbSFIenG/TrnxsbB2ODPbgvDhDQL29yOofIi90v/bcd3xcK0ATVRB69eZDn68XNzkhglNgyRcKyhHPtDkhglNgyTCh7/YEntlhg9XB5CiOQohyBA3v67P/8pXaNmGDdZze/ftox+9+tXWvs5/0AfzuvUNN9BArMn4nG46yo7mKF6wrVz5WFgzqAINgrG4nCk+lpx9Ni047bSCfzIdjzxC+/70p4Lvy3cDvx9B4kOnvWo56SRacd55+aAp6FznU0/RjrvvLuiefImZD6/slauOZ9/gGgsDRIOhluCGrL3sMjpzIvQZz2tqn5ztWufzoQ/0wswGWDfI9GSiOsq+cUl6wGW584F1g4IwmagpPs740IfouNe9ruCfzBPq96zL8djfj6DwodNerVN2aMM//3PBHOTe8Oztt2txPHY+vLBXrja18UBRt6LY6hcupFd985u53Bk7Zr1QqwtCeDUPFOVyGwNmImOv+ECtLgjh1ab4aDslPemuaX5ny59/Z0Hhw217NRt+uq8zH17YK9ccD4/wR1+CK7WdUIhec9NNVHvMMbr5mjY/6MX9VviK8LPwCP9K4QNf2X4WU3zE1OS2c1au9IXq9vfD73y4bq8cMpQYGXGYcvZkdj7ctleuNbX1TwywxMqhbsiLPvABWjmxlo4bz+Nn4CsCS2qPJqv5lC+3XAOoFD7qq9JrCfmSDFUoU3y0qt9iSH2EsRx88kn645e/zIczbtGfoFv4/fA7H7rtFZotu557zjGc4UiEXvOd72SlH+ntpXs+/vGsc6UeMB9u2yvXHI+b1db5xx9P5/3bv5XKSVH3c41nZNTf0/SbatbJB5of+GiM6PtSzKdjqedM8ZHbzLZddUw/9f3vl1rcou/n98PvfOi2V907dhD+nMqGz30uK2kqlaKfv/nNdGSL3pWQmQ+37ZUrTW08lxkrmYWo5oNwLEaX/eAHFI17s8QQV1/Hw7W+7efhucwqiY/6mlCmVqH5J1dydib5yHU8+x99tOTylpIBvx9+5sNNe5UPy5UXXkjnfPKTWZfu/+xnadutt2ad03HAfLhtr1xxPAOJZgsj7szSAdh0eZz7L/9Cbap5geWZn/2Md13bsp5ut5s6VXBRfXoeMy6n0/uKSecnPvzar2CSjwUveEEWbQiR9lr4d+dXPty0V7lcoE/u1d/+dlbz6L4HH6T7P//53KTajpkPN+2VS44nPYGm6S/sZS97GZ35kY9kCOl9/nn69fvelzl2a4f19Gtk24KJCTS5nKZw8RsfrLcpfYvNl8ulm49QNEpo5mRBH0Eh/Qx8n+4t68l6686/1Pz4veVylppfIfdv+MxnqGHBZGBScnycfvXudxMlk4VkU1Ba1pP1LujmIhO70seDgVgQVOtMSXzOHLpUDeLkjlS0if7fW95CQ0ePmnrktPmynqz3tAk9uoCBihAup4li+JEP1tuEvqXkyeXSzcf8desoWj0Z5LL/scdIvSC09CUvoZYTTiDrumqS7ty8mQ6ooB/8jXSnlzovRZ/Z7mU9We/Z0rt9nd9bLqdbz8dHAoKi7PLAddfRQTWRsklhPVlvk8/ivF1xPPwwk9tX3HADNS5enHnEQ//5n7Tzt78lfPV5ISMHD1J1a6s1d1tVeNiLInj6TL/yAWPXNxrxFBu3Hp7bv9O8fDm9V0W1tdhqQfayJBMJ+t0XvkC/U83VKbVvUvj9qCQ+ZsPz4v/6Lwrb7FXP3r10n4ZBp7M9F9eZDzgfN+yV8aY2rr5xdc4JCIWmOfHv/o5OeOMbM7cdVpEfv/3YxzLHXuzwV4TbYYqz6cphu5XKR4PPwqpN8tGW07/TrGbtmM7p4HcDo4emnneqPoVj1q6d7adU0nV+P/zGhxv2Kh9wy889NzOtF1+/9xOfoLGBAT40umU+3LJXxh2PUbRU5k3LltErvv71zGPGx8bo58oRJYb8PWAwU+Ay2xE+/ENobo3HackWnHoqvelXv6JoTY3TWyRdiQicffXVWTl0bd9OT91yS9a5cjow7ngGE3MsvIx8YYfDdKkamFXd2Jjh5H4V/+51yCgKg6orZCzpr5d3YUM6oq1S+Wio9tdAUpN85HM8iGr7jZq77QYV+fkF5Vi+oabTuUd9WSeGs5uD56rZDjYajKTi98NvfBi1V5ZFmPqvVXGQO9j9D1/8IqVUYIFbwny4Za+86QDRhOaLP/pRalcdpSz7HniAQJgfhKuubnbYea13EPjwa4e2bu7qVWRUjQq4scs2VYv5yetfT+M2J4OOa/z99ec/t2o5cDgsmFz0ye99z0jnNr8flcIHY5pvm1vb6dmzhzDTgZvCfLhlr4w7Hu6oire1acUR07xvUIOqWEZVWyhG9rr5lcDPzrdlfVn/fGm8OMcd61w+XWUICh+svy69S82Hy6Obj8HDh+nGs84iBBTMUX+I8vyjWrBwuqABjIhH2O4VKiCHBdO2oO/BRFQV68v68zO93vL7yuUzXZ7a+fPp+De8IesxmNIoqboM3BTWl/U3/WzjjseEAtHaWmt2gkhVVSb7u9T4naMFzIWUuVF2SkZA+CgZQu0ZwHDt+/OfrT+nme+85x7aettttOZVr8rcgrBrEXMIrL30UoKDZ8EkoKhllrsYdzx10fS4AEycqUtefs01NG/Nmkx2qJruVQtWzc/zktjDE3FDtRoZbE/XpwaZDhsY68P6sv6Zwnq809GfnkOOy6ejOEHig/XXobeOPLg8OvkopVxorrY7ntYTTywlu2nvZX1Z/2kTunyB31cun+nH566ThPV2Rnp6TD92Sv6sL+s/JYHmE8Ydj+byWtm1n3NOVrZNS5da4xOyTk5zEFFzub3PNuvuw2r8z+0ezG4wTfECeVr4CCRteQt9NGciS/vYuLw3yMmiEahRS7Ys37gx6/5yjmSzK2o8qo3bDDGY0o8SUpFxJoT1Zf1NPKOYPLlNnctXTB4m7zHNB+tvUodC8ubyGOUDv3GHv/NYfX1W8THtlAlhfVl/E88oJk9+X7l8xeTh9J41l1ySNWAUUxohAMQLYX1Zf9NlMGN1c0rNynB1LueyHLqMAL/swofLwE/zOBN8nHnVVfTep5+mq1RY/6dGR+ncf/3XaZ6efdrehI0rGIxdaeKWvcptKYDTsUccljPurjS1gUidYXp/UH08c1ascMSLNRo7Z9qJez/1qcy9e37/+8y+rp32K6+0smqOpcfy6MpXVz4wdDrDWIPCx7aj/hpTxXzq5gP5YqJJ+ywFqy6+mO6ZZTaPkOrkPvaii7hY1taE4+H3w6986LZXWYDaDha96EW2I6IOj5asYD7ctFeuOJ45ygBjYaU2tc6EjoGLTxcwohdztW2wOZ7BI0fo92o+KpPCoYluddQVqstWZYCx8Fil8fH8RGBFoXiZTq+bD5QXC76d+eEPZ4qOIIGlqm90z+9+lzmXu3O66uu0Oytc366Wqtct/H74lQ/d9iofftXNzTQvZ1qiQ2qyVi+E+XDTXrnS1MYKVUrTTsvEktustxc/ppmeyZFElcYH6z0TNl5c43Lp5GO3cjAIzbXLZWrlUYwbySfLzztvykwFz/zv/1LHQw/lS17SOX4/WO+SMjNwM7+3OvnILeaiF74wM5M+X+tUTaNeCPPBertRBlccD6qutSqsGh1YJsl0A7DZntF6wQVWEujLbcWz3eP2dTTt4KWvJD6gL/eluI33bM8zwUdicJB+lzPlTdOSJfQ+ZdxOfstbCBFVaA1oVcMczlMDS9+sajbxpvS6WSgv5jw0MdEuvx9+5sMNezX32GOzfhbDajkKDO1wW5gPt+2VK01tANON6qvbpOV7XrOadwkCff0sJpp3/Kgv8wF9/Swm+Pi9CihYcvbZtMrWb1PX0kKvuemmWaG4UzXTmRiQHRQ+TNsr+2JvIMOr2g7z4ba9cqXGA2C5GocaD7cp4ny5iRfV1mIw5GaOxgrhg/UtBis37uHyaeVDTZODmdoLCdFF89yv3/9+elitDWNC+P1gfU08Q0eepu0V5tKzi1eOh/lgfe1lMrnvmuOxV185isKkYpm81cs3ppodWEb7+3lX+3aNmrQUgugQvzazsdLcvBNXzZ/lzgeip/zazGaaj+GuLvqhmgLn+yqw59Azz/DjpmwxOzUmCr3hpJPokeuvn3Jdxwl+P4LAh2l7lTunJFaBdVuYDy/slWtNbQB1ce1W2tb7IqufBzUfHRFus5EFgv+1rm62ZCVfRy2Ovx6aY/tLzs+NDDbtbaLL1x0ifGWXMx9bjvi7mY25NsnH9jvvpOvVyqPo2zlGTTeFiKqauXMJk4n2dXRYU06NGfwos78fQeHDpL3ChKz480rsfHhhr1x1PPiKgHftVl/ZukJ5vSIu97mrJxZygn51UffnWsotj5Nj1ALw9bm6jPmAfh0D6fnpnGDiZRo3+BhSwwn2qXkN8eem8PsRJD7EXpn7hbjW1MYqtMR3WbuoHZRLhBv0YF1YP9bX79uHD6SnSClXPlg/v/PA5ePyCh+MiLdbfp/LlQ/Wz22UXXc8+Ipoie+29HS1b8EgsqwH9IJ+QRJ8ZT9yMO18WI8glT9fWVkP6OX3vp3c8gsfuYh4eyz2ygz+rjseqNEcO2AZaNQSuIPLjHrmcz3p2mut2g5+oPMnanPmn6r3CVu70p3v5cSHZcAnanN60TKfm/BhHuNCniD2qhC0nKX1xPHASC+vf8IqIaqw/IXqrMj+SYXBV9zEtqg2uJMpwkjfun1uWfGxac/kYEj//GKclUT4cIaTW6nEXulH2hPHAzVA5rL6v1gatapQTx5Bq19FMznC4XCHKfQISkDBdGhYxu65CecTcD5uVXoEJaBA+JgOAX+dF3ull49wKBVO6c3SeW4w1ugXqVajqVHrCcrAUjgdNLFBFqkQ8aA7HWYMxhr9InHFx9KA8oGQ5KA7HeGDEfDXVuxV6XywvwmnQtFk6dkVnwP6RRCCjHnDYMz9XvOxOx3Mb4T233KSR1S/CEJeMbD0xIDxgdHw6B8pJxE+/MWm2KvS+GB/E1YzBXpW42EVENLHzqddTWDo1z4fOEWu6cDpcD8V61EuW4T0svNZGhA+4HS4n6pceGA9hA9Gwh9bsVcl8DDhb6IUinha44EKaD9F53xMbTtb2mnpFVdYzW5b1YJvfhGOXkN50DwY1Ag2J3iiv+de1Tnfq7br1YrlfucDzYOoGZSrCB/+YlbsVQl8TPibaChSmyghG623wpjXRo/Srv5TrOln0Py2++abXZlaZzpF0LSGGhi2kHIIJJhO19zzMOYdfTG65Ngu3/JRDoEEubhPdyx8TIeMN+fFXhWOO/ub0P5n798T6r1nSeFZmLsDy2Tv7D85s1x2p1or5MBvfuOqA0KgAxwOwr0htZFuaqnZZTyQ4PZdx9Mdu08wB24ROWOZ7EtWdmWWy/YDHx39VaqW01A2gQSF0CJ8OEfrovan6eJlZifgrGR75ZyJdMpU47l7F6x66dLQ/u1/2hXuva89lfTXiHuQ2T3aRp3D7VaJRw4etBwPakDDB8x16MPhoC8HzUssbjat+dHxAAcYuzVzh1TTW3p272HFR+8TT1g1Urf5KPemNf7dzbQVPmZCZ/KaG44HT6tUezWJ9Ox7oXCcko0bdi9YedYyy/FEBx5rHx/rnP1OD1KA0M7hZcoJqc4GJeyAdNeA4GywKBLXcPAsBDy4PTDUr44HeEBg8E5v66fVc4asY3ZAbvCBgAf0PYlMIiB8TGKRb88tx8PPrjR7xXo72UaqWihRd+qk44kP72sfGfZmvW8nBUYaELpvcA0NJpozt9idEE4WsswCajbot4HD4f4bzhgRa5gSHZ2IbovfHQ/jAYO3cUkPLawf5VNZHwU4qYsPRKxhfA462UXyIyB85MfFbcfDpagUe8X6OtlWx0+g4fjiScdTlxhtH+y/18m9nqcBoQPK+RxVNSC7E+KCwRlB2OhxMxA7F95yet7C2dSrAa1eR6sFxfEwbjB4cD5rVA3I7oT4erF8wNlYA1rLOFqNMdK5FT6y0fTK8XApyt1esZ5OtrX1L6OBaGzS8TSmatv7em8jSo05ud83aeykYh9/TgW1GYxExpKvfhoEGjTHY8fbbvSwjz+ngtrMfjVzwvNlOAjUKQa60wkfRF47Hjun5Wiv7PrNuB+qoobGV1FvaNByPOmF4EIhqootprGRnTPe67eLcB5wGnbHwc4HtSIIHyNMG1Iu09tYyvjsH5zHVjVzAP5Y2PlwbYiPEaYNKZfpbVhfP22FDz+xkR6vWKn2Cv6FlJ9hyaxAGq1aGjjHw0rYt9wvY3dG9uuy7y4C3C9jd0bulkCeZkdA+LCj4f1+pdgr+Be7ZGanjkbnUThca78m+4KAICAICAKCQEkIwK/Av9gl43hwsqr6WPs12RcEBAFBQBAQBEpCIJ9fyXY8sRWqGS7d9l7Sk+RmQUAQEAQEgYpHAP6kSvmVXMlyPKFQhGLVq3LTyLEgIAgIAoKAIFAwAvAn8Cu5kuV4cLEqfqxKOBmVlHuDHAsCgoAgIAgIArMhAD8Cf5JPpjieEEWpuuakfGnlnCAgCAgCgoAg4AgB+BH4k3wyxfEgEWKuI1XpudHy3STnBAFBQBAQBASB6RCA/7DG7kyTIK/jQdp47Wmqya16mtvktCAgCAgCgoAgMBUB+A34j5lkWscTVu1z8dr16t7J0aYzZSTXBAFBQBAQBCodgZDlN+A/ZpJpHQ9uila1USy+eqb75ZogIAgIAoKAIGAhAH8BvzGbzOh4cDOmso7GfLVA6Ww6yXVBQBAQBAQBlxGAn4C/cCKzOh5kUqOa3CTYwAmckkYQEAQEgcpDAP4BfsKpOHI8RGGV6RnifJyiKukEAUFAEKgQBNJO5wylrUN3UkjKUChKtXVnSbNbhfyYRE1BQBAQBGZDAM1r8AvwD4WIcxdl5YqazwtVwMEadSTRboUALWkFAUFAECgfBEKWH4A/KKSmw/oX5qYm7kIHUiQyj4YHH6FUaoTzkq0gIAgIAoJAmSOQHqez3lH02nRQFFjjmcwGIXO1jedKv88kJLInCAgCgkBZI4D+HNh9JyHTMwFRVI2HM8Qgodq6F9PY6D4aGXpS1X6G+JJsBQFBQBAQBMoEAUz4ibnXZpoGpxBVS3I8/CAUJhpro7Hh52h05FnlgEb5kmwFAUFAEBAEAooA1tPB0gbWqgXTTPhZjGpaHA8ejFlIY/G1ahXTVaoGtIPGRp6jZHKwmDLJPYKAICAICAIeIoDlqrFyKBZxy7eeTqlF0+Z4uCC8mBy8ZCJxmBJje6ymOEqNcRLZCgKCgCAgCPgNgVCV1ZQWrVpK0eg8o6XT7njspUXh8RePv4DGx7tpPNFJifFOSo73Uio5bE8q+4KAICAICAIuIhAKxykcaaRopIUiUfUXaVZNV+4MkzHqeDIYKmUi0TnWX4wwBkhJKkHjyT7lhAbUQUL1CyWscylKWpcr9V8kOr9SVRe9BQHtCOB9isXXac83SBmGMKOAGuCZHuQZVc6mjiLhBuucV3q443jyaaeAiESUM1J/IpMIRKJFR7hPZiJ7goAgYCEAx1MdP0bQ8BkCYuV8RogURxAQBASBckdAHE+5Myz6CQKCgCDgMwTE8fiMECmOICAICALljoA4nnJnWPQTBAQBQcBnCIjj8RkhUhxBQBAQBModAXE85c6w6CcICAKCgM8QEMfjM0KkOIKAICAIlDsC4njKnWHRTxAQBAQBnyEgjsdnhEhxBAFBQBAodwTE8ZQ7w6KfICAICAI+Q8C7KXMMATGSSM/11jucXhMIx9VqGprqaMR6IrY4FnEHgYbYuPWghfVpPnDcNxqhvpE0H31jal8di7iDgPDhDs5On1Kp9irQjgekwcH0DifoUH9hs13D+TTGYzS/vlptq5z+TiTdDAjAqMHBLFJ/q+cUthotnM/+gRhtOVJDHWorUjoCwkfpGOrMQezVJJqBczxM3qH+EeVwpq7xM3LwoKVdzxNPWNvhAwco3tZG1a2t1jHvIx84K/xVqRmxa+LVVq1IHNHkj8PJHhu3NcrRcK3Gfp9TPpBPQ2zIclj9QynqHa+mflUbEkdkR3P2feFjdozcTCH2Kj/agXE8cDJwNrk1m8677iI4l90335xfw2nOwgE1nXwytV5wgbUds5wYnjGsakFxqQlNgxufXlg3SmuPSTsKPoetLj7qKd00h5rTtqM14oDsIOfZFz7ygOLhKbFXM4Mf2r/9T7saqa595mTeXcUXw77uwSyHA+PW/Ze/0ME779RSsFwnhEyrKEXN9TW0uLnW1T6hX2wJ0y+3+rcPCl/Up7f1ZzWlucFH/3CKOoZq6eED9dInZPvVCx82MPLsvnpNki5d694aX5Vmr/JAPuOpXhrYvWDlWct87XjgcPDHAgO39Zpr+NDIFk4ItaClV1xh5R9TPqCpNk4r59UbeV5upn52POuVw1nf2p8pshd89I+EqGMwTvfuacqUo1J3hI/ZmXfT8VSivZqdgewUvnY8qKZuP9xH+HqAoL9m25e+ZDWpZath7ggOqP3KK6nl/POthyAYYeW8BuOBCH50PGjG2bi0R/XBpCPU/MAHghE2KedTiYEIwofz994Nx1PJ9so5E+mUvnU8IPGZAz1WKWHg0HfDgQKFKqkjPRzQ6quvtvqBYuEQLZlbZ/UB6cg7Xx5+czwwcpcc22UV1W98oPbzcGcjbe2qyQdlWZ4TPgqj1bTjqXR7VRgbROx4Ild98O0fqqZYc6EZmEiPjv1tnX1W1jByT374w8RRUSae5yTPRH+/5fiqGhoovmIl9fUPUTKEUGwzIdhbDodo65GQk6IZT7Nm7hBduLzbeo4f+ZizZiXNjw1SrCpMHf3lH4ItfBT+k187L0Xr1J8JEXtVOKojNNbzla/deJ1votpQy8HXAwTNaroCBwqHZuodiJpD3xK26PtBWy6aAd3q95laIvNnLlnZlQmP9jsf62v6qVE1A5Zzv4/wYf43X8gTxF4VgtbUtL4In7KTiFqOn5yOHTI0+6F8EHztbD882dFuTxf0fbuRCwofCLt+meqHKkcRPvzFqtir0vnw3PGg9sA1HRg5L/tznMCJ8j18+eVWUjgfe9Sdk/v9ngaRUjwQNGh8wPmg/OUkwoe/2BR7pYcPTx0PHA4b7iAYOYYcTW4oL+RAV1/WGCNOE8QtOq45XDqofKxt7CH0hZSDCB/+YlHslT4+PHM8IBFVVgj6EPxe08mFHOXd893vUiIcob1dA5laW266oBzbo6WCzEd9TYROb+kl6BNkET78xZ7YK718eOZ4uKYDA+7XPp3ZoEafDwZRjiZT1rij2dL7+fr6tslowqDzUV+dssYd+Rnv2comfMyGkLvXxV7pxdsTx8PtpHA63GSlVy33cuNxRohyC2qwQbofYcyqdZYLHxjsGtRgA+HDvffXyZPEXjlBqbA0njkeFBNGO+iC/h40TUF6Boczsy0ESS/u1yk3PhbWDmdmWxA+vEHA/n4ElQ+u7ZTb++GlvXLd8XCtAE1UQevXme7VxcuVbnKjTLDEdGn9dp5rBeXIB5rcMKFpkET48BdbYq/M8OHqAFI0RyEEGVIOXw92SqAP5nXrVjMb9AZkcTk0R/GCbUb4CIdp8Rln0ML162nhaadZ2+qmJjq6fTsd3rqV9v7pT/Tk975HqfH0HHB2PEvdZz4W1gyqQINgLC6nk4+Wk06iFeedVyqM1PnUU7Tj7rtLzieIfIi9Kpn2aTOIhihkZj6JPI/ExJ8QRIOhllBOAn2gF2Y2wLpBpqbU0YnZxiXpqEITfMTnzKHLfvADWnXRRVOK3LhoEbWfcw6d9s530pkqLP2OD3yAdt9335R0pZyw84F1g4IwmahOPtZddhlt+Od/LgVC695nb79di+MJIh9ir0r++UzJgP1NOKW+N6dcNXQCIYmQoEZNzQYL64VaHes62z1eXueBolxuXWVpPeUUetejj+Z1OrnPaD3xRLpCfVEvefGLcy+VfMx6oVYXhPBqU3yUDKSmDILGB7/DXG5NMPgmG9bLTXvF/ias1jtzZcADd9ChL6Hcajv8S4Je3G+FWo+fhUf46+Zj3nHH0dtVE9qc5cuz1N//+OP0wHXX0aPf/CYd+utfs66Fo1F6/Y9/TLUtLVnnSz2w84Faj5/FFB+l6pwY0fc7DhIfYq9K/eVMc/+Ev4mmwqlR5XyMC389YOXQchZ8RWBJ7ZGEaxXJouDkGoBWPkIheuUNN1BVzeQyBclEgm59xzvoCVsEYygSoZd8/OO04TOfoZDqB4I0LFxIZ3zoQ3SvOq9TmI/6qsri4wnV7Nv13HOOoQwrTl7zne9kpR/p7aV7KpQPsVdZPwVtB5a/UbmpPp6UK5+CTCRX77Rp4rOMuMYzNKzvS9GEiiaadVa/6lVW3w2XN5VK0c/+9m/prz/7GZ+ytggm+N3nP091ra30wve/P3Nt1cUXa3c8zEdjpLL46N6xg/DnVDZ87nNZScHdz9/8ZjqyZUvW+VIPgsKH2KtSmc5/P/ubcJLGO/Mn0XeWI9n4R6cvZ//lxM0JYxT2bT8Pz2Wmm4+T/u7vsgh5+kc/muJ07An+8MUvEgwcS5uqKcIZ6RTmo74m5Nt+HlN8OMVx5YUX0jmf/GRW8vs/+1naduutWed0HASBD7FXOpjOn0eCxg7iSjQZHt9NhlsheocTVinKvbbDUHPzjl+j2xbVp7v1dPIRUwvlrX7lKxkCSqpazWzNNH3PP2/1+dTOm0eDhw/TwMGDNHT0aCYPXTvMh1+j20zw4RQ78Pbqb3+bQqqZlGXfgw/S/apGakr8zofYK1PMq3zDqT3IPZoMkfOG4CLL0zucNnS6v7CLLI7x21hP1tv4Awt8wIKJCTS5nAXenjc5xurY+3b2q6i2nl278qa1n/z1e95jPzSyz3qy3kYeUkKmXC4uZwlZFXwr+tkaFizI3IcPhl+9+91EyWTmnO4d1pP11p1/qfnxe8vlLDU/v9/PerLeJsubTI49i/yjifD4JpMPQt4YiAVBNbsShPVkvf2mMwYqQricOsrXcsIJWdnsuOeerGMMHG1aupSqGxutwaNDqobjlrCerLdbz3X6HC4Xl9PpfaWmm3/88fQiNYbKLog8PKjmUDQprCfrbfJZxeTN7y2Xs5g8gnQP68l6myx7oip8H/KPrlzy8qf6nnuCwpM1bZPPrZi8R1SzUbXqrwCZ1VHXZyZyHecWNR7HLvseeIBU+w2h3+c09QW99Oyz7ZepZ88eQpp7PvEJOlpA9FVWJgUcMB8wdn2jkQLuLN+kF//XfxFC2Vl69u6l+zQMOuX8ZtoKHzOh4/415sOkvVKT+BP8DbSzLOJ4iozVqzk6hKtz7kPqzRMnvyIMd6AVqB6HUevmo3Hx4qySoM/g8jvuoEsxm0OO00FC1H6Of8Mb6D1qfM8pb3tb1r0mDpiPBp+FVZviYzYMl597Li3bsCEr2b3qI2BsYCDrnKkDv/Ih9sqcvbL7GetzZ4zGRqpUC72pH5nkW/4IVKtOaru8Ro3biavmtdkkVl9Pr77xRmpub3fta3u2MlXC9bOvvjpLzS41f95Tt9ySdU4OBAGdCMDPcH6W4xkPj6nOl6rsoeacosRtpX5BoOoKSQ8krSoRRX23L2wwE+iB6Ci72J1Ov8Jiyy9+QYfVmJA6NTsBvrYXv+hF9uT04n/6J9r8k5/Qoc2bs87rOmA+GqrVF507H/WOim6Kj5kejimNVqoJbe1ihbYbmKzV/gz7vl/5EHuFGo8Ze5X2M+lfgeV4EuHRxylZa8Tx2H9slbTPTQludNj5AVfUXPLJlv/7P7pVTQaaFUygxoyc8Q//QOepcTyRWMy6LVJVRa/8xjfoJjV5qBrcky+rks4xH37t0C5JuQJvzq3toL8NMx24KcKHm2jP/izmw6S9svzMRFGsPp4kJX42e9GKS8Ed6/G2tuIyCOhdrC/r7xc1uGOdy6etXHmcBYIHfvza12Y7HTxQpX3g2mvpd1/4Qtbjl6qJQnODFLISlHDA+rL+JWSl9VYuD5dPa+Z5MqudP9/qW7Nf+uOXv0zJsfQEvvbzJvdZX9bf5LMKyZvfVy5fIfcGOS3ry/qb0CUZGfsJ52s5nqXLz/2h6vgREQSKRmC0P3vBtZQaB3Lbu94143gQGLzu3buznjlfTTIqYg6BtZdeSpiXjQWTgGJNJBFBwCQC8C9Ll573Y36G5XhwMJIaS6/Qxlc0bRvj6aYUTJxZScL6sv5+0b2j3wwfI33ptZZYT0xQiUXEZpLx4WHarmYrt0uLGltiQpgP1t/EM4rJk8vD5Ssmj0LuOe51r8tKjvV2RnrS6zJlXTB8wPqy/oYf5zh7fl+5fI5vDHhC1pf1161Orn/JOJ5EeHiH7odJfpWDwHB3d5ayg0eOZB1Pd9D1rDWQOXP5mNWrM/uyoxeBmmOOoeUbN2ZlKpFsWXDIgSEEcv1LxvGMhge+b+KZ3GaIwZSVJKwv6+8X3blNncunq1yHc9bYQbCAExnP6VvAlC0mhPVl/U08o5g8uTxcvmLycHrPmksuyRowimUPtv3qV05v15qO9WX9tWZeQmb8vnL5SsgqULeyvqy/7sLn+peM42lffsEXxzG01ICwMlydM/AIybIABPhl18nHwZxmNQQJhCci1mYq2tyVK7Mu9+7bl3VcCQcm+MiHG5YbtwucDpo7RbIREHuVjUepR/Ar8C/2fDKOBydHQqPZDfX2lCXsV0cnOzNLyCYwt7ZfeaVV1vn1cV+WmQ2dzsJZU+TYMoxWV9OCU0+1ncm/u/iMM7IudO/cmXWs44D52HbUn2OkTfCRD7dFOWOnOtRErl6I3/kQe6X3V5HPr2Q5ntHw0Ca9j0znNr++2tppU+t+VIJwaGJj3Bom5TuVt04YYJ18YL615x9+OEvXi776VYraViPNuqgO1qmObsxqzYJIuK233caH2rbMx/MTgRXaMtaUkQk+cotW3dxM89auzTptarBu1kPyHPidD7FXeUgr4VQ+v5LleMajI+810djGkRI6m3ZKwMH4rS0To8JZb+MPLPABHEmkm4/H1boudln0whdac7VhstBcmbtqFV3wla9knd51333UZ6CpjflgvbMe6oMDLpduPuyqgQv7mju41vn00/Ykru37nQ9+b03y4RrYDh7EfLDeDm5xnAT+BH4l94Ysx7N06fkdQ8kx7ROKoM20MV5lzdZc7mS2XnCBhbGlr09npUbTDowdOhR18vHYt75Fuc03CN99g1r6ug3NbsoB1amBxJgU9F2PPGJNFMo/SAQV/FZNm6NbmA/o61aTVqE6mOLDXo65xx5rPyREIWIhPrclCHyIvdL3q4A/gV/JzTHL8eDiSFX/7bmJdBxXSvW1Wc2DBWF9dWBnIg8TzTsp5Tx+ccUV1pIH9jKvu+wyerfqT/h0IkFX7d9vTQqKdXns8sdrrqGOhx6yn9Kyz3ywvloyNZAJl09n86e9mPbF3nDeq9pOUPjg99cUH3ZuvNxnPlhf3WUZjQ7kDZuc4nh6BjrfNp7U/XhSNZ7JgYvcxqv/Kd7naLLaqlM7bt5pVAN7dfJx+Jln6L9V7eZZtSRCroTCU35uVhIss3yvmr/NhDAfrK+JZ+jIk8unmw8uW71tlVGc88rxBIUPsVf8yyl+Cz/SPXjwHflymGIJjj/+Df1DoSHtMa326itHteQrUJDPrfnoR63iI5qNQzL9qg8378RVc5tuPobU4NFbXvEK+u3HPmbNSI2ggXyyc9Mm+r4KOLnv0582MjEo84FoNr82szEuJvnAM1AbtUunoVnA7c/I3Q8SH2Kvctkr/Bh+BP4k3515w65GYv1X1Y/V/CjfDaWcWzmvgR7f12X1K6BvQfdiZKWUrdR7UWvgrzlT1dZSy5h7/6a9TXT5ukOEr2ztfKiJQNF8hj8smYDQ6lb1HBjA7l276JAacNq9Y0dukbQd2/nYcsSfYdS5yprk41dqFVj8eSVB5EPsVWm/FviR6XKYUuNBQkzmNpjUP3cbviKs2oD6yi63ttPVEwtrQT8EFgRB8JWN2gBqPSb5GFXzuO2+/3566Gtfo4e//nV69te/Nup0gD3zAf06BtLNvH7nxC0+vMAhiHyIvSr+lwL/YZ8UNDenvI4HiQYjvf+Zm1jH8eLmWisb1A50RlTpKFuxeUAP1oX1KzYvt+97+EB6HZ1y5YP1cxvXYp/H5RU+ikVQ7338PpcrH6yfXtRm9x/TOp72FS+7eiS3YVhD6fAVwcrq7lvQULyismA9oBf0C5LgK/uRg2nnw3oEqfz5ysp6QC/oFyQRPvzFltirwvmA34D/mOnOGa3kQLjnppluLvYad76jlsAdjsXm5fV9J6kFzaCH/QfqdZkKff7WrnTneznxYRnwidpcoXh4nV748JqB7OeLvcrGY7YjJ35jRsezZMXGd44kxxOzPajQ6zDSx7U1W7ehCstfqIXm43V6DIbjJjZ0RAZVYKRv3T7XKn658LHp/7d3rbFRXFf47OzLXi92DAaDbRxjJyAgUkuBFDU0wW0hKan6C6VKH6pCHylSSdSUVMqf/uBPpJYUpVSiTSuiVE2kRlF/VA0itA1J1ES0IaVVQxAJT2OMjY0f6/Wud7070/vtMmZ3vd6dp3dm91zJnp2Z+5rvm3vO3HvOvbevya10ZHppzIdz6GN5pZ0L6AvojXIpSioeJI757bH1ZMnMCodW4VKrzmguV2Gn3IfCUQ2m65Y3ucahYD78Msrn/C3l43I+/iyewy0OBczHfAg46zrLK218aNUXZRVPR9e2p2LKTFxbsfpiwfsrYxdZtizT67FyIqO+muiLDaWDITaEnpawpUrH67FjtTxtzwdhDbtIneCjU6yw7UY+4JLsdqWjssV8qEgYP1rZnlheleYBegL6onSs7F1Nlte9+x45Xy837Jq71KOWIkrHAZmJlEyJQB21bN1KqWiUpi5cKJ2ogndzlQ7q3rU4a5i3qkpXJjz0vxtlvwesKm5OPphB3xhMU2tLkJYIPtIu4gN1f28gfymeOQ/osgvMhznCNixXqCfbkTeX0a3ULK+Kw4jP5cnA6LcOHvz9meIx8q9qUjzI7Iknv/2dIPltGThvCPgImwVB+YTFqsW+cNiRk0sxHLhu//4MgngBMcRmdRiY9NDpwcopHjzPSNxPdT4lo3waBB9+F/ABAa3aRazmpNL5MR/GGbi3TWxCljUnG8+kICXLqwJAxGmUYlfbVz1QdHmcubGJiq5cUCyiEhrbmIrWD/mkImvcF0ug4xrGTzFkhWM/iWEesdAkhnnOiVnvTgmq9xrqg+FB1SXc6vo5YQsf2HveFMb5iDhuEjuWO50PDA+ecqkHm5b3h/nQglLxOHa0J5ZX+VinFFKUhrGN+VdLn2nq8SCL5557OfbEvkeb6+S6/C0jS+ev6y56EfgbjiaoQWyJjJVTpwcHKTE0pCsfKyNjaA0u3zgioJcD90q7QkIsqfX2lcr2eNRnQy8Cf2sWxx3LBxwJ1JWd1XpX65H50M/sl++SqdmmFZNYXmX5mPSP/7KtY/uf9LCj22wz9Mm/RsJScImeQvTGhc3no8HxjO0HaW8cP06Dx44t6PAbelxw84Z7MQJeMvRycLQzxGeI9hzV3BG1syqzeS8KpOmrPaOEI4IT+BiI+kUvZ1HVOBLMgq3hB/OhAaRbUQ7vTFG9vU02I6dqVV5F5cTN1rvvbdHOSDambsUTHTrZmpqsu+4v3M5Qb8ll4kP5DEenqX88lomJXg8WFb3y0kuZXlCZ5IZvQ+HAloPhJTXYObSmlpF7fPKYlyYSuqnJzcLy3xB26Plsas0uNjst+IhUiI9qH1rTQh7zUR6lpqBCzz+Uvyp3+VTGYtSivJpRFMW3aHpFuHWL7iEpQ9Lt8uUTP25JLz5gKLFOXkEolA+UEIKqgKzuAUHZYGhP7eGgLAypwfa00OHn70l0ZtgZw22Fzw6Bt3l5lFY3Zz3sVQW0EHxgwU/YnjjcRoD5uI1F4a/1S2V6+nPFt+QojGvVea3IK3ixjXhH93V19ebvX68RSMO6Y+DCP0420aLPaizHdDQQemFkkiLTYizqVshVQrikZ5sF9Gxgt4HCUe03ar4YTsNKBDAiViL85WMPvXZWs/mtElXMDLv1rpygtnBytny7+IBtA/NzYGTnUBwBKCDmIx+bXWvT9JXVlZkXV+3yaoIm/9nWs9Wwvd+w4gHFw+dPjYc89rhY579Ct89AaGQ6mXFAyFVCagwIPwRVCcE5AUFVLuoxczHnn2ootMtbLaeosj8vjhHtf8dZdp75Kg2BB+WzRvSAcpWQGt8oHxlDOia0VrG3moqRlUfm4zaaP70/Rd3Nt88r8asa5ZWYKDqx9K5NppzUTSke2HuSkeBAUJpnT2Obmc4lNZFKzzojaCkWvRlsb9so/C3t9FLTUpfCOGJKE/3wqJdiKVP0FGZr+3mu0MNv/GkN6M1cF4rmmujdnBu1yQ1Ja2WqJF4t8xES89B+tTNNkoOaUDXIq4Qsy4nw9eUrVuwcNtNMTNNy6dLRB5ak2094PWQ6LzMPoqYFuQjoFSGo56o3mnrM3HTwvyOnJXqnrzJDfVbCoioftTekng9MZjdnq5blbazEzM68VPyrnY/7O2XavWFh7TtGeFPlkxvkVVrM17npvda7atXOt408a24aS5RFf9+JHzQlFx920tdF7kO68fe5EaJn33XHcJsb8eU6VzcCz9yXojW6nXyrGxMzT4dRmInA6J6Ozt5fm8lHTWvJJzUqE/GNHHD+94X62M4/rhYzpVrqK2MYdT46XENGYH4E0G7QfjhYgwDkOuS7VUoHtbJE8SCj9q4vPj3uGXuBRSXQMB+wMNH2blbl5pHkHGoNAbQb6xf2qjUUs88LeQ65DvluJQKWKR5UamX3tscnvJFXWPlYQ9G2LoXCAUbTGjQ5l1pAAO0F7YaDeQSAIuQ55Lr53PJzsFTxIOv2rs9/Y0xoSP5WzwfayFlQmHge7GEkjWDHaWoTAbQXtBsO5hCA1IEchzw3l1Px1JYrHhQDDRnxCpsPf3gUR13H1e3dCjXXMZA6IOOoNYoA2gnaCwdzCEBuQ37b0dNRa2aL4kHmGBOEFwRc8NTC+KgfASzr/vV7uNejHzlOUWsIoJ3YsQ1CLeEIeQ25bbVNpxBD2xQPCoIXBPy+MemosGA+147A5naF7lnGEGpHjGPWGgJoH2gnHIwjADkNeW2l99p8tbFV8aBQTDbCTFcsszBfJfh6eQR2f1qmBj83rPJIcYxaQwDtAu2Dg3EEIJ8hp62YHKqlFpZMINVSEOJgYdFGsbDoghaqtXIuiPffIQ8dPIlvBUbQBXRxFRcEAYV+tEWmT7XyR5kRuIFaxOSCn0bKtb3Hk1sprGaKpbSxj0Pudf6tDQE0rofvZui0ocWxagEBtAdWOsaYhhyGPDazyrSxkiv06YzFRaci0hm7dzI1CoqT00Fl/+YDiU5eW9BvBidDwnWrUQS2tMv0+EaeLGqEfuwc2tAorzeyiZuR8grTVER64WGxXeqEb/z5lMy9n0JSSp1jRvZ3PyOzs0EpkPhe1SMAZwK0A16hQB/VkLeQu5C/lVI6qHHFjQXXrx9d6ok1fxCm0MqKV0YfhxWNnUgRHXpfog9vVOTboaLPzoXXNgJQOns380RRPW8BBuijFLuqhMY2mt3SQE+588V1jKzv6/vb1+qTd7woNpbjzVjmY6vgOnaA+N2/editABY+rWIEMLyGnk6FNgd2JbLCYy0eD4w/1tn5pT865QEco3hUQPovv/WL0Ezj3qDk5YUvVFBKHDFQ+dpZiV7/BFQ6js4SNedbjIAeBLKONbvW8vCaVtQScjoV80cOdXRte0prmoWK51hJdfXiid82yE2PBT1e70KB4eZy4Gr9gnA6mJpxLKVuhpfrXkEEME/n+8KJgL3XtJGQUNLpKWnixZXdvd/TlmLhYzleSl25+ObPQunGvSHJX7fw8LirxNE40ZH/sN3HXaxxbUshAHsOJocu5gH4UjBl7sXkmemYN3Lozu4v/KRs5ApHcLziUfGBDSiYDB+oV+o7vGxPV2Epenz/mode+VCisWnX0Fv0Ofhi7SKABT+x9hovg1P6HUgLO2/cE+9PBKL7nGTDKV1rFxoFzpx5NdzUsOxIINXwcMgTCLFoLU7xtPB6O37BQ8cvShRNMkrFUeKrTkMA++nsEBu57ehReMHPeciBh1pMScaSvqnXJ6Zu7F6//pHoPFEde9nVEqmv73ibNxU8HJDre4NKYJFXcvXj2PKSwO36rcse+qtQQCNxxscWkDlT0whgu2rsHIpN3Hg/nblwpsVeBQlPcjIpxU+kfYk9nZ07BubGcs+VqpJEVy698UxAbvimT67rDnr8dd6qejpzLxW83z6+SfTuVYlODXgolmJwzCHKqc0iEPIptKlNoftWyrR6iRh+4VdyFlKxPQEllJnplDR9MSlN/eHOVQ8+O3uzCn5UNdV9l/7+qES+XT45sMEr+5f7yR8Uykiq9Y4RNnq6PE700bCHzo54qD/ioYlEVb8KVdBU3f8ITUGFOhoVWtui0LqlCnXdQcRtkUgoGXmGZhJpaWYwJSVPy96ZV91krzHyZv4ftdu8feBPSfcAAAAASUVORK5CYII=;fontFamily=Times New Roman;" parent="1" vertex="1">
          <mxGeometry x="1110" y="370" width="414" height="412" as="geometry" />
        </mxCell>
        <mxCell id="hdJvPOuQKjUCLLla7TbE-4" value="&lt;font style=&quot;font-size: 36px;&quot;&gt;(a)&lt;/font&gt;" style="text;html=1;strokeColor=none;fillColor=none;align=center;verticalAlign=middle;whiteSpace=wrap;rounded=0;fontFamily=Times New Roman;" parent="1" vertex="1">
          <mxGeometry x="227" y="810" width="60" height="30" as="geometry" />
        </mxCell>
        <mxCell id="hdJvPOuQKjUCLLla7TbE-5" value="&lt;font style=&quot;font-size: 36px;&quot;&gt;(b)&lt;/font&gt;" style="text;html=1;strokeColor=none;fillColor=none;align=center;verticalAlign=middle;whiteSpace=wrap;rounded=0;fontFamily=Times New Roman;" parent="1" vertex="1">
          <mxGeometry x="757" y="810" width="60" height="30" as="geometry" />
        </mxCell>
        <mxCell id="hdJvPOuQKjUCLLla7TbE-6" value="&lt;font style=&quot;font-size: 36px;&quot;&gt;(c)&lt;/font&gt;" style="text;html=1;strokeColor=none;fillColor=none;align=center;verticalAlign=middle;whiteSpace=wrap;rounded=0;fontFamily=Times New Roman;" parent="1" vertex="1">
          <mxGeometry x="1287" y="800" width="60" height="30" as="geometry" />
        </mxCell>
      </root>
    </mxGraphModel>
  </diagram>
</mxfile>
